<svg><ellipse cx="128" cy="166" rx="166" ry="224" style="fill:rgb(184,195,146)" transform="rotate(318 128 166)"></ellipse>
<ellipse cx="186" cy="146" rx="208" ry="219" style="fill:rgb(237,240,189)" transform="rotate(34 186 146)"></ellipse>
<ellipse cx="145" cy="144" rx="88" ry="59" style="fill:rgb(200,121,108)" transform="rotate(203 145 144)"></ellipse>
<ellipse cx="218" cy="108" rx="216" ry="4" style="fill:rgb(231,95,154)" transform="rotate(34 218 108)"></ellipse>
<ellipse cx="159" cy="102" rx="109" ry="39" style="fill:rgb(183,145,98)" transform="rotate(210 159 102)"></ellipse>
<ellipse cx="223" cy="187" rx="28" ry="98" style="fill:rgb(214,227,254)" transform="rotate(29 223 187)"></ellipse>
<ellipse cx="5" cy="22" rx="55" ry="86" style="fill:rgb(248,174,227)" transform="rotate(280 5 22)"></ellipse>
<ellipse cx="80" cy="31" rx="134" ry="35" style="fill:rgb(215,215,225)" transform="rotate(178 80 31)"></ellipse>
<ellipse cx="177" cy="219" rx="32" ry="99" style="fill:rgb(230,215,250)" transform="rotate(258 177 219)"></ellipse>
<ellipse cx="137" cy="83" rx="12" ry="43" style="fill:rgb(240,157,91)" transform="rotate(346 137 83)"></ellipse>
<ellipse cx="161" cy="124" rx="21" ry="25" style="fill:rgb(135,176,177)" transform="rotate(115 161 124)"></ellipse>
<ellipse cx="145" cy="125" rx="21" ry="13" style="fill:rgb(105,48,255)" transform="rotate(63 145 125)"></ellipse>
<ellipse cx="51" cy="138" rx="44" ry="11" style="fill:rgb(240,62,4)" transform="rotate(153 51 138)"></ellipse>
<ellipse cx="186" cy="25" rx="32" ry="147" style="fill:rgb(252,222,249)" transform="rotate(331 186 25)"></ellipse>
<ellipse cx="111" cy="162" rx="10" ry="20" style="fill:rgb(237,200,32)" transform="rotate(125 111 162)"></ellipse>
<ellipse cx="44" cy="186" rx="31" ry="40" style="fill:rgb(240,233,243)" transform="rotate(236 44 186)"></ellipse>
<ellipse cx="73" cy="185" rx="188" ry="5" style="fill:rgb(233,229,218)" transform="rotate(15 73 185)"></ellipse>
<ellipse cx="154" cy="66" rx="9" ry="14" style="fill:rgb(241,166,110)" transform="rotate(269 154 66)"></ellipse>
<ellipse cx="53" cy="39" rx="180" ry="7" style="fill:rgb(237,242,218)" transform="rotate(147 53 39)"></ellipse>
<ellipse cx="72" cy="86" rx="54" ry="7" style="fill:rgb(240,230,43)" transform="rotate(13 72 86)"></ellipse>
<ellipse cx="200" cy="152" rx="17" ry="11" style="fill:rgb(187,195,2)" transform="rotate(258 200 152)"></ellipse>
<ellipse cx="5" cy="129" rx="3" ry="88" style="fill:rgb(226,228,223)" transform="rotate(193 5 129)"></ellipse>
<ellipse cx="204" cy="112" rx="15" ry="1" style="fill:rgb(233,64,148)" transform="rotate(55 204 112)"></ellipse>
<ellipse cx="223" cy="116" rx="63" ry="6" style="fill:rgb(216,89,127)" transform="rotate(35 223 116)"></ellipse>
<ellipse cx="179" cy="132" rx="4" ry="11" style="fill:rgb(195,217,230)" transform="rotate(95 179 132)"></ellipse>
<ellipse cx="146" cy="134" rx="20" ry="23" style="fill:rgb(70,90,61)" transform="rotate(235 146 134)"></ellipse>
<ellipse cx="222" cy="63" rx="30" ry="143" style="fill:rgb(236,228,223)" transform="rotate(150 222 63)"></ellipse>
<ellipse cx="216" cy="89" rx="96" ry="11" style="fill:rgb(230,249,234)" transform="rotate(61 216 89)"></ellipse>
<ellipse cx="19" cy="44" rx="40" ry="180" style="fill:rgb(245,197,248)" transform="rotate(38 19 44)"></ellipse>
<ellipse cx="84" cy="133" rx="10" ry="30" style="fill:rgb(200,112,56)" transform="rotate(120 84 133)"></ellipse>
<ellipse cx="77" cy="42" rx="18" ry="27" style="fill:rgb(251,224,249)" transform="rotate(174 77 42)"></ellipse>
<ellipse cx="118" cy="37" rx="12" ry="2" style="fill:rgb(233,128,165)" transform="rotate(203 118 37)"></ellipse>
<ellipse cx="111" cy="122" rx="8" ry="19" style="fill:rgb(162,166,255)" transform="rotate(148 111 122)"></ellipse>
<ellipse cx="144" cy="115" rx="24" ry="6" style="fill:rgb(12,177,248)" transform="rotate(353 144 115)"></ellipse>
<ellipse cx="194" cy="96" rx="14" ry="66" style="fill:rgb(206,115,44)" transform="rotate(126 194 96)"></ellipse>
<ellipse cx="224" cy="113" rx="131" ry="2" style="fill:rgb(167,252,198)" transform="rotate(105 224 113)"></ellipse>
<ellipse cx="224" cy="121" rx="153" ry="12" style="fill:rgb(245,252,238)" transform="rotate(92 224 121)"></ellipse>
<ellipse cx="170" cy="94" rx="56" ry="1" style="fill:rgb(235,144,83)" transform="rotate(239 170 94)"></ellipse>
<ellipse cx="95" cy="148" rx="38" ry="17" style="fill:rgb(245,184,23)" transform="rotate(33 95 148)"></ellipse>
<ellipse cx="139" cy="139" rx="9" ry="22" style="fill:rgb(81,16,190)" transform="rotate(269 139 139)"></ellipse>
<ellipse cx="147" cy="116" rx="39" ry="14" style="fill:rgb(54,153,162)" transform="rotate(160 147 116)"></ellipse>
<ellipse cx="105" cy="84" rx="16" ry="40" style="fill:rgb(208,157,35)" transform="rotate(286 105 84)"></ellipse>
<ellipse cx="222" cy="72" rx="43" ry="28" style="fill:rgb(237,241,235)" transform="rotate(248 222 72)"></ellipse>
<ellipse cx="119" cy="75" rx="5" ry="34" style="fill:rgb(238,34,13)" transform="rotate(268 119 75)"></ellipse>
<ellipse cx="126" cy="170" rx="38" ry="2" style="fill:rgb(228,42,37)" transform="rotate(42 126 170)"></ellipse>
<ellipse cx="30" cy="193" rx="0" ry="121" style="fill:rgb(223,234,230)" transform="rotate(284 30 193)"></ellipse>
<ellipse cx="163" cy="152" rx="8" ry="5" style="fill:rgb(111,239,174)" transform="rotate(231 163 152)"></ellipse>
<ellipse cx="128" cy="154" rx="2" ry="9" style="fill:rgb(151,137,169)" transform="rotate(177 128 154)"></ellipse>
<ellipse cx="142" cy="119" rx="19" ry="24" style="fill:rgb(44,35,160)" transform="rotate(209 142 119)"></ellipse>
<ellipse cx="58" cy="19" rx="5" ry="102" style="fill:rgb(219,247,231)" transform="rotate(206 58 19)"></ellipse>
<ellipse cx="166" cy="38" rx="15" ry="13" style="fill:rgb(223,248,233)" transform="rotate(146 166 38)"></ellipse>
<ellipse cx="79" cy="111" rx="2" ry="3" style="fill:rgb(183,45,18)" transform="rotate(73 79 111)"></ellipse>
<ellipse cx="62" cy="116" rx="19" ry="8" style="fill:rgb(244,126,74)" transform="rotate(301 62 116)"></ellipse>
<ellipse cx="146" cy="154" rx="41" ry="5" style="fill:rgb(139,211,63)" transform="rotate(7 146 154)"></ellipse>
<ellipse cx="189" cy="110" rx="25" ry="7" style="fill:rgb(205,125,91)" transform="rotate(58 189 110)"></ellipse>
<ellipse cx="197" cy="83" rx="3" ry="68" style="fill:rgb(241,250,251)" transform="rotate(134 197 83)"></ellipse>
<ellipse cx="85" cy="111" rx="4" ry="41" style="fill:rgb(187,122,67)" transform="rotate(150 85 111)"></ellipse>
<ellipse cx="154" cy="178" rx="36" ry="16" style="fill:rgb(225,166,67)" transform="rotate(13 154 178)"></ellipse>
<ellipse cx="121" cy="100" rx="5" ry="25" style="fill:rgb(182,221,177)" transform="rotate(29 121 100)"></ellipse>
<ellipse cx="188" cy="102" rx="208" ry="1" style="fill:rgb(252,198,149)" transform="rotate(6 188 102)"></ellipse>
<ellipse cx="29" cy="149" rx="6" ry="22" style="fill:rgb(254,124,35)" transform="rotate(252 29 149)"></ellipse>
<ellipse cx="194" cy="84" rx="0" ry="1" style="fill:rgb(221,130,247)" transform="rotate(131 194 84)"></ellipse>
<ellipse cx="113" cy="167" rx="15" ry="20" style="fill:rgb(221,142,56)" transform="rotate(49 113 167)"></ellipse>
<ellipse cx="147" cy="93" rx="3" ry="28" style="fill:rgb(215,125,249)" transform="rotate(125 147 93)"></ellipse>
<ellipse cx="194" cy="146" rx="15" ry="19" style="fill:rgb(181,42,53)" transform="rotate(252 194 146)"></ellipse>
<ellipse cx="137" cy="73" rx="6" ry="13" style="fill:rgb(237,205,68)" transform="rotate(49 137 73)"></ellipse>
<ellipse cx="56" cy="70" rx="13" ry="2" style="fill:rgb(210,55,4)" transform="rotate(148 56 70)"></ellipse>
<ellipse cx="135" cy="46" rx="5" ry="65" style="fill:rgb(205,174,47)" transform="rotate(307 135 46)"></ellipse>
<ellipse cx="219" cy="179" rx="184" ry="17" style="fill:rgb(234,209,238)" transform="rotate(135 219 179)"></ellipse>
<ellipse cx="87" cy="114" rx="19" ry="5" style="fill:rgb(213,100,31)" transform="rotate(27 87 114)"></ellipse>
<ellipse cx="180" cy="69" rx="6" ry="3" style="fill:rgb(237,228,191)" transform="rotate(200 180 69)"></ellipse>
<ellipse cx="80" cy="5" rx="44" ry="9" style="fill:rgb(211,250,253)" transform="rotate(195 80 5)"></ellipse>
<ellipse cx="2" cy="133" rx="14" ry="171" style="fill:rgb(248,211,246)" transform="rotate(20 2 133)"></ellipse>
<ellipse cx="184" cy="141" rx="4" ry="66" style="fill:rgb(201,169,95)" transform="rotate(54 184 141)"></ellipse>
<ellipse cx="100" cy="1" rx="64" ry="33" style="fill:rgb(246,228,213)" transform="rotate(306 100 1)"></ellipse>
<ellipse cx="12" cy="50" rx="199" ry="15" style="fill:rgb(246,243,225)" transform="rotate(334 12 50)"></ellipse>
<ellipse cx="172" cy="108" rx="21" ry="5" style="fill:rgb(195,138,130)" transform="rotate(230 172 108)"></ellipse>
<ellipse cx="23" cy="10" rx="7" ry="38" style="fill:rgb(250,237,232)" transform="rotate(69 23 10)"></ellipse>
<ellipse cx="121" cy="144" rx="26" ry="4" style="fill:rgb(133,203,234)" transform="rotate(10 121 144)"></ellipse>
<ellipse cx="128" cy="183" rx="0" ry="10" style="fill:rgb(227,188,75)" transform="rotate(47 128 183)"></ellipse>
<ellipse cx="146" cy="158" rx="115" ry="2" style="fill:rgb(205,168,157)" transform="rotate(191 146 158)"></ellipse>
<ellipse cx="76" cy="112" rx="62" ry="3" style="fill:rgb(239,128,32)" transform="rotate(333 76 112)"></ellipse>
<ellipse cx="163" cy="151" rx="5" ry="36" style="fill:rgb(245,242,228)" transform="rotate(50 163 151)"></ellipse>
<ellipse cx="22" cy="163" rx="6" ry="2" style="fill:rgb(171,153,37)" transform="rotate(6 22 163)"></ellipse>
<ellipse cx="158" cy="137" rx="7" ry="19" style="fill:rgb(112,136,193)" transform="rotate(222 158 137)"></ellipse>
<ellipse cx="160" cy="99" rx="10" ry="20" style="fill:rgb(177,241,177)" transform="rotate(291 160 99)"></ellipse>
<ellipse cx="183" cy="62" rx="14" ry="8" style="fill:rgb(232,245,223)" transform="rotate(10 183 62)"></ellipse>
<ellipse cx="197" cy="117" rx="60" ry="2" style="fill:rgb(221,111,60)" transform="rotate(235 197 117)"></ellipse>
<ellipse cx="48" cy="148" rx="8" ry="1" style="fill:rgb(217,167,25)" transform="rotate(357 48 148)"></ellipse>
<ellipse cx="110" cy="83" rx="66" ry="10" style="fill:rgb(226,110,42)" transform="rotate(322 110 83)"></ellipse>
<ellipse cx="178" cy="4" rx="56" ry="56" style="fill:rgb(232,244,241)" transform="rotate(338 178 4)"></ellipse>
<ellipse cx="183" cy="171" rx="2" ry="8" style="fill:rgb(191,44,11)" transform="rotate(171 183 171)"></ellipse>
<ellipse cx="136" cy="57" rx="12" ry="0" style="fill:rgb(209,136,55)" transform="rotate(328 136 57)"></ellipse>
<ellipse cx="24" cy="183" rx="221" ry="0" style="fill:rgb(253,247,219)" transform="rotate(214 24 183)"></ellipse>
<ellipse cx="125" cy="46" rx="17" ry="0" style="fill:rgb(209,113,66)" transform="rotate(64 125 46)"></ellipse>
<ellipse cx="25" cy="203" rx="15" ry="34" style="fill:rgb(227,240,242)" transform="rotate(123 25 203)"></ellipse>
<ellipse cx="32" cy="75" rx="1" ry="12" style="fill:rgb(240,231,220)" transform="rotate(70 32 75)"></ellipse>
<ellipse cx="82" cy="130" rx="13" ry="6" style="fill:rgb(220,127,19)" transform="rotate(115 82 130)"></ellipse>
<ellipse cx="88" cy="168" rx="12" ry="3" style="fill:rgb(185,136,50)" transform="rotate(233 88 168)"></ellipse>
<ellipse cx="40" cy="48" rx="20" ry="17" style="fill:rgb(236,230,242)" transform="rotate(206 40 48)"></ellipse>
<ellipse cx="48" cy="76" rx="1" ry="4" style="fill:rgb(218,98,65)" transform="rotate(157 48 76)"></ellipse>
<ellipse cx="141" cy="6" rx="17" ry="154" style="fill:rgb(255,233,235)" transform="rotate(256 141 6)"></ellipse>
<ellipse cx="164" cy="172" rx="55" ry="16" style="fill:rgb(223,103,54)" transform="rotate(152 164 172)"></ellipse>
<ellipse cx="142" cy="108" rx="6" ry="8" style="fill:rgb(29,76,202)" transform="rotate(191 142 108)"></ellipse>
<ellipse cx="52" cy="39" rx="23" ry="56" style="fill:rgb(239,249,246)" transform="rotate(239 52 39)"></ellipse>
<ellipse cx="38" cy="224" rx="159" ry="40" style="fill:rgb(233,227,222)" transform="rotate(188 38 224)"></ellipse>
<ellipse cx="19" cy="45" rx="29" ry="20" style="fill:rgb(244,245,245)" transform="rotate(220 19 45)"></ellipse>
<ellipse cx="90" cy="147" rx="1" ry="13" style="fill:rgb(233,41,119)" transform="rotate(279 90 147)"></ellipse>
<ellipse cx="45" cy="215" rx="23" ry="51" style="fill:rgb(227,241,250)" transform="rotate(92 45 215)"></ellipse>
<ellipse cx="63" cy="138" rx="16" ry="8" style="fill:rgb(232,169,115)" transform="rotate(27 63 138)"></ellipse>
<ellipse cx="131" cy="142" rx="8" ry="5" style="fill:rgb(64,193,173)" transform="rotate(276 131 142)"></ellipse>
<ellipse cx="63" cy="126" rx="6" ry="18" style="fill:rgb(216,128,62)" transform="rotate(41 63 126)"></ellipse>
<ellipse cx="158" cy="204" rx="99" ry="0" style="fill:rgb(223,189,241)" transform="rotate(153 158 204)"></ellipse>
<ellipse cx="171" cy="216" rx="0" ry="152" style="fill:rgb(213,247,244)" transform="rotate(56 171 216)"></ellipse>
<ellipse cx="130" cy="156" rx="5" ry="3" style="fill:rgb(237,198,253)" transform="rotate(129 130 156)"></ellipse>
<ellipse cx="138" cy="126" rx="9" ry="15" style="fill:rgb(13,116,136)" transform="rotate(111 138 126)"></ellipse>
<ellipse cx="25" cy="15" rx="23" ry="35" style="fill:rgb(234,239,253)" transform="rotate(136 25 15)"></ellipse>
<ellipse cx="44" cy="71" rx="25" ry="1" style="fill:rgb(179,238,157)" transform="rotate(341 44 71)"></ellipse>
<ellipse cx="153" cy="116" rx="14" ry="10" style="fill:rgb(32,137,172)" transform="rotate(64 153 116)"></ellipse>
<ellipse cx="36" cy="203" rx="42" ry="19" style="fill:rgb(231,238,229)" transform="rotate(216 36 203)"></ellipse>
<ellipse cx="85" cy="200" rx="124" ry="2" style="fill:rgb(252,231,221)" transform="rotate(16 85 200)"></ellipse>
<ellipse cx="96" cy="170" rx="4" ry="2" style="fill:rgb(226,158,49)" transform="rotate(134 96 170)"></ellipse>
<ellipse cx="54" cy="118" rx="3" ry="1" style="fill:rgb(227,82,12)" transform="rotate(153 54 118)"></ellipse>
<ellipse cx="133" cy="165" rx="30" ry="1" style="fill:rgb(237,148,42)" transform="rotate(9 133 165)"></ellipse>
<ellipse cx="87" cy="126" rx="65" ry="3" style="fill:rgb(222,70,54)" transform="rotate(66 87 126)"></ellipse>
<ellipse cx="205" cy="131" rx="16" ry="17" style="fill:rgb(210,131,26)" transform="rotate(33 205 131)"></ellipse>
<ellipse cx="41" cy="71" rx="5" ry="11" style="fill:rgb(147,193,124)" transform="rotate(195 41 71)"></ellipse>
<ellipse cx="123" cy="175" rx="16" ry="35" style="fill:rgb(241,93,9)" transform="rotate(284 123 175)"></ellipse>
<ellipse cx="220" cy="149" rx="3" ry="167" style="fill:rgb(250,177,231)" transform="rotate(31 220 149)"></ellipse>
<ellipse cx="66" cy="72" rx="2" ry="2" style="fill:rgb(123,104,52)" transform="rotate(85 66 72)"></ellipse>
<ellipse cx="57" cy="124" rx="71" ry="6" style="fill:rgb(249,128,14)" transform="rotate(326 57 124)"></ellipse>
<ellipse cx="154" cy="81" rx="8" ry="2" style="fill:rgb(223,96,3)" transform="rotate(165 154 81)"></ellipse>
<ellipse cx="215" cy="209" rx="3" ry="201" style="fill:rgb(255,249,232)" transform="rotate(76 215 209)"></ellipse>
<ellipse cx="18" cy="194" rx="78" ry="8" style="fill:rgb(240,219,220)" transform="rotate(237 18 194)"></ellipse>
<ellipse cx="223" cy="210" rx="45" ry="43" style="fill:rgb(239,235,220)" transform="rotate(91 223 210)"></ellipse>
<ellipse cx="193" cy="125" rx="31" ry="6" style="fill:rgb(216,112,60)" transform="rotate(109 193 125)"></ellipse>
<ellipse cx="19" cy="133" rx="7" ry="19" style="fill:rgb(240,205,220)" transform="rotate(220 19 133)"></ellipse>
<ellipse cx="105" cy="222" rx="7" ry="33" style="fill:rgb(172,240,241)" transform="rotate(38 105 222)"></ellipse>
<ellipse cx="127" cy="54" rx="2" ry="13" style="fill:rgb(238,188,61)" transform="rotate(1 127 54)"></ellipse>
<ellipse cx="49" cy="123" rx="5" ry="5" style="fill:rgb(249,100,83)" transform="rotate(239 49 123)"></ellipse>
<ellipse cx="79" cy="128" rx="12" ry="9" style="fill:rgb(214,102,0)" transform="rotate(285 79 128)"></ellipse>
<ellipse cx="201" cy="108" rx="1" ry="10" style="fill:rgb(239,99,0)" transform="rotate(85 201 108)"></ellipse>
<ellipse cx="87" cy="140" rx="27" ry="10" style="fill:rgb(220,96,42)" transform="rotate(59 87 140)"></ellipse>
<ellipse cx="115" cy="42" rx="14" ry="4" style="fill:rgb(203,182,88)" transform="rotate(254 115 42)"></ellipse>
<ellipse cx="97" cy="214" rx="20" ry="34" style="fill:rgb(255,236,245)" transform="rotate(238 97 214)"></ellipse>
<ellipse cx="99" cy="107" rx="0" ry="2" style="fill:rgb(250,149,153)" transform="rotate(336 99 107)"></ellipse>
<ellipse cx="51" cy="17" rx="222" ry="16" style="fill:rgb(246,230,253)" transform="rotate(116 51 17)"></ellipse>
<ellipse cx="129" cy="59" rx="7" ry="5" style="fill:rgb(225,242,93)" transform="rotate(319 129 59)"></ellipse>
<ellipse cx="218" cy="123" rx="4" ry="13" style="fill:rgb(247,254,178)" transform="rotate(353 218 123)"></ellipse>
<ellipse cx="130" cy="57" rx="2" ry="3" style="fill:rgb(208,199,80)" transform="rotate(80 130 57)"></ellipse>
<ellipse cx="83" cy="85" rx="13" ry="5" style="fill:rgb(238,161,40)" transform="rotate(142 83 85)"></ellipse>
<ellipse cx="141" cy="51" rx="0" ry="16" style="fill:rgb(239,87,6)" transform="rotate(132 141 51)"></ellipse>
<ellipse cx="82" cy="192" rx="5" ry="213" style="fill:rgb(201,244,245)" transform="rotate(280 82 192)"></ellipse>
<ellipse cx="113" cy="142" rx="26" ry="7" style="fill:rgb(150,244,212)" transform="rotate(212 113 142)"></ellipse>
<ellipse cx="144" cy="92" rx="10" ry="5" style="fill:rgb(237,197,176)" transform="rotate(305 144 92)"></ellipse>
<ellipse cx="141" cy="157" rx="7" ry="6" style="fill:rgb(150,197,133)" transform="rotate(115 141 157)"></ellipse>
<ellipse cx="93" cy="117" rx="42" ry="10" style="fill:rgb(245,151,48)" transform="rotate(90 93 117)"></ellipse>
<ellipse cx="207" cy="209" rx="10" ry="37" style="fill:rgb(254,216,248)" transform="rotate(65 207 209)"></ellipse>
<ellipse cx="195" cy="205" rx="207" ry="1" style="fill:rgb(223,223,239)" transform="rotate(292 195 205)"></ellipse>
<ellipse cx="224" cy="129" rx="21" ry="7" style="fill:rgb(193,247,190)" transform="rotate(267 224 129)"></ellipse>
<ellipse cx="96" cy="7" rx="17" ry="10" style="fill:rgb(249,253,234)" transform="rotate(14 96 7)"></ellipse>
<ellipse cx="125" cy="110" rx="2" ry="10" style="fill:rgb(96,163,134)" transform="rotate(263 125 110)"></ellipse>
<ellipse cx="216" cy="215" rx="12" ry="27" style="fill:rgb(247,241,246)" transform="rotate(185 216 215)"></ellipse>
<ellipse cx="37" cy="201" rx="16" ry="27" style="fill:rgb(218,245,252)" transform="rotate(187 37 201)"></ellipse>
<ellipse cx="213" cy="41" rx="61" ry="6" style="fill:rgb(236,249,244)" transform="rotate(16 213 41)"></ellipse>
<ellipse cx="48" cy="128" rx="3" ry="7" style="fill:rgb(242,158,11)" transform="rotate(345 48 128)"></ellipse>
<ellipse cx="194" cy="222" rx="37" ry="41" style="fill:rgb(245,249,239)" transform="rotate(56 194 222)"></ellipse>
<ellipse cx="147" cy="99" rx="2" ry="3" style="fill:rgb(144,130,216)" transform="rotate(260 147 99)"></ellipse>
<ellipse cx="144" cy="55" rx="2" ry="39" style="fill:rgb(187,114,4)" transform="rotate(311 144 55)"></ellipse>
<ellipse cx="212" cy="224" rx="129" ry="0" style="fill:rgb(252,248,249)" transform="rotate(121 212 224)"></ellipse>
<ellipse cx="136" cy="124" rx="23" ry="15" style="fill:rgb(16,103,188)" transform="rotate(13 136 124)"></ellipse>
<ellipse cx="156" cy="152" rx="17" ry="9" style="fill:rgb(238,234,190)" transform="rotate(339 156 152)"></ellipse>
<ellipse cx="56" cy="222" rx="35" ry="101" style="fill:rgb(230,235,233)" transform="rotate(277 56 222)"></ellipse>
<ellipse cx="162" cy="130" rx="8" ry="6" style="fill:rgb(43,21,113)" transform="rotate(326 162 130)"></ellipse>
<ellipse cx="115" cy="54" rx="4" ry="10" style="fill:rgb(239,201,207)" transform="rotate(266 115 54)"></ellipse>
<ellipse cx="183" cy="166" rx="2" ry="31" style="fill:rgb(251,62,35)" transform="rotate(52 183 166)"></ellipse>
<ellipse cx="48" cy="13" rx="36" ry="167" style="fill:rgb(236,248,241)" transform="rotate(238 48 13)"></ellipse>
<ellipse cx="184" cy="86" rx="1" ry="10" style="fill:rgb(210,102,46)" transform="rotate(314 184 86)"></ellipse>
<ellipse cx="119" cy="42" rx="2" ry="4" style="fill:rgb(240,99,128)" transform="rotate(286 119 42)"></ellipse>
<ellipse cx="6" cy="206" rx="215" ry="0" style="fill:rgb(252,243,251)" transform="rotate(48 6 206)"></ellipse>
<ellipse cx="5" cy="216" rx="17" ry="72" style="fill:rgb(235,239,235)" transform="rotate(331 5 216)"></ellipse>
<ellipse cx="5" cy="153" rx="2" ry="38" style="fill:rgb(254,227,132)" transform="rotate(135 5 153)"></ellipse>
<ellipse cx="139" cy="213" rx="9" ry="15" style="fill:rgb(235,235,231)" transform="rotate(111 139 213)"></ellipse>
<ellipse cx="12" cy="213" rx="33" ry="154" style="fill:rgb(237,250,231)" transform="rotate(315 12 213)"></ellipse>
<ellipse cx="109" cy="110" rx="6" ry="7" style="fill:rgb(249,188,237)" transform="rotate(259 109 110)"></ellipse>
<ellipse cx="81" cy="151" rx="5" ry="3" style="fill:rgb(218,83,23)" transform="rotate(60 81 151)"></ellipse>
<ellipse cx="65" cy="155" rx="12" ry="8" style="fill:rgb(250,238,227)" transform="rotate(166 65 155)"></ellipse>
<ellipse cx="144" cy="147" rx="10" ry="5" style="fill:rgb(128,113,226)" transform="rotate(205 144 147)"></ellipse>
<ellipse cx="136" cy="137" rx="0" ry="7" style="fill:rgb(70,101,112)" transform="rotate(8 136 137)"></ellipse>
<ellipse cx="108" cy="156" rx="2" ry="13" style="fill:rgb(237,128,30)" transform="rotate(294 108 156)"></ellipse>
<ellipse cx="25" cy="196" rx="49" ry="10" style="fill:rgb(228,250,223)" transform="rotate(56 25 196)"></ellipse>
<ellipse cx="147" cy="142" rx="9" ry="11" style="fill:rgb(6,86,92)" transform="rotate(320 147 142)"></ellipse>
<ellipse cx="47" cy="153" rx="19" ry="0" style="fill:rgb(197,121,225)" transform="rotate(334 47 153)"></ellipse>
<ellipse cx="192" cy="95" rx="10" ry="10" style="fill:rgb(178,113,1)" transform="rotate(7 192 95)"></ellipse>
<ellipse cx="39" cy="221" rx="21" ry="16" style="fill:rgb(239,242,253)" transform="rotate(32 39 221)"></ellipse>
<ellipse cx="33" cy="160" rx="5" ry="1" style="fill:rgb(124,179,146)" transform="rotate(95 33 160)"></ellipse>
<ellipse cx="149" cy="150" rx="3" ry="11" style="fill:rgb(99,247,167)" transform="rotate(46 149 150)"></ellipse>
<ellipse cx="219" cy="22" rx="26" ry="211" style="fill:rgb(238,237,246)" transform="rotate(290 219 22)"></ellipse>
<ellipse cx="167" cy="173" rx="18" ry="13" style="fill:rgb(229,109,38)" transform="rotate(346 167 173)"></ellipse>
<ellipse cx="136" cy="128" rx="24" ry="17" style="fill:rgb(24,85,183)" transform="rotate(205 136 128)"></ellipse>
<ellipse cx="103" cy="104" rx="1" ry="3" style="fill:rgb(254,129,74)" transform="rotate(203 103 104)"></ellipse>
<ellipse cx="182" cy="164" rx="36" ry="10" style="fill:rgb(230,156,5)" transform="rotate(301 182 164)"></ellipse>
<ellipse cx="4" cy="74" rx="80" ry="19" style="fill:rgb(234,242,246)" transform="rotate(280 4 74)"></ellipse>
<ellipse cx="151" cy="159" rx="0" ry="23" style="fill:rgb(215,217,175)" transform="rotate(261 151 159)"></ellipse>
<ellipse cx="99" cy="121" rx="8" ry="2" style="fill:rgb(183,223,166)" transform="rotate(16 99 121)"></ellipse>
<ellipse cx="48" cy="184" rx="5" ry="44" style="fill:rgb(253,244,230)" transform="rotate(272 48 184)"></ellipse>
<ellipse cx="155" cy="206" rx="2" ry="11" style="fill:rgb(231,248,212)" transform="rotate(98 155 206)"></ellipse>
<ellipse cx="133" cy="130" rx="11" ry="1" style="fill:rgb(36,81,161)" transform="rotate(357 133 130)"></ellipse>
<ellipse cx="71" cy="85" rx="23" ry="10" style="fill:rgb(248,195,33)" transform="rotate(199 71 85)"></ellipse>
<ellipse cx="125" cy="120" rx="11" ry="8" style="fill:rgb(24,69,150)" transform="rotate(208 125 120)"></ellipse>
<ellipse cx="46" cy="74" rx="14" ry="1" style="fill:rgb(250,159,18)" transform="rotate(150 46 74)"></ellipse>
<ellipse cx="135" cy="110" rx="8" ry="4" style="fill:rgb(2,61,133)" transform="rotate(38 135 110)"></ellipse>
<ellipse cx="39" cy="79" rx="17" ry="1" style="fill:rgb(254,191,201)" transform="rotate(96 39 79)"></ellipse>
<ellipse cx="55" cy="157" rx="3" ry="13" style="fill:rgb(248,209,193)" transform="rotate(156 55 157)"></ellipse>
<ellipse cx="64" cy="28" rx="30" ry="47" style="fill:rgb(243,255,251)" transform="rotate(88 64 28)"></ellipse>
<ellipse cx="89" cy="87" rx="30" ry="3" style="fill:rgb(240,151,7)" transform="rotate(8 89 87)"></ellipse>
<ellipse cx="104" cy="79" rx="5" ry="25" style="fill:rgb(250,57,28)" transform="rotate(87 104 79)"></ellipse>
<ellipse cx="25" cy="215" rx="40" ry="33" style="fill:rgb(253,238,246)" transform="rotate(202 25 215)"></ellipse>
<ellipse cx="45" cy="71" rx="17" ry="2" style="fill:rgb(190,155,97)" transform="rotate(345 45 71)"></ellipse>
<ellipse cx="120" cy="158" rx="9" ry="2" style="fill:rgb(255,152,160)" transform="rotate(19 120 158)"></ellipse>
<ellipse cx="153" cy="153" rx="6" ry="18" style="fill:rgb(246,198,213)" transform="rotate(253 153 153)"></ellipse>
<ellipse cx="143" cy="202" rx="65" ry="2" style="fill:rgb(225,255,242)" transform="rotate(167 143 202)"></ellipse>
<ellipse cx="0" cy="127" rx="8" ry="129" style="fill:rgb(239,255,246)" transform="rotate(25 0 127)"></ellipse>
<ellipse cx="75" cy="66" rx="0" ry="4" style="fill:rgb(232,175,119)" transform="rotate(287 75 66)"></ellipse>
<ellipse cx="2" cy="100" rx="9" ry="107" style="fill:rgb(248,253,249)" transform="rotate(34 2 100)"></ellipse>
<ellipse cx="31" cy="161" rx="11" ry="7" style="fill:rgb(246,168,52)" transform="rotate(340 31 161)"></ellipse>
<ellipse cx="158" cy="104" rx="2" ry="25" style="fill:rgb(187,166,213)" transform="rotate(291 158 104)"></ellipse>
<ellipse cx="42" cy="82" rx="0" ry="0" style="fill:rgb(255,144,49)" transform="rotate(278 42 82)"></ellipse>
<ellipse cx="59" cy="67" rx="4" ry="19" style="fill:rgb(238,135,81)" transform="rotate(93 59 67)"></ellipse>
<ellipse cx="103" cy="84" rx="18" ry="13" style="fill:rgb(222,123,4)" transform="rotate(74 103 84)"></ellipse>
</svg>