<svg><ellipse cx="65" cy="102" rx="169" ry="185" style="fill:rgb(225,166,117)" transform="rotate(282 65 102)"></ellipse>
<ellipse cx="52" cy="150" rx="110" ry="47" style="fill:rgb(105,148,127)" transform="rotate(123 52 150)"></ellipse>
<ellipse cx="2" cy="195" rx="37" ry="113" style="fill:rgb(199,208,250)" transform="rotate(291 2 195)"></ellipse>
<ellipse cx="215" cy="180" rx="59" ry="86" style="fill:rgb(187,247,173)" transform="rotate(225 215 180)"></ellipse>
<ellipse cx="220" cy="30" rx="210" ry="26" style="fill:rgb(137,214,246)" transform="rotate(218 220 30)"></ellipse>
<ellipse cx="169" cy="149" rx="19" ry="91" style="fill:rgb(221,186,62)" transform="rotate(245 169 149)"></ellipse>
<ellipse cx="141" cy="13" rx="142" ry="11" style="fill:rgb(224,237,207)" transform="rotate(188 141 13)"></ellipse>
<ellipse cx="113" cy="70" rx="64" ry="54" style="fill:rgb(148,85,151)" transform="rotate(224 113 70)"></ellipse>
<ellipse cx="34" cy="115" rx="22" ry="64" style="fill:rgb(95,234,63)" transform="rotate(183 34 115)"></ellipse>
<ellipse cx="158" cy="219" rx="75" ry="21" style="fill:rgb(191,232,227)" transform="rotate(328 158 219)"></ellipse>
<ellipse cx="124" cy="48" rx="46" ry="31" style="fill:rgb(181,53,114)" transform="rotate(204 124 48)"></ellipse>
<ellipse cx="37" cy="31" rx="13" ry="28" style="fill:rgb(221,179,233)" transform="rotate(138 37 31)"></ellipse>
<ellipse cx="98" cy="93" rx="35" ry="13" style="fill:rgb(94,64,202)" transform="rotate(114 98 93)"></ellipse>
<ellipse cx="74" cy="11" rx="143" ry="15" style="fill:rgb(243,223,254)" transform="rotate(140 74 11)"></ellipse>
<ellipse cx="39" cy="116" rx="32" ry="20" style="fill:rgb(41,193,12)" transform="rotate(43 39 116)"></ellipse>
<ellipse cx="116" cy="106" rx="35" ry="39" style="fill:rgb(36,76,200)" transform="rotate(198 116 106)"></ellipse>
<ellipse cx="42" cy="24" rx="195" ry="19" style="fill:rgb(206,229,240)" transform="rotate(150 42 24)"></ellipse>
<ellipse cx="65" cy="34" rx="13" ry="6" style="fill:rgb(161,88,5)" transform="rotate(190 65 34)"></ellipse>
<ellipse cx="208" cy="151" rx="82" ry="4" style="fill:rgb(216,177,103)" transform="rotate(322 208 151)"></ellipse>
<ellipse cx="49" cy="166" rx="24" ry="18" style="fill:rgb(43,175,138)" transform="rotate(342 49 166)"></ellipse>
<ellipse cx="116" cy="138" rx="6" ry="58" style="fill:rgb(124,121,140)" transform="rotate(244 116 138)"></ellipse>
<ellipse cx="208" cy="4" rx="146" ry="21" style="fill:rgb(224,215,209)" transform="rotate(83 208 4)"></ellipse>
<ellipse cx="27" cy="5" rx="40" ry="67" style="fill:rgb(196,235,210)" transform="rotate(246 27 5)"></ellipse>
<ellipse cx="81" cy="30" rx="31" ry="12" style="fill:rgb(150,82,90)" transform="rotate(353 81 30)"></ellipse>
<ellipse cx="104" cy="42" rx="40" ry="27" style="fill:rgb(175,28,59)" transform="rotate(3 104 42)"></ellipse>
<ellipse cx="8" cy="215" rx="1" ry="52" style="fill:rgb(205,232,211)" transform="rotate(188 8 215)"></ellipse>
<ellipse cx="188" cy="79" rx="13" ry="12" style="fill:rgb(229,125,144)" transform="rotate(124 188 79)"></ellipse>
<ellipse cx="86" cy="97" rx="20" ry="40" style="fill:rgb(96,150,185)" transform="rotate(214 86 97)"></ellipse>
<ellipse cx="164" cy="180" rx="14" ry="68" style="fill:rgb(227,188,97)" transform="rotate(53 164 180)"></ellipse>
<ellipse cx="199" cy="184" rx="212" ry="5" style="fill:rgb(230,207,240)" transform="rotate(301 199 184)"></ellipse>
<ellipse cx="176" cy="97" rx="35" ry="16" style="fill:rgb(156,92,83)" transform="rotate(328 176 97)"></ellipse>
<ellipse cx="202" cy="203" rx="27" ry="146" style="fill:rgb(245,249,193)" transform="rotate(65 202 203)"></ellipse>
<ellipse cx="107" cy="153" rx="3" ry="76" style="fill:rgb(200,151,105)" transform="rotate(238 107 153)"></ellipse>
<ellipse cx="64" cy="88" rx="3" ry="0" style="fill:rgb(242,163,166)" transform="rotate(108 64 88)"></ellipse>
<ellipse cx="183" cy="96" rx="12" ry="51" style="fill:rgb(165,140,36)" transform="rotate(357 183 96)"></ellipse>
<ellipse cx="168" cy="56" rx="10" ry="23" style="fill:rgb(124,31,43)" transform="rotate(6 168 56)"></ellipse>
<ellipse cx="114" cy="215" rx="7" ry="108" style="fill:rgb(183,160,114)" transform="rotate(293 114 215)"></ellipse>
<ellipse cx="6" cy="148" rx="191" ry="2" style="fill:rgb(231,206,226)" transform="rotate(229 6 148)"></ellipse>
<ellipse cx="61" cy="120" rx="83" ry="16" style="fill:rgb(135,164,118)" transform="rotate(72 61 120)"></ellipse>
<ellipse cx="128" cy="62" rx="4" ry="6" style="fill:rgb(157,117,66)" transform="rotate(14 128 62)"></ellipse>
<ellipse cx="154" cy="213" rx="3" ry="161" style="fill:rgb(239,250,239)" transform="rotate(55 154 213)"></ellipse>
<ellipse cx="135" cy="83" rx="40" ry="17" style="fill:rgb(104,178,194)" transform="rotate(1 135 83)"></ellipse>
<ellipse cx="114" cy="38" rx="28" ry="11" style="fill:rgb(189,31,51)" transform="rotate(217 114 38)"></ellipse>
<ellipse cx="186" cy="133" rx="5" ry="81" style="fill:rgb(237,240,45)" transform="rotate(62 186 133)"></ellipse>
<ellipse cx="166" cy="101" rx="14" ry="29" style="fill:rgb(158,195,93)" transform="rotate(232 166 101)"></ellipse>
<ellipse cx="151" cy="42" rx="11" ry="32" style="fill:rgb(219,30,92)" transform="rotate(77 151 42)"></ellipse>
<ellipse cx="150" cy="72" rx="26" ry="8" style="fill:rgb(118,40,36)" transform="rotate(38 150 72)"></ellipse>
<ellipse cx="56" cy="125" rx="65" ry="1" style="fill:rgb(16,164,110)" transform="rotate(264 56 125)"></ellipse>
<ellipse cx="24" cy="184" rx="215" ry="4" style="fill:rgb(239,208,193)" transform="rotate(231 24 184)"></ellipse>
<ellipse cx="49" cy="48" rx="14" ry="7" style="fill:rgb(60,193,137)" transform="rotate(22 49 48)"></ellipse>
<ellipse cx="173" cy="23" rx="141" ry="4" style="fill:rgb(227,203,205)" transform="rotate(225 173 23)"></ellipse>
<ellipse cx="11" cy="41" rx="9" ry="119" style="fill:rgb(187,220,204)" transform="rotate(187 11 41)"></ellipse>
<ellipse cx="48" cy="207" rx="2" ry="38" style="fill:rgb(235,228,215)" transform="rotate(143 48 207)"></ellipse>
<ellipse cx="92" cy="139" rx="63" ry="8" style="fill:rgb(106,114,137)" transform="rotate(122 92 139)"></ellipse>
<ellipse cx="122" cy="213" rx="19" ry="2" style="fill:rgb(179,195,161)" transform="rotate(143 122 213)"></ellipse>
<ellipse cx="8" cy="10" rx="40" ry="214" style="fill:rgb(248,218,236)" transform="rotate(34 8 10)"></ellipse>
<ellipse cx="2" cy="201" rx="13" ry="27" style="fill:rgb(245,244,202)" transform="rotate(259 2 201)"></ellipse>
<ellipse cx="42" cy="212" rx="21" ry="219" style="fill:rgb(250,245,223)" transform="rotate(299 42 212)"></ellipse>
<ellipse cx="123" cy="127" rx="7" ry="4" style="fill:rgb(112,57,7)" transform="rotate(335 123 127)"></ellipse>
<ellipse cx="21" cy="62" rx="9" ry="6" style="fill:rgb(237,174,161)" transform="rotate(118 21 62)"></ellipse>
<ellipse cx="202" cy="207" rx="199" ry="9" style="fill:rgb(250,213,217)" transform="rotate(107 202 207)"></ellipse>
<ellipse cx="59" cy="161" rx="41" ry="23" style="fill:rgb(89,164,55)" transform="rotate(94 59 161)"></ellipse>
<ellipse cx="66" cy="189" rx="37" ry="3" style="fill:rgb(93,162,22)" transform="rotate(214 66 189)"></ellipse>
<ellipse cx="93" cy="169" rx="8" ry="33" style="fill:rgb(186,183,106)" transform="rotate(50 93 169)"></ellipse>
<ellipse cx="163" cy="61" rx="8" ry="15" style="fill:rgb(166,60,18)" transform="rotate(35 163 61)"></ellipse>
<ellipse cx="201" cy="109" rx="26" ry="20" style="fill:rgb(245,188,68)" transform="rotate(352 201 109)"></ellipse>
<ellipse cx="6" cy="175" rx="166" ry="21" style="fill:rgb(194,227,248)" transform="rotate(42 6 175)"></ellipse>
<ellipse cx="194" cy="75" rx="14" ry="11" style="fill:rgb(204,83,122)" transform="rotate(1 194 75)"></ellipse>
<ellipse cx="16" cy="215" rx="65" ry="35" style="fill:rgb(255,238,193)" transform="rotate(58 16 215)"></ellipse>
<ellipse cx="0" cy="104" rx="0" ry="89" style="fill:rgb(248,184,249)" transform="rotate(163 0 104)"></ellipse>
<ellipse cx="163" cy="126" rx="13" ry="3" style="fill:rgb(192,184,92)" transform="rotate(131 163 126)"></ellipse>
<ellipse cx="41" cy="142" rx="18" ry="28" style="fill:rgb(74,179,84)" transform="rotate(295 41 142)"></ellipse>
<ellipse cx="150" cy="93" rx="6" ry="4" style="fill:rgb(57,89,126)" transform="rotate(266 150 93)"></ellipse>
<ellipse cx="180" cy="122" rx="20" ry="23" style="fill:rgb(237,180,33)" transform="rotate(205 180 122)"></ellipse>
<ellipse cx="110" cy="193" rx="11" ry="3" style="fill:rgb(223,211,32)" transform="rotate(278 110 193)"></ellipse>
<ellipse cx="97" cy="60" rx="31" ry="4" style="fill:rgb(154,116,108)" transform="rotate(184 97 60)"></ellipse>
<ellipse cx="161" cy="29" rx="4" ry="6" style="fill:rgb(184,15,45)" transform="rotate(258 161 29)"></ellipse>
<ellipse cx="165" cy="71" rx="48" ry="1" style="fill:rgb(209,78,68)" transform="rotate(213 165 71)"></ellipse>
<ellipse cx="116" cy="98" rx="4" ry="2" style="fill:rgb(96,212,219)" transform="rotate(50 116 98)"></ellipse>
<ellipse cx="193" cy="56" rx="5" ry="12" style="fill:rgb(214,108,18)" transform="rotate(345 193 56)"></ellipse>
<ellipse cx="209" cy="1" rx="189" ry="8" style="fill:rgb(255,229,202)" transform="rotate(358 209 1)"></ellipse>
<ellipse cx="201" cy="7" rx="16" ry="106" style="fill:rgb(229,251,211)" transform="rotate(131 201 7)"></ellipse>
<ellipse cx="6" cy="208" rx="3" ry="120" style="fill:rgb(232,244,225)" transform="rotate(339 6 208)"></ellipse>
<ellipse cx="126" cy="221" rx="3" ry="0" style="fill:rgb(216,235,102)" transform="rotate(140 126 221)"></ellipse>
<ellipse cx="179" cy="44" rx="7" ry="3" style="fill:rgb(175,108,29)" transform="rotate(175 179 44)"></ellipse>
<ellipse cx="125" cy="224" rx="41" ry="12" style="fill:rgb(217,218,227)" transform="rotate(4 125 224)"></ellipse>
<ellipse cx="203" cy="211" rx="19" ry="197" style="fill:rgb(253,215,245)" transform="rotate(226 203 211)"></ellipse>
<ellipse cx="177" cy="65" rx="3" ry="18" style="fill:rgb(207,6,100)" transform="rotate(35 177 65)"></ellipse>
<ellipse cx="113" cy="77" rx="31" ry="21" style="fill:rgb(85,147,200)" transform="rotate(2 113 77)"></ellipse>
<ellipse cx="211" cy="96" rx="2" ry="133" style="fill:rgb(175,69,64)" transform="rotate(296 211 96)"></ellipse>
<ellipse cx="6" cy="75" rx="11" ry="23" style="fill:rgb(228,236,236)" transform="rotate(214 6 75)"></ellipse>
<ellipse cx="108" cy="220" rx="6" ry="5" style="fill:rgb(225,237,233)" transform="rotate(322 108 220)"></ellipse>
<ellipse cx="178" cy="63" rx="18" ry="42" style="fill:rgb(227,11,75)" transform="rotate(129 178 63)"></ellipse>
<ellipse cx="222" cy="73" rx="17" ry="18" style="fill:rgb(201,223,247)" transform="rotate(295 222 73)"></ellipse>
<ellipse cx="222" cy="112" rx="6" ry="9" style="fill:rgb(182,166,133)" transform="rotate(255 222 112)"></ellipse>
<ellipse cx="223" cy="116" rx="5" ry="191" style="fill:rgb(253,227,243)" transform="rotate(22 223 116)"></ellipse>
<ellipse cx="171" cy="220" rx="5" ry="0" style="fill:rgb(233,244,229)" transform="rotate(232 171 220)"></ellipse>
<ellipse cx="191" cy="92" rx="28" ry="4" style="fill:rgb(147,121,115)" transform="rotate(216 191 92)"></ellipse>
<ellipse cx="165" cy="176" rx="16" ry="27" style="fill:rgb(222,224,4)" transform="rotate(60 165 176)"></ellipse>
<ellipse cx="44" cy="223" rx="13" ry="84" style="fill:rgb(241,246,215)" transform="rotate(109 44 223)"></ellipse>
<ellipse cx="214" cy="17" rx="36" ry="10" style="fill:rgb(204,251,252)" transform="rotate(291 214 17)"></ellipse>
<ellipse cx="144" cy="43" rx="25" ry="2" style="fill:rgb(187,51,30)" transform="rotate(193 144 43)"></ellipse>
<ellipse cx="56" cy="141" rx="14" ry="8" style="fill:rgb(52,161,22)" transform="rotate(123 56 141)"></ellipse>
<ellipse cx="145" cy="115" rx="31" ry="4" style="fill:rgb(67,162,110)" transform="rotate(121 145 115)"></ellipse>
<ellipse cx="202" cy="117" rx="1" ry="32" style="fill:rgb(191,212,23)" transform="rotate(345 202 117)"></ellipse>
<ellipse cx="24" cy="159" rx="0" ry="1" style="fill:rgb(46,167,26)" transform="rotate(308 24 159)"></ellipse>
<ellipse cx="178" cy="150" rx="7" ry="30" style="fill:rgb(218,172,29)" transform="rotate(275 178 150)"></ellipse>
<ellipse cx="36" cy="125" rx="16" ry="46" style="fill:rgb(37,127,47)" transform="rotate(152 36 125)"></ellipse>
<ellipse cx="86" cy="93" rx="26" ry="19" style="fill:rgb(76,123,150)" transform="rotate(130 86 93)"></ellipse>
<ellipse cx="42" cy="35" rx="48" ry="3" style="fill:rgb(224,208,199)" transform="rotate(331 42 35)"></ellipse>
<ellipse cx="104" cy="92" rx="19" ry="31" style="fill:rgb(110,124,253)" transform="rotate(20 104 92)"></ellipse>
<ellipse cx="120" cy="58" rx="2" ry="19" style="fill:rgb(105,37,16)" transform="rotate(86 120 58)"></ellipse>
<ellipse cx="136" cy="66" rx="0" ry="11" style="fill:rgb(165,7,55)" transform="rotate(301 136 66)"></ellipse>
<ellipse cx="92" cy="186" rx="8" ry="6" style="fill:rgb(231,149,102)" transform="rotate(154 92 186)"></ellipse>
<ellipse cx="74" cy="104" rx="3" ry="74" style="fill:rgb(109,122,143)" transform="rotate(162 74 104)"></ellipse>
<ellipse cx="44" cy="98" rx="8" ry="37" style="fill:rgb(93,182,69)" transform="rotate(101 44 98)"></ellipse>
<ellipse cx="58" cy="118" rx="14" ry="1" style="fill:rgb(38,176,111)" transform="rotate(219 58 118)"></ellipse>
<ellipse cx="148" cy="85" rx="8" ry="11" style="fill:rgb(64,121,121)" transform="rotate(24 148 85)"></ellipse>
<ellipse cx="38" cy="74" rx="11" ry="6" style="fill:rgb(94,227,39)" transform="rotate(294 38 74)"></ellipse>
<ellipse cx="106" cy="109" rx="10" ry="13" style="fill:rgb(109,135,174)" transform="rotate(256 106 109)"></ellipse>
<ellipse cx="189" cy="114" rx="30" ry="17" style="fill:rgb(223,169,35)" transform="rotate(72 189 114)"></ellipse>
<ellipse cx="136" cy="149" rx="3" ry="30" style="fill:rgb(254,191,29)" transform="rotate(233 136 149)"></ellipse>
<ellipse cx="0" cy="179" rx="21" ry="14" style="fill:rgb(199,252,231)" transform="rotate(218 0 179)"></ellipse>
<ellipse cx="123" cy="98" rx="23" ry="6" style="fill:rgb(102,201,216)" transform="rotate(218 123 98)"></ellipse>
<ellipse cx="215" cy="19" rx="1" ry="30" style="fill:rgb(222,233,222)" transform="rotate(66 215 19)"></ellipse>
<ellipse cx="22" cy="73" rx="26" ry="1" style="fill:rgb(102,111,140)" transform="rotate(131 22 73)"></ellipse>
<ellipse cx="76" cy="222" rx="176" ry="9" style="fill:rgb(235,236,247)" transform="rotate(194 76 222)"></ellipse>
<ellipse cx="128" cy="110" rx="18" ry="18" style="fill:rgb(29,114,177)" transform="rotate(113 128 110)"></ellipse>
<ellipse cx="223" cy="114" rx="34" ry="7" style="fill:rgb(236,200,167)" transform="rotate(88 223 114)"></ellipse>
<ellipse cx="183" cy="18" rx="177" ry="10" style="fill:rgb(225,221,238)" transform="rotate(231 183 18)"></ellipse>
<ellipse cx="96" cy="118" rx="6" ry="24" style="fill:rgb(52,123,153)" transform="rotate(104 96 118)"></ellipse>
<ellipse cx="165" cy="89" rx="19" ry="1" style="fill:rgb(158,206,82)" transform="rotate(294 165 89)"></ellipse>
<ellipse cx="159" cy="84" rx="6" ry="1" style="fill:rgb(166,252,161)" transform="rotate(25 159 84)"></ellipse>
<ellipse cx="114" cy="176" rx="47" ry="26" style="fill:rgb(203,224,21)" transform="rotate(173 114 176)"></ellipse>
<ellipse cx="81" cy="182" rx="8" ry="11" style="fill:rgb(197,236,37)" transform="rotate(32 81 182)"></ellipse>
<ellipse cx="61" cy="179" rx="8" ry="6" style="fill:rgb(90,141,20)" transform="rotate(117 61 179)"></ellipse>
<ellipse cx="70" cy="176" rx="3" ry="1" style="fill:rgb(104,52,115)" transform="rotate(99 70 176)"></ellipse>
<ellipse cx="203" cy="9" rx="27" ry="166" style="fill:rgb(233,245,248)" transform="rotate(305 203 9)"></ellipse>
<ellipse cx="199" cy="140" rx="15" ry="12" style="fill:rgb(229,157,55)" transform="rotate(268 199 140)"></ellipse>
<ellipse cx="55" cy="120" rx="0" ry="40" style="fill:rgb(68,163,107)" transform="rotate(128 55 120)"></ellipse>
<ellipse cx="81" cy="188" rx="9" ry="9" style="fill:rgb(188,152,143)" transform="rotate(157 81 188)"></ellipse>
<ellipse cx="0" cy="133" rx="6" ry="109" style="fill:rgb(253,198,240)" transform="rotate(186 0 133)"></ellipse>
<ellipse cx="71" cy="125" rx="4" ry="90" style="fill:rgb(140,188,154)" transform="rotate(170 71 125)"></ellipse>
<ellipse cx="166" cy="78" rx="3" ry="2" style="fill:rgb(89,38,7)" transform="rotate(3 166 78)"></ellipse>
<ellipse cx="160" cy="217" rx="6" ry="149" style="fill:rgb(218,242,237)" transform="rotate(237 160 217)"></ellipse>
<ellipse cx="46" cy="84" rx="29" ry="15" style="fill:rgb(91,211,78)" transform="rotate(274 46 84)"></ellipse>
<ellipse cx="89" cy="206" rx="1" ry="2" style="fill:rgb(134,214,149)" transform="rotate(89 89 206)"></ellipse>
<ellipse cx="46" cy="182" rx="0" ry="9" style="fill:rgb(75,91,150)" transform="rotate(94 46 182)"></ellipse>
<ellipse cx="151" cy="89" rx="0" ry="1" style="fill:rgb(60,90,105)" transform="rotate(202 151 89)"></ellipse>
<ellipse cx="65" cy="155" rx="10" ry="8" style="fill:rgb(21,130,51)" transform="rotate(166 65 155)"></ellipse>
<ellipse cx="55" cy="156" rx="0" ry="38" style="fill:rgb(11,139,29)" transform="rotate(358 55 156)"></ellipse>
<ellipse cx="10" cy="138" rx="5" ry="5" style="fill:rgb(209,186,201)" transform="rotate(355 10 138)"></ellipse>
<ellipse cx="71" cy="165" rx="3" ry="42" style="fill:rgb(72,108,70)" transform="rotate(359 71 165)"></ellipse>
<ellipse cx="215" cy="5" rx="88" ry="47" style="fill:rgb(239,224,247)" transform="rotate(48 215 5)"></ellipse>
<ellipse cx="89" cy="213" rx="140" ry="1" style="fill:rgb(220,229,255)" transform="rotate(208 89 213)"></ellipse>
<ellipse cx="164" cy="81" rx="8" ry="8" style="fill:rgb(177,97,112)" transform="rotate(311 164 81)"></ellipse>
<ellipse cx="118" cy="128" rx="18" ry="7" style="fill:rgb(102,78,113)" transform="rotate(186 118 128)"></ellipse>
<ellipse cx="57" cy="165" rx="26" ry="3" style="fill:rgb(43,134,22)" transform="rotate(319 57 165)"></ellipse>
<ellipse cx="143" cy="108" rx="0" ry="3" style="fill:rgb(65,119,135)" transform="rotate(87 143 108)"></ellipse>
<ellipse cx="32" cy="18" rx="74" ry="25" style="fill:rgb(239,226,221)" transform="rotate(140 32 18)"></ellipse>
<ellipse cx="168" cy="37" rx="5" ry="33" style="fill:rgb(198,46,39)" transform="rotate(300 168 37)"></ellipse>
<ellipse cx="71" cy="194" rx="4" ry="36" style="fill:rgb(117,226,118)" transform="rotate(112 71 194)"></ellipse>
<ellipse cx="46" cy="37" rx="1" ry="4" style="fill:rgb(158,202,183)" transform="rotate(221 46 37)"></ellipse>
<ellipse cx="52" cy="139" rx="26" ry="19" style="fill:rgb(43,161,31)" transform="rotate(149 52 139)"></ellipse>
<ellipse cx="31" cy="168" rx="4" ry="4" style="fill:rgb(161,131,63)" transform="rotate(215 31 168)"></ellipse>
<ellipse cx="127" cy="32" rx="5" ry="18" style="fill:rgb(178,20,5)" transform="rotate(285 127 32)"></ellipse>
<ellipse cx="111" cy="95" rx="17" ry="34" style="fill:rgb(89,181,245)" transform="rotate(111 111 95)"></ellipse>
<ellipse cx="124" cy="170" rx="11" ry="3" style="fill:rgb(255,198,68)" transform="rotate(220 124 170)"></ellipse>
<ellipse cx="61" cy="88" rx="11" ry="5" style="fill:rgb(194,251,144)" transform="rotate(259 61 88)"></ellipse>
<ellipse cx="42" cy="52" rx="6" ry="8" style="fill:rgb(134,248,99)" transform="rotate(13 42 52)"></ellipse>
<ellipse cx="85" cy="63" rx="26" ry="6" style="fill:rgb(172,131,124)" transform="rotate(306 85 63)"></ellipse>
<ellipse cx="105" cy="163" rx="14" ry="11" style="fill:rgb(224,235,8)" transform="rotate(334 105 163)"></ellipse>
<ellipse cx="159" cy="141" rx="26" ry="16" style="fill:rgb(237,245,21)" transform="rotate(141 159 141)"></ellipse>
<ellipse cx="89" cy="166" rx="11" ry="1" style="fill:rgb(224,248,58)" transform="rotate(335 89 166)"></ellipse>
<ellipse cx="189" cy="91" rx="7" ry="26" style="fill:rgb(185,137,51)" transform="rotate(81 189 91)"></ellipse>
<ellipse cx="46" cy="196" rx="111" ry="5" style="fill:rgb(246,204,241)" transform="rotate(216 46 196)"></ellipse>
<ellipse cx="67" cy="188" rx="7" ry="3" style="fill:rgb(33,113,11)" transform="rotate(90 67 188)"></ellipse>
<ellipse cx="56" cy="165" rx="7" ry="6" style="fill:rgb(12,108,51)" transform="rotate(159 56 165)"></ellipse>
<ellipse cx="64" cy="174" rx="1" ry="2" style="fill:rgb(55,105,80)" transform="rotate(293 64 174)"></ellipse>
<ellipse cx="101" cy="178" rx="27" ry="23" style="fill:rgb(233,214,85)" transform="rotate(336 101 178)"></ellipse>
<ellipse cx="94" cy="110" rx="6" ry="16" style="fill:rgb(41,108,165)" transform="rotate(151 94 110)"></ellipse>
<ellipse cx="211" cy="186" rx="9" ry="74" style="fill:rgb(249,222,237)" transform="rotate(52 211 186)"></ellipse>
<ellipse cx="82" cy="196" rx="14" ry="3" style="fill:rgb(140,184,119)" transform="rotate(55 82 196)"></ellipse>
<ellipse cx="134" cy="103" rx="4" ry="27" style="fill:rgb(2,153,227)" transform="rotate(205 134 103)"></ellipse>
<ellipse cx="73" cy="56" rx="8" ry="8" style="fill:rgb(236,47,28)" transform="rotate(51 73 56)"></ellipse>
<ellipse cx="201" cy="92" rx="4" ry="23" style="fill:rgb(114,54,38)" transform="rotate(318 201 92)"></ellipse>
<ellipse cx="203" cy="13" rx="28" ry="120" style="fill:rgb(245,229,240)" transform="rotate(142 203 13)"></ellipse>
<ellipse cx="68" cy="182" rx="3" ry="43" style="fill:rgb(22,44,117)" transform="rotate(131 68 182)"></ellipse>
<ellipse cx="135" cy="198" rx="23" ry="10" style="fill:rgb(235,210,48)" transform="rotate(2 135 198)"></ellipse>
<ellipse cx="43" cy="51" rx="2" ry="4" style="fill:rgb(218,175,155)" transform="rotate(358 43 51)"></ellipse>
<ellipse cx="78" cy="213" rx="2" ry="99" style="fill:rgb(207,227,234)" transform="rotate(269 78 213)"></ellipse>
<ellipse cx="121" cy="49" rx="1" ry="6" style="fill:rgb(181,165,176)" transform="rotate(305 121 49)"></ellipse>
<ellipse cx="87" cy="159" rx="2" ry="1" style="fill:rgb(83,126,100)" transform="rotate(41 87 159)"></ellipse>
<ellipse cx="75" cy="132" rx="40" ry="4" style="fill:rgb(113,140,113)" transform="rotate(89 75 132)"></ellipse>
<ellipse cx="191" cy="18" rx="2" ry="163" style="fill:rgb(193,242,213)" transform="rotate(342 191 18)"></ellipse>
<ellipse cx="26" cy="114" rx="59" ry="4" style="fill:rgb(45,159,59)" transform="rotate(269 26 114)"></ellipse>
<ellipse cx="125" cy="153" rx="42" ry="15" style="fill:rgb(246,213,47)" transform="rotate(324 125 153)"></ellipse>
<ellipse cx="136" cy="132" rx="3" ry="6" style="fill:rgb(102,132,146)" transform="rotate(262 136 132)"></ellipse>
<ellipse cx="81" cy="223" rx="11" ry="119" style="fill:rgb(217,250,227)" transform="rotate(294 81 223)"></ellipse>
<ellipse cx="174" cy="77" rx="0" ry="27" style="fill:rgb(141,44,6)" transform="rotate(278 174 77)"></ellipse>
<ellipse cx="37" cy="8" rx="163" ry="11" style="fill:rgb(235,246,214)" transform="rotate(171 37 8)"></ellipse>
<ellipse cx="94" cy="126" rx="1" ry="23" style="fill:rgb(65,119,136)" transform="rotate(325 94 126)"></ellipse>
<ellipse cx="32" cy="192" rx="13" ry="42" style="fill:rgb(232,234,238)" transform="rotate(315 32 192)"></ellipse>
<ellipse cx="93" cy="63" rx="2" ry="2" style="fill:rgb(45,172,35)" transform="rotate(355 93 63)"></ellipse>
<ellipse cx="215" cy="29" rx="205" ry="1" style="fill:rgb(234,236,207)" transform="rotate(268 215 29)"></ellipse>
<ellipse cx="20" cy="4" rx="121" ry="19" style="fill:rgb(255,219,246)" transform="rotate(292 20 4)"></ellipse>
<ellipse cx="211" cy="68" rx="88" ry="2" style="fill:rgb(217,252,206)" transform="rotate(227 211 68)"></ellipse>
<ellipse cx="6" cy="10" rx="39" ry="104" style="fill:rgb(240,247,247)" transform="rotate(227 6 10)"></ellipse>
<ellipse cx="203" cy="0" rx="9" ry="68" style="fill:rgb(248,246,239)" transform="rotate(356 203 0)"></ellipse>
<ellipse cx="140" cy="122" rx="5" ry="20" style="fill:rgb(5,68,101)" transform="rotate(45 140 122)"></ellipse>
<ellipse cx="74" cy="153" rx="15" ry="7" style="fill:rgb(58,150,70)" transform="rotate(50 74 153)"></ellipse>
<ellipse cx="2" cy="192" rx="222" ry="10" style="fill:rgb(239,235,255)" transform="rotate(258 2 192)"></ellipse>
<ellipse cx="23" cy="197" rx="12" ry="100" style="fill:rgb(241,242,243)" transform="rotate(288 23 197)"></ellipse>
<ellipse cx="53" cy="164" rx="19" ry="16" style="fill:rgb(44,88,40)" transform="rotate(106 53 164)"></ellipse>
<ellipse cx="40" cy="107" rx="8" ry="36" style="fill:rgb(38,167,63)" transform="rotate(160 40 107)"></ellipse>
<ellipse cx="199" cy="154" rx="9" ry="6" style="fill:rgb(226,191,57)" transform="rotate(71 199 154)"></ellipse>
<ellipse cx="117" cy="133" rx="0" ry="31" style="fill:rgb(86,106,162)" transform="rotate(50 117 133)"></ellipse>
<ellipse cx="220" cy="82" rx="4" ry="9" style="fill:rgb(187,249,251)" transform="rotate(3 220 82)"></ellipse>
<ellipse cx="0" cy="140" rx="6" ry="85" style="fill:rgb(239,236,243)" transform="rotate(155 0 140)"></ellipse>
<ellipse cx="24" cy="114" rx="0" ry="23" style="fill:rgb(5,157,31)" transform="rotate(206 24 114)"></ellipse>
<ellipse cx="74" cy="69" rx="12" ry="4" style="fill:rgb(196,69,86)" transform="rotate(236 74 69)"></ellipse>
<ellipse cx="39" cy="145" rx="7" ry="11" style="fill:rgb(44,137,40)" transform="rotate(157 39 145)"></ellipse>
<ellipse cx="142" cy="139" rx="14" ry="0" style="fill:rgb(220,174,103)" transform="rotate(337 142 139)"></ellipse>
<ellipse cx="165" cy="93" rx="1" ry="13" style="fill:rgb(233,141,68)" transform="rotate(200 165 93)"></ellipse>
<ellipse cx="137" cy="112" rx="4" ry="24" style="fill:rgb(127,91,52)" transform="rotate(229 137 112)"></ellipse>
<ellipse cx="222" cy="135" rx="191" ry="2" style="fill:rgb(231,248,204)" transform="rotate(262 222 135)"></ellipse>
<ellipse cx="73" cy="99" rx="6" ry="3" style="fill:rgb(108,120,80)" transform="rotate(266 73 99)"></ellipse>
<ellipse cx="196" cy="221" rx="152" ry="31" style="fill:rgb(249,250,251)" transform="rotate(156 196 221)"></ellipse>
<ellipse cx="151" cy="39" rx="4" ry="30" style="fill:rgb(194,61,18)" transform="rotate(322 151 39)"></ellipse>
<ellipse cx="220" cy="1" rx="126" ry="19" style="fill:rgb(247,229,252)" transform="rotate(15 220 1)"></ellipse>
<ellipse cx="64" cy="105" rx="4" ry="1" style="fill:rgb(242,143,180)" transform="rotate(27 64 105)"></ellipse>
<ellipse cx="103" cy="1" rx="59" ry="11" style="fill:rgb(244,226,220)" transform="rotate(352 103 1)"></ellipse>
<ellipse cx="86" cy="112" rx="7" ry="3" style="fill:rgb(59,145,68)" transform="rotate(237 86 112)"></ellipse>
<ellipse cx="202" cy="99" rx="4" ry="1" style="fill:rgb(245,140,59)" transform="rotate(201 202 99)"></ellipse>
<ellipse cx="46" cy="167" rx="8" ry="0" style="fill:rgb(64,113,29)" transform="rotate(330 46 167)"></ellipse>
<ellipse cx="23" cy="74" rx="4" ry="6" style="fill:rgb(65,202,53)" transform="rotate(132 23 74)"></ellipse>
<ellipse cx="51" cy="195" rx="1" ry="75" style="fill:rgb(219,247,246)" transform="rotate(134 51 195)"></ellipse>
<ellipse cx="116" cy="60" rx="1" ry="7" style="fill:rgb(153,52,104)" transform="rotate(174 116 60)"></ellipse>
<ellipse cx="153" cy="97" rx="2" ry="10" style="fill:rgb(73,59,39)" transform="rotate(359 153 97)"></ellipse>
<ellipse cx="105" cy="106" rx="8" ry="15" style="fill:rgb(55,119,195)" transform="rotate(136 105 106)"></ellipse>
<ellipse cx="139" cy="82" rx="2" ry="4" style="fill:rgb(19,134,227)" transform="rotate(303 139 82)"></ellipse>
<ellipse cx="161" cy="92" rx="0" ry="1" style="fill:rgb(108,163,162)" transform="rotate(147 161 92)"></ellipse>
<ellipse cx="200" cy="63" rx="4" ry="3" style="fill:rgb(236,176,133)" transform="rotate(72 200 63)"></ellipse>
<ellipse cx="187" cy="7" rx="30" ry="190" style="fill:rgb(251,255,230)" transform="rotate(126 187 7)"></ellipse>
<ellipse cx="142" cy="113" rx="11" ry="0" style="fill:rgb(9,79,36)" transform="rotate(199 142 113)"></ellipse>
<ellipse cx="70" cy="38" rx="13" ry="9" style="fill:rgb(214,64,17)" transform="rotate(348 70 38)"></ellipse>
<ellipse cx="151" cy="22" rx="5" ry="2" style="fill:rgb(189,78,6)" transform="rotate(27 151 22)"></ellipse>
<ellipse cx="104" cy="43" rx="8" ry="2" style="fill:rgb(247,101,76)" transform="rotate(209 104 43)"></ellipse>
<ellipse cx="78" cy="93" rx="1" ry="11" style="fill:rgb(69,16,122)" transform="rotate(354 78 93)"></ellipse>
<ellipse cx="65" cy="114" rx="3" ry="24" style="fill:rgb(117,203,160)" transform="rotate(330 65 114)"></ellipse>
<ellipse cx="11" cy="222" rx="41" ry="27" style="fill:rgb(250,246,250)" transform="rotate(172 11 222)"></ellipse>
<ellipse cx="43" cy="68" rx="11" ry="9" style="fill:rgb(132,209,125)" transform="rotate(321 43 68)"></ellipse>
<ellipse cx="110" cy="87" rx="3" ry="22" style="fill:rgb(87,177,232)" transform="rotate(221 110 87)"></ellipse>
<ellipse cx="118" cy="131" rx="6" ry="7" style="fill:rgb(84,31,94)" transform="rotate(198 118 131)"></ellipse>
<ellipse cx="15" cy="81" rx="1" ry="2" style="fill:rgb(81,95,97)" transform="rotate(271 15 81)"></ellipse>
<ellipse cx="115" cy="190" rx="16" ry="33" style="fill:rgb(233,219,61)" transform="rotate(274 115 190)"></ellipse>
<ellipse cx="84" cy="77" rx="12" ry="10" style="fill:rgb(70,77,120)" transform="rotate(304 84 77)"></ellipse>
<ellipse cx="53" cy="176" rx="14" ry="23" style="fill:rgb(37,181,28)" transform="rotate(119 53 176)"></ellipse>
<ellipse cx="162" cy="192" rx="15" ry="4" style="fill:rgb(244,191,91)" transform="rotate(187 162 192)"></ellipse>
<ellipse cx="34" cy="64" rx="5" ry="12" style="fill:rgb(138,195,155)" transform="rotate(80 34 64)"></ellipse>
<ellipse cx="198" cy="191" rx="1" ry="196" style="fill:rgb(250,212,213)" transform="rotate(253 198 191)"></ellipse>
<ellipse cx="93" cy="121" rx="4" ry="10" style="fill:rgb(106,52,106)" transform="rotate(113 93 121)"></ellipse>
<ellipse cx="60" cy="157" rx="11" ry="17" style="fill:rgb(31,102,39)" transform="rotate(76 60 157)"></ellipse>
<ellipse cx="77" cy="105" rx="8" ry="24" style="fill:rgb(54,66,87)" transform="rotate(166 77 105)"></ellipse>
<ellipse cx="187" cy="96" rx="0" ry="36" style="fill:rgb(225,217,52)" transform="rotate(109 187 96)"></ellipse>
<ellipse cx="22" cy="138" rx="3" ry="13" style="fill:rgb(70,125,69)" transform="rotate(292 22 138)"></ellipse>
<ellipse cx="191" cy="121" rx="30" ry="5" style="fill:rgb(215,213,6)" transform="rotate(326 191 121)"></ellipse>
<ellipse cx="154" cy="144" rx="1" ry="38" style="fill:rgb(220,228,28)" transform="rotate(39 154 144)"></ellipse>
<ellipse cx="168" cy="95" rx="24" ry="3" style="fill:rgb(224,168,105)" transform="rotate(287 168 95)"></ellipse>
<ellipse cx="27" cy="74" rx="19" ry="0" style="fill:rgb(104,154,114)" transform="rotate(95 27 74)"></ellipse>
<ellipse cx="143" cy="103" rx="3" ry="3" style="fill:rgb(87,148,174)" transform="rotate(86 143 103)"></ellipse>
<ellipse cx="160" cy="86" rx="3" ry="17" style="fill:rgb(148,177,86)" transform="rotate(243 160 86)"></ellipse>
<ellipse cx="156" cy="82" rx="0" ry="12" style="fill:rgb(60,116,119)" transform="rotate(43 156 82)"></ellipse>
<ellipse cx="150" cy="41" rx="17" ry="15" style="fill:rgb(232,1,29)" transform="rotate(137 150 41)"></ellipse>
<ellipse cx="122" cy="142" rx="4" ry="5" style="fill:rgb(223,188,247)" transform="rotate(55 122 142)"></ellipse>
<ellipse cx="23" cy="141" rx="0" ry="18" style="fill:rgb(65,160,73)" transform="rotate(142 23 141)"></ellipse>
<ellipse cx="119" cy="187" rx="27" ry="12" style="fill:rgb(230,224,10)" transform="rotate(184 119 187)"></ellipse>
<ellipse cx="130" cy="178" rx="3" ry="23" style="fill:rgb(242,242,6)" transform="rotate(35 130 178)"></ellipse>
<ellipse cx="74" cy="177" rx="2" ry="2" style="fill:rgb(198,215,39)" transform="rotate(99 74 177)"></ellipse>
<ellipse cx="154" cy="64" rx="0" ry="1" style="fill:rgb(206,20,130)" transform="rotate(84 154 64)"></ellipse>
<ellipse cx="5" cy="122" rx="1" ry="7" style="fill:rgb(248,243,211)" transform="rotate(154 5 122)"></ellipse>
<ellipse cx="179" cy="79" rx="1" ry="27" style="fill:rgb(155,81,116)" transform="rotate(117 179 79)"></ellipse>
<ellipse cx="95" cy="53" rx="0" ry="28" style="fill:rgb(220,89,40)" transform="rotate(230 95 53)"></ellipse>
<ellipse cx="149" cy="27" rx="35" ry="7" style="fill:rgb(201,52,54)" transform="rotate(24 149 27)"></ellipse>
<ellipse cx="88" cy="65" rx="21" ry="6" style="fill:rgb(117,122,65)" transform="rotate(152 88 65)"></ellipse>
<ellipse cx="133" cy="105" rx="6" ry="12" style="fill:rgb(72,114,201)" transform="rotate(37 133 105)"></ellipse>
<ellipse cx="168" cy="62" rx="2" ry="6" style="fill:rgb(253,71,30)" transform="rotate(38 168 62)"></ellipse>
<ellipse cx="89" cy="202" rx="0" ry="4" style="fill:rgb(122,161,103)" transform="rotate(49 89 202)"></ellipse>
<ellipse cx="92" cy="39" rx="15" ry="17" style="fill:rgb(230,44,51)" transform="rotate(167 92 39)"></ellipse>
<ellipse cx="139" cy="131" rx="0" ry="1" style="fill:rgb(146,163,93)" transform="rotate(150 139 131)"></ellipse>
<ellipse cx="0" cy="130" rx="48" ry="2" style="fill:rgb(240,240,248)" transform="rotate(81 0 130)"></ellipse>
<ellipse cx="70" cy="199" rx="4" ry="3" style="fill:rgb(97,249,31)" transform="rotate(346 70 199)"></ellipse>
<ellipse cx="155" cy="48" rx="10" ry="54" style="fill:rgb(241,41,19)" transform="rotate(128 155 48)"></ellipse>
<ellipse cx="43" cy="102" rx="9" ry="4" style="fill:rgb(73,177,89)" transform="rotate(217 43 102)"></ellipse>
<ellipse cx="182" cy="111" rx="20" ry="6" style="fill:rgb(250,190,11)" transform="rotate(142 182 111)"></ellipse>
<ellipse cx="189" cy="135" rx="18" ry="2" style="fill:rgb(213,206,54)" transform="rotate(258 189 135)"></ellipse>
<ellipse cx="124" cy="137" rx="4" ry="2" style="fill:rgb(34,83,81)" transform="rotate(176 124 137)"></ellipse>
<ellipse cx="94" cy="89" rx="5" ry="7" style="fill:rgb(38,108,252)" transform="rotate(146 94 89)"></ellipse>
<ellipse cx="148" cy="56" rx="17" ry="3" style="fill:rgb(203,76,103)" transform="rotate(12 148 56)"></ellipse>
<ellipse cx="67" cy="168" rx="4" ry="22" style="fill:rgb(67,134,68)" transform="rotate(17 67 168)"></ellipse>
<ellipse cx="152" cy="159" rx="26" ry="38" style="fill:rgb(252,228,48)" transform="rotate(28 152 159)"></ellipse>
<ellipse cx="154" cy="90" rx="19" ry="2" style="fill:rgb(71,49,95)" transform="rotate(123 154 90)"></ellipse>
<ellipse cx="153" cy="11" rx="0" ry="52" style="fill:rgb(220,233,205)" transform="rotate(87 153 11)"></ellipse>
<ellipse cx="65" cy="171" rx="7" ry="6" style="fill:rgb(75,124,79)" transform="rotate(126 65 171)"></ellipse>
<ellipse cx="72" cy="177" rx="5" ry="0" style="fill:rgb(155,186,137)" transform="rotate(246 72 177)"></ellipse>
<ellipse cx="111" cy="48" rx="6" ry="2" style="fill:rgb(162,237,181)" transform="rotate(207 111 48)"></ellipse>
<ellipse cx="26" cy="85" rx="32" ry="10" style="fill:rgb(51,166,31)" transform="rotate(286 26 85)"></ellipse>
<ellipse cx="144" cy="107" rx="1" ry="3" style="fill:rgb(107,102,57)" transform="rotate(306 144 107)"></ellipse>
<ellipse cx="199" cy="51" rx="73" ry="3" style="fill:rgb(235,231,222)" transform="rotate(247 199 51)"></ellipse>
<ellipse cx="86" cy="85" rx="4" ry="13" style="fill:rgb(47,177,212)" transform="rotate(235 86 85)"></ellipse>
<ellipse cx="169" cy="77" rx="3" ry="40" style="fill:rgb(85,44,67)" transform="rotate(294 169 77)"></ellipse>
<ellipse cx="9" cy="143" rx="65" ry="2" style="fill:rgb(220,217,239)" transform="rotate(262 9 143)"></ellipse>
<ellipse cx="37" cy="143" rx="14" ry="33" style="fill:rgb(8,129,17)" transform="rotate(324 37 143)"></ellipse>
<ellipse cx="183" cy="165" rx="2" ry="14" style="fill:rgb(230,158,17)" transform="rotate(52 183 165)"></ellipse>
<ellipse cx="148" cy="63" rx="2" ry="2" style="fill:rgb(172,59,50)" transform="rotate(290 148 63)"></ellipse>
<ellipse cx="221" cy="43" rx="19" ry="195" style="fill:rgb(252,248,232)" transform="rotate(306 221 43)"></ellipse>
<ellipse cx="65" cy="151" rx="7" ry="24" style="fill:rgb(10,152,49)" transform="rotate(77 65 151)"></ellipse>
<ellipse cx="83" cy="192" rx="3" ry="1" style="fill:rgb(73,45,29)" transform="rotate(231 83 192)"></ellipse>
<ellipse cx="167" cy="186" rx="8" ry="7" style="fill:rgb(200,216,45)" transform="rotate(182 167 186)"></ellipse>
<ellipse cx="172" cy="83" rx="2" ry="25" style="fill:rgb(132,106,72)" transform="rotate(277 172 83)"></ellipse>
<ellipse cx="213" cy="22" rx="8" ry="14" style="fill:rgb(252,244,247)" transform="rotate(6 213 22)"></ellipse>
<ellipse cx="88" cy="19" rx="2" ry="15" style="fill:rgb(255,43,52)" transform="rotate(253 88 19)"></ellipse>
<ellipse cx="79" cy="121" rx="3" ry="17" style="fill:rgb(115,123,101)" transform="rotate(165 79 121)"></ellipse>
<ellipse cx="72" cy="68" rx="1" ry="0" style="fill:rgb(179,132,249)" transform="rotate(90 72 68)"></ellipse>
<ellipse cx="165" cy="190" rx="8" ry="3" style="fill:rgb(214,196,98)" transform="rotate(5 165 190)"></ellipse>
<ellipse cx="133" cy="121" rx="0" ry="21" style="fill:rgb(8,130,60)" transform="rotate(41 133 121)"></ellipse>
<ellipse cx="101" cy="42" rx="5" ry="5" style="fill:rgb(251,47,30)" transform="rotate(104 101 42)"></ellipse>
<ellipse cx="164" cy="93" rx="4" ry="3" style="fill:rgb(208,214,71)" transform="rotate(186 164 93)"></ellipse>
<ellipse cx="152" cy="68" rx="25" ry="6" style="fill:rgb(139,84,48)" transform="rotate(209 152 68)"></ellipse>
<ellipse cx="135" cy="123" rx="9" ry="7" style="fill:rgb(80,59,7)" transform="rotate(164 135 123)"></ellipse>
<ellipse cx="188" cy="9" rx="158" ry="1" style="fill:rgb(249,227,235)" transform="rotate(247 188 9)"></ellipse>
<ellipse cx="126" cy="146" rx="19" ry="2" style="fill:rgb(253,242,140)" transform="rotate(339 126 146)"></ellipse>
<ellipse cx="194" cy="63" rx="5" ry="14" style="fill:rgb(214,76,16)" transform="rotate(157 194 63)"></ellipse>
<ellipse cx="53" cy="180" rx="17" ry="8" style="fill:rgb(40,141,66)" transform="rotate(60 53 180)"></ellipse>
<ellipse cx="16" cy="128" rx="23" ry="1" style="fill:rgb(27,74,8)" transform="rotate(259 16 128)"></ellipse>
<ellipse cx="111" cy="91" rx="22" ry="5" style="fill:rgb(131,188,246)" transform="rotate(346 111 91)"></ellipse>
<ellipse cx="56" cy="157" rx="3" ry="24" style="fill:rgb(23,147,25)" transform="rotate(349 56 157)"></ellipse>
<ellipse cx="53" cy="222" rx="120" ry="9" style="fill:rgb(252,254,247)" transform="rotate(186 53 222)"></ellipse>
<ellipse cx="216" cy="173" rx="10" ry="7" style="fill:rgb(244,228,241)" transform="rotate(138 216 173)"></ellipse>
<ellipse cx="85" cy="34" rx="16" ry="19" style="fill:rgb(199,0,18)" transform="rotate(76 85 34)"></ellipse>
<ellipse cx="145" cy="57" rx="4" ry="5" style="fill:rgb(213,72,142)" transform="rotate(258 145 57)"></ellipse>
<ellipse cx="98" cy="125" rx="5" ry="6" style="fill:rgb(91,22,20)" transform="rotate(230 98 125)"></ellipse>
<ellipse cx="99" cy="48" rx="0" ry="3" style="fill:rgb(165,230,64)" transform="rotate(82 99 48)"></ellipse>
<ellipse cx="1" cy="56" rx="82" ry="14" style="fill:rgb(252,240,250)" transform="rotate(105 1 56)"></ellipse>
<ellipse cx="91" cy="141" rx="25" ry="3" style="fill:rgb(111,103,125)" transform="rotate(298 91 141)"></ellipse>
<ellipse cx="139" cy="44" rx="34" ry="3" style="fill:rgb(213,8,42)" transform="rotate(195 139 44)"></ellipse>
<ellipse cx="200" cy="87" rx="2" ry="9" style="fill:rgb(162,63,111)" transform="rotate(236 200 87)"></ellipse>
<ellipse cx="138" cy="139" rx="72" ry="1" style="fill:rgb(249,189,86)" transform="rotate(130 138 139)"></ellipse>
<ellipse cx="122" cy="144" rx="13" ry="2" style="fill:rgb(201,235,118)" transform="rotate(173 122 144)"></ellipse>
<ellipse cx="29" cy="119" rx="2" ry="7" style="fill:rgb(22,157,58)" transform="rotate(357 29 119)"></ellipse>
<ellipse cx="173" cy="97" rx="10" ry="7" style="fill:rgb(253,191,53)" transform="rotate(249 173 97)"></ellipse>
<ellipse cx="177" cy="176" rx="8" ry="5" style="fill:rgb(246,232,47)" transform="rotate(196 177 176)"></ellipse>
<ellipse cx="169" cy="185" rx="9" ry="0" style="fill:rgb(228,201,104)" transform="rotate(216 169 185)"></ellipse>
<ellipse cx="124" cy="125" rx="20" ry="3" style="fill:rgb(112,66,103)" transform="rotate(309 124 125)"></ellipse>
<ellipse cx="124" cy="7" rx="11" ry="13" style="fill:rgb(225,249,194)" transform="rotate(94 124 7)"></ellipse>
<ellipse cx="6" cy="0" rx="118" ry="22" style="fill:rgb(253,247,242)" transform="rotate(286 6 0)"></ellipse>
<ellipse cx="86" cy="196" rx="6" ry="1" style="fill:rgb(132,182,84)" transform="rotate(239 86 196)"></ellipse>
<ellipse cx="90" cy="138" rx="11" ry="2" style="fill:rgb(148,123,132)" transform="rotate(271 90 138)"></ellipse>
<ellipse cx="32" cy="68" rx="9" ry="5" style="fill:rgb(41,184,43)" transform="rotate(107 32 68)"></ellipse>
<ellipse cx="37" cy="101" rx="20" ry="8" style="fill:rgb(61,168,53)" transform="rotate(213 37 101)"></ellipse>
<ellipse cx="144" cy="41" rx="2" ry="7" style="fill:rgb(204,40,17)" transform="rotate(103 144 41)"></ellipse>
<ellipse cx="69" cy="32" rx="1" ry="1" style="fill:rgb(163,114,19)" transform="rotate(123 69 32)"></ellipse>
<ellipse cx="60" cy="194" rx="7" ry="4" style="fill:rgb(32,183,90)" transform="rotate(191 60 194)"></ellipse>
<ellipse cx="161" cy="112" rx="29" ry="5" style="fill:rgb(237,193,96)" transform="rotate(107 161 112)"></ellipse>
<ellipse cx="64" cy="110" rx="41" ry="2" style="fill:rgb(92,210,162)" transform="rotate(232 64 110)"></ellipse>
<ellipse cx="93" cy="63" rx="14" ry="0" style="fill:rgb(73,97,73)" transform="rotate(338 93 63)"></ellipse>
<ellipse cx="190" cy="202" rx="190" ry="12" style="fill:rgb(229,249,250)" transform="rotate(135 190 202)"></ellipse>
<ellipse cx="142" cy="86" rx="5" ry="12" style="fill:rgb(62,141,204)" transform="rotate(172 142 86)"></ellipse>
<ellipse cx="74" cy="193" rx="3" ry="13" style="fill:rgb(26,132,101)" transform="rotate(334 74 193)"></ellipse>
<ellipse cx="4" cy="16" rx="1" ry="80" style="fill:rgb(242,239,248)" transform="rotate(262 4 16)"></ellipse>
<ellipse cx="89" cy="57" rx="0" ry="21" style="fill:rgb(156,84,125)" transform="rotate(51 89 57)"></ellipse>
<ellipse cx="11" cy="108" rx="3" ry="2" style="fill:rgb(140,211,18)" transform="rotate(293 11 108)"></ellipse>
<ellipse cx="146" cy="63" rx="4" ry="1" style="fill:rgb(176,177,110)" transform="rotate(64 146 63)"></ellipse>
<ellipse cx="169" cy="220" rx="31" ry="1" style="fill:rgb(251,230,253)" transform="rotate(165 169 220)"></ellipse>
<ellipse cx="105" cy="41" rx="1" ry="1" style="fill:rgb(172,13,9)" transform="rotate(109 105 41)"></ellipse>
<ellipse cx="194" cy="86" rx="14" ry="3" style="fill:rgb(41,81,36)" transform="rotate(356 194 86)"></ellipse>
<ellipse cx="186" cy="115" rx="24" ry="14" style="fill:rgb(247,197,35)" transform="rotate(94 186 115)"></ellipse>
<ellipse cx="151" cy="192" rx="13" ry="11" style="fill:rgb(225,191,72)" transform="rotate(184 151 192)"></ellipse>
<ellipse cx="181" cy="128" rx="4" ry="30" style="fill:rgb(252,178,22)" transform="rotate(77 181 128)"></ellipse>
<ellipse cx="118" cy="130" rx="8" ry="1" style="fill:rgb(57,46,3)" transform="rotate(213 118 130)"></ellipse>
<ellipse cx="203" cy="82" rx="0" ry="6" style="fill:rgb(187,188,108)" transform="rotate(73 203 82)"></ellipse>
<ellipse cx="127" cy="66" rx="4" ry="6" style="fill:rgb(11,116,93)" transform="rotate(284 127 66)"></ellipse>
<ellipse cx="143" cy="169" rx="8" ry="40" style="fill:rgb(241,190,7)" transform="rotate(55 143 169)"></ellipse>
<ellipse cx="80" cy="194" rx="2" ry="13" style="fill:rgb(84,61,64)" transform="rotate(295 80 194)"></ellipse>
<ellipse cx="22" cy="176" rx="163" ry="2" style="fill:rgb(210,246,224)" transform="rotate(252 22 176)"></ellipse>
<ellipse cx="139" cy="110" rx="15" ry="4" style="fill:rgb(30,66,110)" transform="rotate(293 139 110)"></ellipse>
<ellipse cx="93" cy="22" rx="40" ry="0" style="fill:rgb(221,122,107)" transform="rotate(351 93 22)"></ellipse>
<ellipse cx="151" cy="101" rx="10" ry="4" style="fill:rgb(31,110,56)" transform="rotate(88 151 101)"></ellipse>
<ellipse cx="71" cy="116" rx="0" ry="8" style="fill:rgb(104,208,179)" transform="rotate(317 71 116)"></ellipse>
<ellipse cx="131" cy="3" rx="204" ry="6" style="fill:rgb(250,232,252)" transform="rotate(188 131 3)"></ellipse>
<ellipse cx="134" cy="53" rx="6" ry="2" style="fill:rgb(134,121,123)" transform="rotate(209 134 53)"></ellipse>
<ellipse cx="132" cy="62" rx="0" ry="4" style="fill:rgb(96,62,57)" transform="rotate(162 132 62)"></ellipse>
<ellipse cx="94" cy="124" rx="4" ry="0" style="fill:rgb(50,136,87)" transform="rotate(124 94 124)"></ellipse>
<ellipse cx="103" cy="57" rx="2" ry="3" style="fill:rgb(89,77,80)" transform="rotate(286 103 57)"></ellipse>
<ellipse cx="205" cy="73" rx="2" ry="1" style="fill:rgb(179,93,37)" transform="rotate(171 205 73)"></ellipse>
<ellipse cx="112" cy="36" rx="2" ry="8" style="fill:rgb(194,9,31)" transform="rotate(144 112 36)"></ellipse>
<ellipse cx="88" cy="54" rx="0" ry="3" style="fill:rgb(225,197,199)" transform="rotate(162 88 54)"></ellipse>
<ellipse cx="221" cy="12" rx="24" ry="38" style="fill:rgb(246,253,236)" transform="rotate(226 221 12)"></ellipse>
<ellipse cx="17" cy="117" rx="0" ry="15" style="fill:rgb(35,147,23)" transform="rotate(18 17 117)"></ellipse>
<ellipse cx="31" cy="137" rx="15" ry="7" style="fill:rgb(25,156,31)" transform="rotate(336 31 137)"></ellipse>
<ellipse cx="81" cy="19" rx="0" ry="1" style="fill:rgb(129,40,39)" transform="rotate(350 81 19)"></ellipse>
<ellipse cx="27" cy="110" rx="5" ry="15" style="fill:rgb(33,160,56)" transform="rotate(223 27 110)"></ellipse>
<ellipse cx="201" cy="200" rx="15" ry="41" style="fill:rgb(254,238,242)" transform="rotate(54 201 200)"></ellipse>
<ellipse cx="37" cy="103" rx="21" ry="2" style="fill:rgb(44,178,49)" transform="rotate(45 37 103)"></ellipse>
<ellipse cx="54" cy="38" rx="3" ry="7" style="fill:rgb(118,136,104)" transform="rotate(14 54 38)"></ellipse>
<ellipse cx="33" cy="65" rx="6" ry="1" style="fill:rgb(89,201,71)" transform="rotate(238 33 65)"></ellipse>
</svg>