<svg><ellipse cx="83" cy="95" rx="166" ry="173" style="fill:rgb(192,141,85)" transform="rotate(271 83 95)"></ellipse>
<ellipse cx="56" cy="150" rx="175" ry="106" style="fill:rgb(148,166,119)" transform="rotate(68 56 150)"></ellipse>
<ellipse cx="186" cy="143" rx="142" ry="30" style="fill:rgb(178,204,17)" transform="rotate(342 186 143)"></ellipse>
<ellipse cx="189" cy="180" rx="77" ry="94" style="fill:rgb(232,254,113)" transform="rotate(78 189 180)"></ellipse>
<ellipse cx="126" cy="38" rx="77" ry="15" style="fill:rgb(252,120,32)" transform="rotate(192 126 38)"></ellipse>
<ellipse cx="184" cy="0" rx="13" ry="109" style="fill:rgb(221,220,204)" transform="rotate(116 184 0)"></ellipse>
<ellipse cx="25" cy="203" rx="153" ry="20" style="fill:rgb(139,169,204)" transform="rotate(238 25 203)"></ellipse>
<ellipse cx="179" cy="20" rx="5" ry="208" style="fill:rgb(147,133,218)" transform="rotate(129 179 20)"></ellipse>
<ellipse cx="31" cy="204" rx="128" ry="13" style="fill:rgb(253,250,213)" transform="rotate(201 31 204)"></ellipse>
<ellipse cx="43" cy="16" rx="7" ry="180" style="fill:rgb(241,110,211)" transform="rotate(234 43 16)"></ellipse>
<ellipse cx="46" cy="60" rx="30" ry="38" style="fill:rgb(129,112,128)" transform="rotate(210 46 60)"></ellipse>
<ellipse cx="2" cy="94" rx="140" ry="51" style="fill:rgb(80,167,162)" transform="rotate(357 2 94)"></ellipse>
<ellipse cx="1" cy="26" rx="45" ry="41" style="fill:rgb(249,252,220)" transform="rotate(311 1 26)"></ellipse>
<ellipse cx="180" cy="141" rx="68" ry="31" style="fill:rgb(247,168,47)" transform="rotate(165 180 141)"></ellipse>
<ellipse cx="89" cy="80" rx="77" ry="39" style="fill:rgb(123,156,142)" transform="rotate(233 89 80)"></ellipse>
<ellipse cx="34" cy="57" rx="8" ry="35" style="fill:rgb(23,117,76)" transform="rotate(234 34 57)"></ellipse>
<ellipse cx="28" cy="101" rx="18" ry="39" style="fill:rgb(56,162,42)" transform="rotate(346 28 101)"></ellipse>
<ellipse cx="113" cy="178" rx="31" ry="45" style="fill:rgb(232,170,63)" transform="rotate(281 113 178)"></ellipse>
<ellipse cx="182" cy="73" rx="51" ry="18" style="fill:rgb(186,96,20)" transform="rotate(194 182 73)"></ellipse>
<ellipse cx="68" cy="121" rx="2" ry="19" style="fill:rgb(172,220,164)" transform="rotate(156 68 121)"></ellipse>
<ellipse cx="145" cy="28" rx="118" ry="13" style="fill:rgb(204,80,26)" transform="rotate(44 145 28)"></ellipse>
<ellipse cx="209" cy="194" rx="78" ry="21" style="fill:rgb(243,149,217)" transform="rotate(294 209 194)"></ellipse>
<ellipse cx="83" cy="13" rx="91" ry="17" style="fill:rgb(205,31,92)" transform="rotate(295 83 13)"></ellipse>
<ellipse cx="113" cy="113" rx="9" ry="24" style="fill:rgb(45,28,101)" transform="rotate(73 113 113)"></ellipse>
<ellipse cx="87" cy="207" rx="3" ry="171" style="fill:rgb(229,244,134)" transform="rotate(112 87 207)"></ellipse>
<ellipse cx="194" cy="211" rx="18" ry="125" style="fill:rgb(179,190,245)" transform="rotate(49 194 211)"></ellipse>
<ellipse cx="52" cy="76" rx="37" ry="37" style="fill:rgb(76,160,71)" transform="rotate(85 52 76)"></ellipse>
<ellipse cx="65" cy="97" rx="40" ry="6" style="fill:rgb(157,212,253)" transform="rotate(285 65 97)"></ellipse>
<ellipse cx="186" cy="0" rx="8" ry="83" style="fill:rgb(220,224,212)" transform="rotate(332 186 0)"></ellipse>
<ellipse cx="77" cy="20" rx="63" ry="16" style="fill:rgb(170,79,41)" transform="rotate(267 77 20)"></ellipse>
<ellipse cx="110" cy="79" rx="16" ry="32" style="fill:rgb(117,151,188)" transform="rotate(348 110 79)"></ellipse>
<ellipse cx="207" cy="72" rx="178" ry="6" style="fill:rgb(241,159,126)" transform="rotate(239 207 72)"></ellipse>
<ellipse cx="64" cy="155" rx="10" ry="27" style="fill:rgb(121,226,49)" transform="rotate(231 64 155)"></ellipse>
<ellipse cx="206" cy="199" rx="7" ry="186" style="fill:rgb(186,222,242)" transform="rotate(69 206 199)"></ellipse>
<ellipse cx="43" cy="77" rx="25" ry="46" style="fill:rgb(105,160,49)" transform="rotate(171 43 77)"></ellipse>
<ellipse cx="1" cy="166" rx="124" ry="28" style="fill:rgb(210,213,200)" transform="rotate(242 1 166)"></ellipse>
<ellipse cx="199" cy="13" rx="113" ry="28" style="fill:rgb(194,248,191)" transform="rotate(238 199 13)"></ellipse>
<ellipse cx="185" cy="181" rx="0" ry="58" style="fill:rgb(190,208,244)" transform="rotate(229 185 181)"></ellipse>
<ellipse cx="204" cy="12" rx="98" ry="28" style="fill:rgb(245,202,245)" transform="rotate(44 204 12)"></ellipse>
<ellipse cx="197" cy="118" rx="6" ry="15" style="fill:rgb(232,196,8)" transform="rotate(259 197 118)"></ellipse>
<ellipse cx="122" cy="119" rx="15" ry="27" style="fill:rgb(3,36,150)" transform="rotate(71 122 119)"></ellipse>
<ellipse cx="28" cy="109" rx="46" ry="30" style="fill:rgb(98,188,92)" transform="rotate(216 28 109)"></ellipse>
<ellipse cx="104" cy="105" rx="43" ry="42" style="fill:rgb(76,87,153)" transform="rotate(321 104 105)"></ellipse>
<ellipse cx="82" cy="137" rx="37" ry="0" style="fill:rgb(121,136,96)" transform="rotate(220 82 137)"></ellipse>
<ellipse cx="168" cy="61" rx="136" ry="24" style="fill:rgb(167,43,75)" transform="rotate(29 168 61)"></ellipse>
<ellipse cx="77" cy="109" rx="15" ry="15" style="fill:rgb(102,106,166)" transform="rotate(252 77 109)"></ellipse>
<ellipse cx="95" cy="47" rx="27" ry="7" style="fill:rgb(229,0,34)" transform="rotate(318 95 47)"></ellipse>
<ellipse cx="210" cy="188" rx="173" ry="30" style="fill:rgb(196,212,224)" transform="rotate(122 210 188)"></ellipse>
<ellipse cx="59" cy="9" rx="4" ry="35" style="fill:rgb(125,216,253)" transform="rotate(223 59 9)"></ellipse>
<ellipse cx="79" cy="32" rx="0" ry="21" style="fill:rgb(193,46,69)" transform="rotate(276 79 32)"></ellipse>
<ellipse cx="77" cy="75" rx="15" ry="6" style="fill:rgb(208,167,130)" transform="rotate(240 77 75)"></ellipse>
<ellipse cx="64" cy="82" rx="25" ry="2" style="fill:rgb(116,115,45)" transform="rotate(118 64 82)"></ellipse>
<ellipse cx="208" cy="72" rx="5" ry="24" style="fill:rgb(186,152,71)" transform="rotate(4 208 72)"></ellipse>
<ellipse cx="32" cy="150" rx="64" ry="16" style="fill:rgb(77,148,102)" transform="rotate(48 32 150)"></ellipse>
<ellipse cx="3" cy="127" rx="8" ry="23" style="fill:rgb(93,208,227)" transform="rotate(347 3 127)"></ellipse>
<ellipse cx="64" cy="144" rx="12" ry="23" style="fill:rgb(98,185,29)" transform="rotate(182 64 144)"></ellipse>
<ellipse cx="17" cy="181" rx="14" ry="143" style="fill:rgb(207,211,251)" transform="rotate(322 17 181)"></ellipse>
<ellipse cx="125" cy="141" rx="3" ry="44" style="fill:rgb(110,224,232)" transform="rotate(239 125 141)"></ellipse>
<ellipse cx="111" cy="96" rx="14" ry="17" style="fill:rgb(31,128,154)" transform="rotate(217 111 96)"></ellipse>
<ellipse cx="101" cy="191" rx="35" ry="33" style="fill:rgb(224,185,70)" transform="rotate(252 101 191)"></ellipse>
<ellipse cx="144" cy="121" rx="8" ry="1" style="fill:rgb(225,249,176)" transform="rotate(332 144 121)"></ellipse>
<ellipse cx="59" cy="99" rx="45" ry="6" style="fill:rgb(170,244,162)" transform="rotate(61 59 99)"></ellipse>
<ellipse cx="125" cy="16" rx="4" ry="51" style="fill:rgb(208,16,16)" transform="rotate(108 125 16)"></ellipse>
<ellipse cx="20" cy="102" rx="7" ry="118" style="fill:rgb(84,204,132)" transform="rotate(72 20 102)"></ellipse>
<ellipse cx="64" cy="4" rx="10" ry="30" style="fill:rgb(254,206,197)" transform="rotate(236 64 4)"></ellipse>
<ellipse cx="99" cy="209" rx="19" ry="14" style="fill:rgb(226,107,74)" transform="rotate(95 99 209)"></ellipse>
<ellipse cx="80" cy="76" rx="8" ry="3" style="fill:rgb(109,154,215)" transform="rotate(250 80 76)"></ellipse>
<ellipse cx="41" cy="116" rx="29" ry="10" style="fill:rgb(110,167,26)" transform="rotate(47 41 116)"></ellipse>
<ellipse cx="136" cy="51" rx="14" ry="8" style="fill:rgb(170,50,73)" transform="rotate(73 136 51)"></ellipse>
<ellipse cx="56" cy="84" rx="22" ry="17" style="fill:rgb(99,166,82)" transform="rotate(46 56 84)"></ellipse>
<ellipse cx="48" cy="59" rx="9" ry="27" style="fill:rgb(14,168,120)" transform="rotate(4 48 59)"></ellipse>
<ellipse cx="105" cy="64" rx="1" ry="56" style="fill:rgb(193,224,187)" transform="rotate(269 105 64)"></ellipse>
<ellipse cx="89" cy="86" rx="8" ry="4" style="fill:rgb(6,132,244)" transform="rotate(114 89 86)"></ellipse>
<ellipse cx="7" cy="97" rx="2" ry="4" style="fill:rgb(41,132,57)" transform="rotate(345 7 97)"></ellipse>
<ellipse cx="113" cy="212" rx="19" ry="30" style="fill:rgb(234,129,53)" transform="rotate(355 113 212)"></ellipse>
<ellipse cx="52" cy="176" rx="11" ry="26" style="fill:rgb(142,205,11)" transform="rotate(112 52 176)"></ellipse>
<ellipse cx="119" cy="71" rx="30" ry="6" style="fill:rgb(232,208,227)" transform="rotate(24 119 71)"></ellipse>
<ellipse cx="150" cy="45" rx="45" ry="19" style="fill:rgb(224,27,29)" transform="rotate(182 150 45)"></ellipse>
<ellipse cx="97" cy="78" rx="31" ry="13" style="fill:rgb(39,218,215)" transform="rotate(170 97 78)"></ellipse>
<ellipse cx="15" cy="114" rx="30" ry="5" style="fill:rgb(76,121,8)" transform="rotate(96 15 114)"></ellipse>
<ellipse cx="151" cy="44" rx="8" ry="17" style="fill:rgb(150,48,44)" transform="rotate(58 151 44)"></ellipse>
<ellipse cx="87" cy="169" rx="31" ry="9" style="fill:rgb(192,180,29)" transform="rotate(299 87 169)"></ellipse>
<ellipse cx="86" cy="16" rx="15" ry="38" style="fill:rgb(156,97,52)" transform="rotate(63 86 16)"></ellipse>
<ellipse cx="159" cy="115" rx="15" ry="15" style="fill:rgb(242,240,68)" transform="rotate(11 159 115)"></ellipse>
<ellipse cx="82" cy="10" rx="2" ry="27" style="fill:rgb(168,93,34)" transform="rotate(55 82 10)"></ellipse>
<ellipse cx="38" cy="90" rx="25" ry="26" style="fill:rgb(30,157,104)" transform="rotate(79 38 90)"></ellipse>
<ellipse cx="58" cy="30" rx="5" ry="15" style="fill:rgb(110,180,25)" transform="rotate(283 58 30)"></ellipse>
<ellipse cx="89" cy="47" rx="2" ry="18" style="fill:rgb(231,40,22)" transform="rotate(217 89 47)"></ellipse>
<ellipse cx="195" cy="13" rx="22" ry="128" style="fill:rgb(246,219,189)" transform="rotate(144 195 13)"></ellipse>
<ellipse cx="80" cy="22" rx="21" ry="10" style="fill:rgb(150,44,36)" transform="rotate(50 80 22)"></ellipse>
<ellipse cx="64" cy="14" rx="6" ry="2" style="fill:rgb(185,99,108)" transform="rotate(209 64 14)"></ellipse>
<ellipse cx="210" cy="139" rx="87" ry="2" style="fill:rgb(223,214,189)" transform="rotate(101 210 139)"></ellipse>
<ellipse cx="123" cy="7" rx="9" ry="62" style="fill:rgb(176,52,36)" transform="rotate(33 123 7)"></ellipse>
<ellipse cx="179" cy="189" rx="81" ry="6" style="fill:rgb(214,211,239)" transform="rotate(323 179 189)"></ellipse>
<ellipse cx="193" cy="163" rx="2" ry="21" style="fill:rgb(218,246,155)" transform="rotate(229 193 163)"></ellipse>
<ellipse cx="102" cy="92" rx="11" ry="3" style="fill:rgb(20,142,147)" transform="rotate(232 102 92)"></ellipse>
<ellipse cx="178" cy="127" rx="13" ry="33" style="fill:rgb(237,222,12)" transform="rotate(101 178 127)"></ellipse>
<ellipse cx="187" cy="212" rx="27" ry="28" style="fill:rgb(201,229,215)" transform="rotate(58 187 212)"></ellipse>
<ellipse cx="153" cy="6" rx="2" ry="44" style="fill:rgb(254,171,151)" transform="rotate(100 153 6)"></ellipse>
<ellipse cx="121" cy="78" rx="5" ry="15" style="fill:rgb(10,37,236)" transform="rotate(310 121 78)"></ellipse>
<ellipse cx="170" cy="206" rx="19" ry="173" style="fill:rgb(204,233,229)" transform="rotate(240 170 206)"></ellipse>
<ellipse cx="191" cy="70" rx="11" ry="17" style="fill:rgb(150,5,54)" transform="rotate(135 191 70)"></ellipse>
<ellipse cx="31" cy="157" rx="11" ry="4" style="fill:rgb(105,217,68)" transform="rotate(235 31 157)"></ellipse>
<ellipse cx="79" cy="72" rx="11" ry="11" style="fill:rgb(197,156,110)" transform="rotate(211 79 72)"></ellipse>
<ellipse cx="116" cy="73" rx="11" ry="2" style="fill:rgb(36,178,169)" transform="rotate(249 116 73)"></ellipse>
<ellipse cx="148" cy="127" rx="1" ry="7" style="fill:rgb(186,245,207)" transform="rotate(16 148 127)"></ellipse>
<ellipse cx="112" cy="91" rx="15" ry="14" style="fill:rgb(10,63,222)" transform="rotate(263 112 91)"></ellipse>
<ellipse cx="142" cy="175" rx="65" ry="15" style="fill:rgb(241,208,36)" transform="rotate(125 142 175)"></ellipse>
<ellipse cx="71" cy="84" rx="17" ry="10" style="fill:rgb(151,247,225)" transform="rotate(162 71 84)"></ellipse>
<ellipse cx="105" cy="103" rx="16" ry="12" style="fill:rgb(1,81,163)" transform="rotate(18 105 103)"></ellipse>
<ellipse cx="158" cy="56" rx="19" ry="15" style="fill:rgb(204,57,31)" transform="rotate(48 158 56)"></ellipse>
<ellipse cx="39" cy="59" rx="18" ry="19" style="fill:rgb(32,219,97)" transform="rotate(327 39 59)"></ellipse>
<ellipse cx="167" cy="96" rx="72" ry="6" style="fill:rgb(226,207,50)" transform="rotate(215 167 96)"></ellipse>
<ellipse cx="67" cy="166" rx="6" ry="9" style="fill:rgb(136,231,65)" transform="rotate(121 67 166)"></ellipse>
<ellipse cx="170" cy="49" rx="10" ry="8" style="fill:rgb(154,67,32)" transform="rotate(18 170 49)"></ellipse>
<ellipse cx="38" cy="71" rx="27" ry="25" style="fill:rgb(81,119,101)" transform="rotate(254 38 71)"></ellipse>
<ellipse cx="91" cy="4" rx="21" ry="54" style="fill:rgb(190,29,32)" transform="rotate(349 91 4)"></ellipse>
<ellipse cx="33" cy="99" rx="11" ry="48" style="fill:rgb(45,197,92)" transform="rotate(211 33 99)"></ellipse>
<ellipse cx="70" cy="42" rx="27" ry="1" style="fill:rgb(241,58,71)" transform="rotate(88 70 42)"></ellipse>
<ellipse cx="86" cy="9" rx="16" ry="41" style="fill:rgb(231,78,24)" transform="rotate(2 86 9)"></ellipse>
<ellipse cx="165" cy="15" rx="140" ry="2" style="fill:rgb(235,195,238)" transform="rotate(214 165 15)"></ellipse>
<ellipse cx="0" cy="16" rx="21" ry="23" style="fill:rgb(241,248,235)" transform="rotate(98 0 16)"></ellipse>
<ellipse cx="47" cy="106" rx="17" ry="37" style="fill:rgb(39,159,77)" transform="rotate(190 47 106)"></ellipse>
<ellipse cx="73" cy="211" rx="0" ry="73" style="fill:rgb(225,227,215)" transform="rotate(94 73 211)"></ellipse>
<ellipse cx="109" cy="19" rx="19" ry="30" style="fill:rgb(203,51,34)" transform="rotate(127 109 19)"></ellipse>
<ellipse cx="23" cy="88" rx="19" ry="14" style="fill:rgb(84,133,67)" transform="rotate(259 23 88)"></ellipse>
<ellipse cx="93" cy="201" rx="41" ry="7" style="fill:rgb(215,83,69)" transform="rotate(21 93 201)"></ellipse>
<ellipse cx="127" cy="96" rx="4" ry="0" style="fill:rgb(56,53,160)" transform="rotate(341 127 96)"></ellipse>
<ellipse cx="139" cy="186" rx="143" ry="3" style="fill:rgb(228,197,23)" transform="rotate(138 139 186)"></ellipse>
<ellipse cx="77" cy="163" rx="2" ry="1" style="fill:rgb(106,134,156)" transform="rotate(51 77 163)"></ellipse>
<ellipse cx="94" cy="177" rx="6" ry="13" style="fill:rgb(239,165,43)" transform="rotate(268 94 177)"></ellipse>
<ellipse cx="181" cy="4" rx="12" ry="126" style="fill:rgb(248,206,205)" transform="rotate(326 181 4)"></ellipse>
<ellipse cx="42" cy="97" rx="9" ry="69" style="fill:rgb(14,142,43)" transform="rotate(189 42 97)"></ellipse>
<ellipse cx="48" cy="21" rx="1" ry="160" style="fill:rgb(202,199,106)" transform="rotate(235 48 21)"></ellipse>
<ellipse cx="138" cy="29" rx="9" ry="20" style="fill:rgb(184,20,26)" transform="rotate(34 138 29)"></ellipse>
<ellipse cx="63" cy="90" rx="4" ry="16" style="fill:rgb(211,189,91)" transform="rotate(13 63 90)"></ellipse>
<ellipse cx="144" cy="133" rx="2" ry="19" style="fill:rgb(216,224,131)" transform="rotate(55 144 133)"></ellipse>
</svg>