<svg><ellipse cx="111" cy="17" rx="211" ry="214" style="fill:rgb(180,171,236)" transform="rotate(81 111 17)"></ellipse>
<ellipse cx="119" cy="84" rx="175" ry="183" style="fill:rgb(175,182,210)" transform="rotate(179 119 84)"></ellipse>
<ellipse cx="92" cy="38" rx="178" ry="56" style="fill:rgb(144,177,220)" transform="rotate(11 92 38)"></ellipse>
<ellipse cx="87" cy="205" rx="78" ry="18" style="fill:rgb(101,130,236)" transform="rotate(357 87 205)"></ellipse>
<ellipse cx="140" cy="206" rx="88" ry="41" style="fill:rgb(117,153,202)" transform="rotate(353 140 206)"></ellipse>
<ellipse cx="130" cy="71" rx="37" ry="101" style="fill:rgb(207,188,229)" transform="rotate(245 130 71)"></ellipse>
<ellipse cx="166" cy="7" rx="219" ry="27" style="fill:rgb(163,121,201)" transform="rotate(247 166 7)"></ellipse>
<ellipse cx="184" cy="102" rx="31" ry="26" style="fill:rgb(240,231,254)" transform="rotate(193 184 102)"></ellipse>
<ellipse cx="31" cy="82" rx="186" ry="11" style="fill:rgb(122,162,228)" transform="rotate(282 31 82)"></ellipse>
<ellipse cx="185" cy="42" rx="34" ry="62" style="fill:rgb(99,107,218)" transform="rotate(106 185 42)"></ellipse>
<ellipse cx="90" cy="145" rx="56" ry="3" style="fill:rgb(178,225,230)" transform="rotate(332 90 145)"></ellipse>
<ellipse cx="41" cy="35" rx="208" ry="7" style="fill:rgb(125,144,195)" transform="rotate(338 41 35)"></ellipse>
<ellipse cx="134" cy="108" rx="61" ry="72" style="fill:rgb(182,235,231)" transform="rotate(128 134 108)"></ellipse>
<ellipse cx="4" cy="163" rx="22" ry="59" style="fill:rgb(105,104,241)" transform="rotate(310 4 163)"></ellipse>
<ellipse cx="84" cy="108" rx="25" ry="27" style="fill:rgb(193,210,238)" transform="rotate(135 84 108)"></ellipse>
<ellipse cx="166" cy="188" rx="5" ry="73" style="fill:rgb(113,114,205)" transform="rotate(60 166 188)"></ellipse>
<ellipse cx="123" cy="34" rx="24" ry="37" style="fill:rgb(102,133,239)" transform="rotate(154 123 34)"></ellipse>
<ellipse cx="55" cy="3" rx="34" ry="69" style="fill:rgb(108,158,237)" transform="rotate(19 55 3)"></ellipse>
<ellipse cx="151" cy="112" rx="67" ry="50" style="fill:rgb(221,207,209)" transform="rotate(178 151 112)"></ellipse>
<ellipse cx="183" cy="43" rx="89" ry="22" style="fill:rgb(93,152,229)" transform="rotate(3 183 43)"></ellipse>
<ellipse cx="110" cy="77" rx="0" ry="44" style="fill:rgb(255,226,218)" transform="rotate(68 110 77)"></ellipse>
<ellipse cx="159" cy="149" rx="17" ry="34" style="fill:rgb(244,255,229)" transform="rotate(88 159 149)"></ellipse>
<ellipse cx="190" cy="13" rx="5" ry="158" style="fill:rgb(82,183,186)" transform="rotate(169 190 13)"></ellipse>
<ellipse cx="79" cy="132" rx="5" ry="41" style="fill:rgb(225,189,249)" transform="rotate(8 79 132)"></ellipse>
<ellipse cx="195" cy="44" rx="29" ry="2" style="fill:rgb(102,163,220)" transform="rotate(43 195 44)"></ellipse>
<ellipse cx="203" cy="125" rx="79" ry="6" style="fill:rgb(157,196,223)" transform="rotate(251 203 125)"></ellipse>
<ellipse cx="8" cy="180" rx="32" ry="81" style="fill:rgb(117,155,230)" transform="rotate(129 8 180)"></ellipse>
<ellipse cx="187" cy="77" rx="11" ry="215" style="fill:rgb(111,129,243)" transform="rotate(148 187 77)"></ellipse>
<ellipse cx="127" cy="25" rx="8" ry="53" style="fill:rgb(123,129,238)" transform="rotate(106 127 25)"></ellipse>
<ellipse cx="59" cy="113" rx="26" ry="68" style="fill:rgb(233,249,232)" transform="rotate(15 59 113)"></ellipse>
<ellipse cx="162" cy="200" rx="13" ry="198" style="fill:rgb(115,164,232)" transform="rotate(231 162 200)"></ellipse>
<ellipse cx="71" cy="199" rx="26" ry="25" style="fill:rgb(120,149,212)" transform="rotate(270 71 199)"></ellipse>
<ellipse cx="16" cy="211" rx="44" ry="19" style="fill:rgb(126,173,223)" transform="rotate(309 16 211)"></ellipse>
<ellipse cx="223" cy="84" rx="14" ry="18" style="fill:rgb(97,104,187)" transform="rotate(302 223 84)"></ellipse>
<ellipse cx="70" cy="13" rx="106" ry="49" style="fill:rgb(106,141,211)" transform="rotate(165 70 13)"></ellipse>
<ellipse cx="5" cy="224" rx="9" ry="68" style="fill:rgb(216,203,168)" transform="rotate(338 5 224)"></ellipse>
<ellipse cx="23" cy="78" rx="86" ry="1" style="fill:rgb(100,112,217)" transform="rotate(293 23 78)"></ellipse>
<ellipse cx="82" cy="121" rx="6" ry="12" style="fill:rgb(119,186,188)" transform="rotate(345 82 121)"></ellipse>
<ellipse cx="1" cy="156" rx="2" ry="135" style="fill:rgb(124,190,184)" transform="rotate(108 1 156)"></ellipse>
<ellipse cx="24" cy="135" rx="2" ry="79" style="fill:rgb(160,153,194)" transform="rotate(332 24 135)"></ellipse>
<ellipse cx="2" cy="25" rx="2" ry="54" style="fill:rgb(140,181,204)" transform="rotate(203 2 25)"></ellipse>
<ellipse cx="52" cy="179" rx="28" ry="9" style="fill:rgb(113,162,189)" transform="rotate(186 52 179)"></ellipse>
<ellipse cx="0" cy="84" rx="15" ry="33" style="fill:rgb(124,142,215)" transform="rotate(103 0 84)"></ellipse>
<ellipse cx="211" cy="76" rx="217" ry="1" style="fill:rgb(102,133,211)" transform="rotate(281 211 76)"></ellipse>
<ellipse cx="4" cy="0" rx="196" ry="0" style="fill:rgb(116,192,164)" transform="rotate(125 4 0)"></ellipse>
<ellipse cx="146" cy="68" rx="6" ry="66" style="fill:rgb(190,192,251)" transform="rotate(284 146 68)"></ellipse>
<ellipse cx="218" cy="224" rx="46" ry="2" style="fill:rgb(227,147,248)" transform="rotate(314 218 224)"></ellipse>
<ellipse cx="224" cy="220" rx="187" ry="4" style="fill:rgb(236,227,169)" transform="rotate(307 224 220)"></ellipse>
<ellipse cx="110" cy="215" rx="90" ry="2" style="fill:rgb(135,146,216)" transform="rotate(121 110 215)"></ellipse>
<ellipse cx="213" cy="171" rx="12" ry="10" style="fill:rgb(132,156,197)" transform="rotate(221 213 171)"></ellipse>
<ellipse cx="18" cy="198" rx="0" ry="143" style="fill:rgb(137,97,182)" transform="rotate(72 18 198)"></ellipse>
<ellipse cx="26" cy="145" rx="0" ry="26" style="fill:rgb(103,144,247)" transform="rotate(348 26 145)"></ellipse>
<ellipse cx="179" cy="46" rx="173" ry="20" style="fill:rgb(117,139,197)" transform="rotate(15 179 46)"></ellipse>
<ellipse cx="104" cy="171" rx="3" ry="44" style="fill:rgb(138,175,207)" transform="rotate(250 104 171)"></ellipse>
<ellipse cx="11" cy="5" rx="3" ry="29" style="fill:rgb(167,120,201)" transform="rotate(77 11 5)"></ellipse>
<ellipse cx="217" cy="198" rx="15" ry="109" style="fill:rgb(114,132,232)" transform="rotate(54 217 198)"></ellipse>
<ellipse cx="110" cy="7" rx="0" ry="85" style="fill:rgb(115,149,202)" transform="rotate(264 110 7)"></ellipse>
<ellipse cx="34" cy="214" rx="43" ry="104" style="fill:rgb(130,145,226)" transform="rotate(277 34 214)"></ellipse>
<ellipse cx="174" cy="99" rx="17" ry="26" style="fill:rgb(238,197,192)" transform="rotate(325 174 99)"></ellipse>
<ellipse cx="132" cy="30" rx="211" ry="13" style="fill:rgb(106,129,214)" transform="rotate(205 132 30)"></ellipse>
<ellipse cx="199" cy="164" rx="52" ry="1" style="fill:rgb(126,133,233)" transform="rotate(341 199 164)"></ellipse>
<ellipse cx="211" cy="57" rx="59" ry="33" style="fill:rgb(86,153,215)" transform="rotate(41 211 57)"></ellipse>
<ellipse cx="217" cy="8" rx="10" ry="72" style="fill:rgb(188,187,255)" transform="rotate(301 217 8)"></ellipse>
<ellipse cx="8" cy="64" rx="207" ry="36" style="fill:rgb(103,129,207)" transform="rotate(128 8 64)"></ellipse>
<ellipse cx="170" cy="114" rx="32" ry="0" style="fill:rgb(248,252,236)" transform="rotate(63 170 114)"></ellipse>
<ellipse cx="177" cy="111" rx="12" ry="47" style="fill:rgb(236,193,255)" transform="rotate(163 177 111)"></ellipse>
<ellipse cx="11" cy="110" rx="134" ry="22" style="fill:rgb(109,152,229)" transform="rotate(83 11 110)"></ellipse>
<ellipse cx="156" cy="117" rx="46" ry="32" style="fill:rgb(239,218,246)" transform="rotate(343 156 117)"></ellipse>
<ellipse cx="113" cy="176" rx="49" ry="14" style="fill:rgb(138,142,197)" transform="rotate(175 113 176)"></ellipse>
<ellipse cx="47" cy="214" rx="42" ry="72" style="fill:rgb(110,150,221)" transform="rotate(131 47 214)"></ellipse>
<ellipse cx="36" cy="223" rx="31" ry="170" style="fill:rgb(137,140,228)" transform="rotate(302 36 223)"></ellipse>
<ellipse cx="17" cy="217" rx="11" ry="120" style="fill:rgb(153,158,244)" transform="rotate(315 17 217)"></ellipse>
<ellipse cx="102" cy="103" rx="40" ry="64" style="fill:rgb(244,240,244)" transform="rotate(48 102 103)"></ellipse>
<ellipse cx="195" cy="102" rx="3" ry="68" style="fill:rgb(168,174,214)" transform="rotate(176 195 102)"></ellipse>
<ellipse cx="205" cy="204" rx="15" ry="143" style="fill:rgb(130,158,219)" transform="rotate(101 205 204)"></ellipse>
<ellipse cx="168" cy="8" rx="42" ry="29" style="fill:rgb(108,120,226)" transform="rotate(356 168 8)"></ellipse>
<ellipse cx="88" cy="111" rx="13" ry="12" style="fill:rgb(126,158,211)" transform="rotate(211 88 111)"></ellipse>
<ellipse cx="146" cy="128" rx="2" ry="0" style="fill:rgb(132,74,145)" transform="rotate(315 146 128)"></ellipse>
<ellipse cx="126" cy="51" rx="9" ry="9" style="fill:rgb(55,102,154)" transform="rotate(219 126 51)"></ellipse>
<ellipse cx="1" cy="8" rx="69" ry="8" style="fill:rgb(168,210,237)" transform="rotate(99 1 8)"></ellipse>
<ellipse cx="23" cy="196" rx="9" ry="148" style="fill:rgb(94,133,235)" transform="rotate(155 23 196)"></ellipse>
<ellipse cx="129" cy="41" rx="3" ry="28" style="fill:rgb(103,114,142)" transform="rotate(48 129 41)"></ellipse>
<ellipse cx="131" cy="115" rx="11" ry="3" style="fill:rgb(89,192,111)" transform="rotate(223 131 115)"></ellipse>
<ellipse cx="217" cy="141" rx="19" ry="26" style="fill:rgb(134,127,201)" transform="rotate(8 217 141)"></ellipse>
<ellipse cx="134" cy="121" rx="22" ry="31" style="fill:rgb(231,189,246)" transform="rotate(59 134 121)"></ellipse>
<ellipse cx="5" cy="118" rx="1" ry="93" style="fill:rgb(83,137,213)" transform="rotate(177 5 118)"></ellipse>
<ellipse cx="14" cy="163" rx="59" ry="3" style="fill:rgb(118,119,202)" transform="rotate(231 14 163)"></ellipse>
<ellipse cx="197" cy="76" rx="3" ry="54" style="fill:rgb(104,120,218)" transform="rotate(329 197 76)"></ellipse>
<ellipse cx="67" cy="100" rx="8" ry="60" style="fill:rgb(220,246,243)" transform="rotate(41 67 100)"></ellipse>
<ellipse cx="130" cy="53" rx="8" ry="209" style="fill:rgb(147,160,202)" transform="rotate(97 130 53)"></ellipse>
<ellipse cx="203" cy="70" rx="10" ry="103" style="fill:rgb(100,147,223)" transform="rotate(330 203 70)"></ellipse>
<ellipse cx="206" cy="20" rx="199" ry="12" style="fill:rgb(95,142,230)" transform="rotate(73 206 20)"></ellipse>
<ellipse cx="137" cy="132" rx="9" ry="21" style="fill:rgb(168,209,219)" transform="rotate(274 137 132)"></ellipse>
<ellipse cx="172" cy="224" rx="17" ry="203" style="fill:rgb(107,128,209)" transform="rotate(31 172 224)"></ellipse>
<ellipse cx="104" cy="35" rx="7" ry="19" style="fill:rgb(90,139,212)" transform="rotate(146 104 35)"></ellipse>
<ellipse cx="188" cy="16" rx="3" ry="59" style="fill:rgb(118,150,200)" transform="rotate(332 188 16)"></ellipse>
<ellipse cx="39" cy="47" rx="13" ry="6" style="fill:rgb(126,130,235)" transform="rotate(27 39 47)"></ellipse>
<ellipse cx="222" cy="220" rx="222" ry="16" style="fill:rgb(134,221,220)" transform="rotate(136 222 220)"></ellipse>
<ellipse cx="142" cy="35" rx="74" ry="20" style="fill:rgb(135,141,237)" transform="rotate(175 142 35)"></ellipse>
<ellipse cx="157" cy="19" rx="17" ry="220" style="fill:rgb(115,132,231)" transform="rotate(143 157 19)"></ellipse>
<ellipse cx="8" cy="61" rx="96" ry="27" style="fill:rgb(127,135,229)" transform="rotate(144 8 61)"></ellipse>
<ellipse cx="6" cy="139" rx="0" ry="168" style="fill:rgb(114,147,201)" transform="rotate(333 6 139)"></ellipse>
<ellipse cx="221" cy="212" rx="7" ry="212" style="fill:rgb(120,140,220)" transform="rotate(98 221 212)"></ellipse>
<ellipse cx="219" cy="221" rx="32" ry="12" style="fill:rgb(230,246,235)" transform="rotate(291 219 221)"></ellipse>
<ellipse cx="195" cy="197" rx="32" ry="29" style="fill:rgb(108,129,231)" transform="rotate(175 195 197)"></ellipse>
<ellipse cx="8" cy="13" rx="2" ry="14" style="fill:rgb(135,236,208)" transform="rotate(30 8 13)"></ellipse>
<ellipse cx="98" cy="132" rx="43" ry="11" style="fill:rgb(180,194,241)" transform="rotate(15 98 132)"></ellipse>
<ellipse cx="98" cy="28" rx="1" ry="168" style="fill:rgb(102,145,222)" transform="rotate(96 98 28)"></ellipse>
<ellipse cx="223" cy="1" rx="14" ry="188" style="fill:rgb(207,219,220)" transform="rotate(136 223 1)"></ellipse>
<ellipse cx="213" cy="60" rx="66" ry="20" style="fill:rgb(108,129,203)" transform="rotate(243 213 60)"></ellipse>
<ellipse cx="3" cy="194" rx="65" ry="6" style="fill:rgb(102,133,183)" transform="rotate(41 3 194)"></ellipse>
<ellipse cx="66" cy="34" rx="22" ry="20" style="fill:rgb(106,120,220)" transform="rotate(335 66 34)"></ellipse>
<ellipse cx="120" cy="220" rx="13" ry="20" style="fill:rgb(108,130,229)" transform="rotate(186 120 220)"></ellipse>
<ellipse cx="85" cy="221" rx="9" ry="171" style="fill:rgb(102,150,218)" transform="rotate(294 85 221)"></ellipse>
<ellipse cx="99" cy="141" rx="16" ry="1" style="fill:rgb(228,212,204)" transform="rotate(180 99 141)"></ellipse>
<ellipse cx="94" cy="19" rx="22" ry="70" style="fill:rgb(127,150,210)" transform="rotate(105 94 19)"></ellipse>
<ellipse cx="137" cy="124" rx="0" ry="12" style="fill:rgb(55,174,233)" transform="rotate(178 137 124)"></ellipse>
<ellipse cx="93" cy="208" rx="58" ry="2" style="fill:rgb(118,146,223)" transform="rotate(124 93 208)"></ellipse>
<ellipse cx="134" cy="109" rx="4" ry="18" style="fill:rgb(172,210,231)" transform="rotate(80 134 109)"></ellipse>
<ellipse cx="7" cy="79" rx="2" ry="186" style="fill:rgb(140,149,226)" transform="rotate(72 7 79)"></ellipse>
<ellipse cx="195" cy="18" rx="17" ry="171" style="fill:rgb(128,133,225)" transform="rotate(170 195 18)"></ellipse>
<ellipse cx="45" cy="202" rx="31" ry="14" style="fill:rgb(99,130,209)" transform="rotate(178 45 202)"></ellipse>
<ellipse cx="80" cy="126" rx="4" ry="6" style="fill:rgb(54,111,226)" transform="rotate(293 80 126)"></ellipse>
<ellipse cx="75" cy="112" rx="0" ry="2" style="fill:rgb(105,236,248)" transform="rotate(206 75 112)"></ellipse>
<ellipse cx="84" cy="116" rx="11" ry="6" style="fill:rgb(119,141,230)" transform="rotate(71 84 116)"></ellipse>
<ellipse cx="94" cy="48" rx="7" ry="2" style="fill:rgb(104,112,223)" transform="rotate(178 94 48)"></ellipse>
<ellipse cx="82" cy="24" rx="14" ry="4" style="fill:rgb(112,131,232)" transform="rotate(295 82 24)"></ellipse>
<ellipse cx="39" cy="166" rx="2" ry="72" style="fill:rgb(112,128,216)" transform="rotate(300 39 166)"></ellipse>
<ellipse cx="22" cy="52" rx="102" ry="29" style="fill:rgb(105,125,218)" transform="rotate(288 22 52)"></ellipse>
<ellipse cx="43" cy="76" rx="0" ry="29" style="fill:rgb(102,125,195)" transform="rotate(16 43 76)"></ellipse>
<ellipse cx="36" cy="216" rx="10" ry="28" style="fill:rgb(114,126,226)" transform="rotate(203 36 216)"></ellipse>
<ellipse cx="147" cy="125" rx="11" ry="4" style="fill:rgb(196,143,209)" transform="rotate(313 147 125)"></ellipse>
<ellipse cx="221" cy="216" rx="2" ry="41" style="fill:rgb(230,174,254)" transform="rotate(188 221 216)"></ellipse>
<ellipse cx="138" cy="1" rx="7" ry="166" style="fill:rgb(128,132,225)" transform="rotate(241 138 1)"></ellipse>
<ellipse cx="183" cy="2" rx="8" ry="190" style="fill:rgb(128,141,224)" transform="rotate(327 183 2)"></ellipse>
<ellipse cx="111" cy="133" rx="19" ry="0" style="fill:rgb(202,209,240)" transform="rotate(231 111 133)"></ellipse>
<ellipse cx="216" cy="14" rx="75" ry="1" style="fill:rgb(136,123,211)" transform="rotate(58 216 14)"></ellipse>
<ellipse cx="77" cy="62" rx="8" ry="8" style="fill:rgb(163,232,178)" transform="rotate(25 77 62)"></ellipse>
<ellipse cx="205" cy="190" rx="165" ry="9" style="fill:rgb(108,137,220)" transform="rotate(143 205 190)"></ellipse>
<ellipse cx="223" cy="44" rx="151" ry="18" style="fill:rgb(111,144,212)" transform="rotate(32 223 44)"></ellipse>
<ellipse cx="3" cy="223" rx="4" ry="168" style="fill:rgb(139,224,244)" transform="rotate(320 3 223)"></ellipse>
<ellipse cx="16" cy="1" rx="205" ry="0" style="fill:rgb(170,154,218)" transform="rotate(170 16 1)"></ellipse>
<ellipse cx="47" cy="207" rx="147" ry="9" style="fill:rgb(105,127,224)" transform="rotate(50 47 207)"></ellipse>
<ellipse cx="183" cy="142" rx="4" ry="6" style="fill:rgb(220,237,251)" transform="rotate(232 183 142)"></ellipse>
<ellipse cx="5" cy="4" rx="0" ry="61" style="fill:rgb(255,218,250)" transform="rotate(221 5 4)"></ellipse>
<ellipse cx="9" cy="13" rx="83" ry="5" style="fill:rgb(193,205,208)" transform="rotate(129 9 13)"></ellipse>
<ellipse cx="149" cy="214" rx="58" ry="20" style="fill:rgb(112,143,213)" transform="rotate(216 149 214)"></ellipse>
<ellipse cx="11" cy="18" rx="1" ry="11" style="fill:rgb(84,158,222)" transform="rotate(29 11 18)"></ellipse>
<ellipse cx="99" cy="103" rx="5" ry="6" style="fill:rgb(175,255,212)" transform="rotate(253 99 103)"></ellipse>
<ellipse cx="141" cy="121" rx="8" ry="2" style="fill:rgb(53,67,222)" transform="rotate(68 141 121)"></ellipse>
<ellipse cx="216" cy="211" rx="3" ry="71" style="fill:rgb(162,177,194)" transform="rotate(196 216 211)"></ellipse>
<ellipse cx="12" cy="0" rx="0" ry="42" style="fill:rgb(164,236,240)" transform="rotate(217 12 0)"></ellipse>
<ellipse cx="133" cy="116" rx="4" ry="11" style="fill:rgb(104,83,245)" transform="rotate(266 133 116)"></ellipse>
<ellipse cx="85" cy="169" rx="5" ry="8" style="fill:rgb(115,138,200)" transform="rotate(118 85 169)"></ellipse>
<ellipse cx="171" cy="69" rx="0" ry="3" style="fill:rgb(234,207,214)" transform="rotate(170 171 69)"></ellipse>
<ellipse cx="0" cy="212" rx="8" ry="5" style="fill:rgb(161,173,236)" transform="rotate(101 0 212)"></ellipse>
<ellipse cx="59" cy="1" rx="99" ry="20" style="fill:rgb(110,147,215)" transform="rotate(312 59 1)"></ellipse>
<ellipse cx="150" cy="163" rx="5" ry="1" style="fill:rgb(244,229,183)" transform="rotate(34 150 163)"></ellipse>
<ellipse cx="117" cy="10" rx="33" ry="25" style="fill:rgb(110,149,228)" transform="rotate(154 117 10)"></ellipse>
<ellipse cx="148" cy="34" rx="22" ry="6" style="fill:rgb(112,155,209)" transform="rotate(40 148 34)"></ellipse>
<ellipse cx="37" cy="17" rx="89" ry="20" style="fill:rgb(106,141,216)" transform="rotate(307 37 17)"></ellipse>
<ellipse cx="12" cy="218" rx="182" ry="0" style="fill:rgb(188,224,167)" transform="rotate(218 12 218)"></ellipse>
<ellipse cx="8" cy="180" rx="9" ry="9" style="fill:rgb(125,133,220)" transform="rotate(44 8 180)"></ellipse>
<ellipse cx="114" cy="3" rx="44" ry="16" style="fill:rgb(112,139,231)" transform="rotate(192 114 3)"></ellipse>
<ellipse cx="179" cy="187" rx="15" ry="209" style="fill:rgb(108,138,208)" transform="rotate(91 179 187)"></ellipse>
<ellipse cx="198" cy="175" rx="43" ry="2" style="fill:rgb(91,148,199)" transform="rotate(87 198 175)"></ellipse>
<ellipse cx="57" cy="104" rx="13" ry="59" style="fill:rgb(239,241,238)" transform="rotate(22 57 104)"></ellipse>
<ellipse cx="134" cy="117" rx="5" ry="3" style="fill:rgb(94,100,249)" transform="rotate(290 134 117)"></ellipse>
<ellipse cx="47" cy="197" rx="165" ry="9" style="fill:rgb(117,127,213)" transform="rotate(2 47 197)"></ellipse>
<ellipse cx="205" cy="0" rx="157" ry="2" style="fill:rgb(186,186,196)" transform="rotate(222 205 0)"></ellipse>
<ellipse cx="31" cy="203" rx="167" ry="18" style="fill:rgb(108,140,206)" transform="rotate(58 31 203)"></ellipse>
<ellipse cx="162" cy="56" rx="21" ry="6" style="fill:rgb(125,150,219)" transform="rotate(197 162 56)"></ellipse>
<ellipse cx="20" cy="181" rx="1" ry="147" style="fill:rgb(105,137,218)" transform="rotate(97 20 181)"></ellipse>
<ellipse cx="84" cy="11" rx="56" ry="27" style="fill:rgb(116,133,224)" transform="rotate(180 84 11)"></ellipse>
<ellipse cx="22" cy="24" rx="15" ry="17" style="fill:rgb(95,147,211)" transform="rotate(150 22 24)"></ellipse>
<ellipse cx="52" cy="58" rx="28" ry="4" style="fill:rgb(98,100,211)" transform="rotate(350 52 58)"></ellipse>
<ellipse cx="149" cy="93" rx="35" ry="1" style="fill:rgb(246,210,241)" transform="rotate(162 149 93)"></ellipse>
<ellipse cx="91" cy="108" rx="6" ry="8" style="fill:rgb(231,227,210)" transform="rotate(335 91 108)"></ellipse>
<ellipse cx="219" cy="81" rx="7" ry="169" style="fill:rgb(114,136,227)" transform="rotate(13 219 81)"></ellipse>
<ellipse cx="222" cy="209" rx="164" ry="0" style="fill:rgb(253,223,205)" transform="rotate(100 222 209)"></ellipse>
<ellipse cx="149" cy="37" rx="1" ry="7" style="fill:rgb(123,133,220)" transform="rotate(126 149 37)"></ellipse>
<ellipse cx="112" cy="139" rx="21" ry="14" style="fill:rgb(239,242,202)" transform="rotate(78 112 139)"></ellipse>
<ellipse cx="54" cy="38" rx="10" ry="54" style="fill:rgb(110,156,227)" transform="rotate(111 54 38)"></ellipse>
<ellipse cx="34" cy="76" rx="4" ry="184" style="fill:rgb(113,142,200)" transform="rotate(31 34 76)"></ellipse>
<ellipse cx="9" cy="24" rx="140" ry="5" style="fill:rgb(116,155,222)" transform="rotate(130 9 24)"></ellipse>
<ellipse cx="202" cy="206" rx="193" ry="1" style="fill:rgb(108,131,227)" transform="rotate(119 202 206)"></ellipse>
<ellipse cx="112" cy="119" rx="16" ry="16" style="fill:rgb(222,215,248)" transform="rotate(337 112 119)"></ellipse>
<ellipse cx="0" cy="221" rx="1" ry="165" style="fill:rgb(243,202,165)" transform="rotate(294 0 221)"></ellipse>
<ellipse cx="138" cy="39" rx="6" ry="11" style="fill:rgb(99,145,225)" transform="rotate(295 138 39)"></ellipse>
<ellipse cx="52" cy="204" rx="121" ry="28" style="fill:rgb(108,131,221)" transform="rotate(217 52 204)"></ellipse>
<ellipse cx="222" cy="217" rx="182" ry="1" style="fill:rgb(247,226,173)" transform="rotate(329 222 217)"></ellipse>
<ellipse cx="120" cy="123" rx="42" ry="2" style="fill:rgb(202,244,252)" transform="rotate(116 120 123)"></ellipse>
<ellipse cx="4" cy="134" rx="90" ry="22" style="fill:rgb(117,138,224)" transform="rotate(283 4 134)"></ellipse>
<ellipse cx="144" cy="23" rx="34" ry="79" style="fill:rgb(113,133,226)" transform="rotate(283 144 23)"></ellipse>
<ellipse cx="82" cy="132" rx="1" ry="8" style="fill:rgb(183,162,234)" transform="rotate(87 82 132)"></ellipse>
<ellipse cx="135" cy="119" rx="10" ry="13" style="fill:rgb(92,143,211)" transform="rotate(110 135 119)"></ellipse>
<ellipse cx="158" cy="155" rx="16" ry="14" style="fill:rgb(236,203,243)" transform="rotate(340 158 155)"></ellipse>
<ellipse cx="77" cy="24" rx="13" ry="36" style="fill:rgb(102,142,213)" transform="rotate(322 77 24)"></ellipse>
<ellipse cx="0" cy="125" rx="217" ry="7" style="fill:rgb(101,144,221)" transform="rotate(306 0 125)"></ellipse>
<ellipse cx="112" cy="218" rx="4" ry="7" style="fill:rgb(113,127,214)" transform="rotate(223 112 218)"></ellipse>
<ellipse cx="79" cy="125" rx="13" ry="6" style="fill:rgb(112,137,250)" transform="rotate(245 79 125)"></ellipse>
<ellipse cx="89" cy="113" rx="2" ry="13" style="fill:rgb(62,132,243)" transform="rotate(110 89 113)"></ellipse>
<ellipse cx="171" cy="69" rx="19" ry="0" style="fill:rgb(221,156,242)" transform="rotate(203 171 69)"></ellipse>
<ellipse cx="12" cy="3" rx="2" ry="34" style="fill:rgb(219,217,232)" transform="rotate(215 12 3)"></ellipse>
<ellipse cx="216" cy="215" rx="0" ry="221" style="fill:rgb(200,188,179)" transform="rotate(223 216 215)"></ellipse>
<ellipse cx="3" cy="220" rx="2" ry="155" style="fill:rgb(237,189,159)" transform="rotate(298 3 220)"></ellipse>
<ellipse cx="9" cy="220" rx="203" ry="3" style="fill:rgb(242,232,233)" transform="rotate(227 9 220)"></ellipse>
<ellipse cx="45" cy="33" rx="20" ry="22" style="fill:rgb(105,146,209)" transform="rotate(36 45 33)"></ellipse>
<ellipse cx="108" cy="60" rx="0" ry="3" style="fill:rgb(199,166,183)" transform="rotate(72 108 60)"></ellipse>
<ellipse cx="154" cy="86" rx="10" ry="17" style="fill:rgb(235,240,248)" transform="rotate(247 154 86)"></ellipse>
<ellipse cx="143" cy="155" rx="27" ry="4" style="fill:rgb(241,241,206)" transform="rotate(229 143 155)"></ellipse>
<ellipse cx="110" cy="16" rx="53" ry="14" style="fill:rgb(118,142,218)" transform="rotate(318 110 16)"></ellipse>
<ellipse cx="213" cy="207" rx="5" ry="1" style="fill:rgb(83,117,208)" transform="rotate(20 213 207)"></ellipse>
<ellipse cx="138" cy="128" rx="8" ry="9" style="fill:rgb(94,144,229)" transform="rotate(7 138 128)"></ellipse>
<ellipse cx="0" cy="2" rx="0" ry="61" style="fill:rgb(253,183,230)" transform="rotate(192 0 2)"></ellipse>
<ellipse cx="3" cy="87" rx="36" ry="76" style="fill:rgb(115,143,213)" transform="rotate(207 3 87)"></ellipse>
<ellipse cx="214" cy="217" rx="29" ry="1" style="fill:rgb(192,161,195)" transform="rotate(139 214 217)"></ellipse>
<ellipse cx="83" cy="0" rx="14" ry="12" style="fill:rgb(104,134,208)" transform="rotate(118 83 0)"></ellipse>
<ellipse cx="7" cy="204" rx="114" ry="2" style="fill:rgb(140,151,222)" transform="rotate(229 7 204)"></ellipse>
<ellipse cx="113" cy="216" rx="111" ry="6" style="fill:rgb(118,143,215)" transform="rotate(27 113 216)"></ellipse>
<ellipse cx="117" cy="31" rx="39" ry="11" style="fill:rgb(117,144,225)" transform="rotate(221 117 31)"></ellipse>
<ellipse cx="221" cy="224" rx="166" ry="11" style="fill:rgb(228,209,209)" transform="rotate(336 221 224)"></ellipse>
<ellipse cx="146" cy="138" rx="3" ry="2" style="fill:rgb(240,191,238)" transform="rotate(2 146 138)"></ellipse>
<ellipse cx="3" cy="209" rx="40" ry="2" style="fill:rgb(204,245,210)" transform="rotate(46 3 209)"></ellipse>
<ellipse cx="124" cy="143" rx="24" ry="9" style="fill:rgb(239,218,249)" transform="rotate(169 124 143)"></ellipse>
<ellipse cx="2" cy="222" rx="2" ry="144" style="fill:rgb(198,241,235)" transform="rotate(152 2 222)"></ellipse>
<ellipse cx="160" cy="173" rx="1" ry="4" style="fill:rgb(188,50,205)" transform="rotate(89 160 173)"></ellipse>
<ellipse cx="82" cy="17" rx="27" ry="73" style="fill:rgb(118,134,227)" transform="rotate(271 82 17)"></ellipse>
<ellipse cx="194" cy="29" rx="3" ry="108" style="fill:rgb(119,136,229)" transform="rotate(176 194 29)"></ellipse>
<ellipse cx="144" cy="118" rx="6" ry="3" style="fill:rgb(146,130,209)" transform="rotate(183 144 118)"></ellipse>
<ellipse cx="67" cy="11" rx="49" ry="31" style="fill:rgb(113,138,224)" transform="rotate(221 67 11)"></ellipse>
<ellipse cx="94" cy="156" rx="0" ry="7" style="fill:rgb(203,207,222)" transform="rotate(296 94 156)"></ellipse>
<ellipse cx="151" cy="132" rx="34" ry="7" style="fill:rgb(212,245,253)" transform="rotate(306 151 132)"></ellipse>
<ellipse cx="208" cy="82" rx="14" ry="136" style="fill:rgb(110,139,214)" transform="rotate(320 208 82)"></ellipse>
<ellipse cx="37" cy="40" rx="123" ry="30" style="fill:rgb(119,130,215)" transform="rotate(317 37 40)"></ellipse>
<ellipse cx="222" cy="1" rx="23" ry="4" style="fill:rgb(254,233,223)" transform="rotate(59 222 1)"></ellipse>
<ellipse cx="62" cy="150" rx="0" ry="3" style="fill:rgb(200,188,251)" transform="rotate(268 62 150)"></ellipse>
<ellipse cx="181" cy="214" rx="50" ry="20" style="fill:rgb(112,137,208)" transform="rotate(271 181 214)"></ellipse>
<ellipse cx="3" cy="84" rx="26" ry="36" style="fill:rgb(120,141,216)" transform="rotate(103 3 84)"></ellipse>
<ellipse cx="157" cy="88" rx="33" ry="25" style="fill:rgb(240,255,227)" transform="rotate(182 157 88)"></ellipse>
<ellipse cx="194" cy="73" rx="13" ry="3" style="fill:rgb(112,117,204)" transform="rotate(357 194 73)"></ellipse>
<ellipse cx="215" cy="217" rx="1" ry="132" style="fill:rgb(221,209,196)" transform="rotate(229 215 217)"></ellipse>
<ellipse cx="187" cy="81" rx="2" ry="0" style="fill:rgb(112,236,186)" transform="rotate(57 187 81)"></ellipse>
<ellipse cx="93" cy="124" rx="6" ry="4" style="fill:rgb(61,105,192)" transform="rotate(191 93 124)"></ellipse>
<ellipse cx="215" cy="178" rx="0" ry="47" style="fill:rgb(122,138,222)" transform="rotate(65 215 178)"></ellipse>
<ellipse cx="2" cy="8" rx="6" ry="58" style="fill:rgb(236,197,242)" transform="rotate(240 2 8)"></ellipse>
<ellipse cx="175" cy="120" rx="18" ry="15" style="fill:rgb(255,252,238)" transform="rotate(357 175 120)"></ellipse>
<ellipse cx="114" cy="162" rx="1" ry="23" style="fill:rgb(161,106,188)" transform="rotate(263 114 162)"></ellipse>
<ellipse cx="194" cy="165" rx="86" ry="2" style="fill:rgb(129,130,226)" transform="rotate(277 194 165)"></ellipse>
<ellipse cx="212" cy="166" rx="88" ry="22" style="fill:rgb(109,141,221)" transform="rotate(294 212 166)"></ellipse>
<ellipse cx="144" cy="128" rx="7" ry="8" style="fill:rgb(176,183,230)" transform="rotate(62 144 128)"></ellipse>
<ellipse cx="189" cy="82" rx="2" ry="2" style="fill:rgb(25,119,163)" transform="rotate(5 189 82)"></ellipse>
<ellipse cx="48" cy="23" rx="46" ry="19" style="fill:rgb(118,138,217)" transform="rotate(278 48 23)"></ellipse>
<ellipse cx="150" cy="56" rx="3" ry="0" style="fill:rgb(107,200,246)" transform="rotate(80 150 56)"></ellipse>
<ellipse cx="23" cy="200" rx="100" ry="9" style="fill:rgb(118,141,213)" transform="rotate(37 23 200)"></ellipse>
<ellipse cx="139" cy="89" rx="22" ry="42" style="fill:rgb(244,253,246)" transform="rotate(288 139 89)"></ellipse>
<ellipse cx="64" cy="126" rx="43" ry="7" style="fill:rgb(227,241,221)" transform="rotate(268 64 126)"></ellipse>
<ellipse cx="89" cy="131" rx="7" ry="6" style="fill:rgb(174,124,204)" transform="rotate(332 89 131)"></ellipse>
<ellipse cx="67" cy="163" rx="14" ry="8" style="fill:rgb(247,246,236)" transform="rotate(167 67 163)"></ellipse>
</svg>