<svg><ellipse cx="187" cy="267" rx="428" ry="329" style="fill:rgb(189,155,224)" transform="rotate(74 187 267)"></ellipse>
<ellipse cx="239" cy="31" rx="416" ry="335" style="fill:rgb(204,175,140)" transform="rotate(23 239 31)"></ellipse>
<ellipse cx="177" cy="172" rx="159" ry="103" style="fill:rgb(182,96,104)" transform="rotate(77 177 172)"></ellipse>
<ellipse cx="293" cy="34" rx="53" ry="216" style="fill:rgb(203,251,237)" transform="rotate(280 293 34)"></ellipse>
<ellipse cx="220" cy="318" rx="162" ry="233" style="fill:rgb(173,153,165)" transform="rotate(20 220 318)"></ellipse>
<ellipse cx="374" cy="241" rx="98" ry="125" style="fill:rgb(166,248,244)" transform="rotate(225 374 241)"></ellipse>
<ellipse cx="21" cy="90" rx="424" ry="71" style="fill:rgb(196,193,195)" transform="rotate(279 21 90)"></ellipse>
<ellipse cx="382" cy="157" rx="121" ry="151" style="fill:rgb(235,215,217)" transform="rotate(349 382 157)"></ellipse>
<ellipse cx="215" cy="330" rx="103" ry="29" style="fill:rgb(110,145,87)" transform="rotate(42 215 330)"></ellipse>
<ellipse cx="304" cy="254" rx="66" ry="76" style="fill:rgb(194,240,236)" transform="rotate(352 304 254)"></ellipse>
<ellipse cx="3" cy="113" rx="50" ry="105" style="fill:rgb(251,234,253)" transform="rotate(151 3 113)"></ellipse>
<ellipse cx="239" cy="174" rx="30" ry="44" style="fill:rgb(236,159,67)" transform="rotate(52 239 174)"></ellipse>
<ellipse cx="180" cy="134" rx="116" ry="90" style="fill:rgb(169,172,48)" transform="rotate(222 180 134)"></ellipse>
<ellipse cx="116" cy="336" rx="52" ry="221" style="fill:rgb(200,132,104)" transform="rotate(20 116 336)"></ellipse>
<ellipse cx="39" cy="208" rx="40" ry="92" style="fill:rgb(230,251,226)" transform="rotate(158 39 208)"></ellipse>
<ellipse cx="358" cy="84" rx="107" ry="169" style="fill:rgb(241,233,237)" transform="rotate(324 358 84)"></ellipse>
<ellipse cx="73" cy="61" rx="12" ry="184" style="fill:rgb(246,223,240)" transform="rotate(38 73 61)"></ellipse>
<ellipse cx="365" cy="332" rx="137" ry="15" style="fill:rgb(96,101,189)" transform="rotate(290 365 332)"></ellipse>
<ellipse cx="448" cy="330" rx="25" ry="303" style="fill:rgb(166,109,179)" transform="rotate(69 448 330)"></ellipse>
<ellipse cx="309" cy="228" rx="109" ry="36" style="fill:rgb(232,196,211)" transform="rotate(266 309 228)"></ellipse>
<ellipse cx="165" cy="119" rx="104" ry="43" style="fill:rgb(207,101,121)" transform="rotate(45 165 119)"></ellipse>
<ellipse cx="71" cy="70" rx="238" ry="0" style="fill:rgb(206,185,215)" transform="rotate(341 71 70)"></ellipse>
<ellipse cx="173" cy="63" rx="20" ry="30" style="fill:rgb(76,185,70)" transform="rotate(148 173 63)"></ellipse>
<ellipse cx="126" cy="119" rx="78" ry="8" style="fill:rgb(153,127,84)" transform="rotate(136 126 119)"></ellipse>
<ellipse cx="59" cy="307" rx="28" ry="11" style="fill:rgb(215,231,212)" transform="rotate(137 59 307)"></ellipse>
<ellipse cx="63" cy="21" rx="22" ry="50" style="fill:rgb(255,196,223)" transform="rotate(141 63 21)"></ellipse>
<ellipse cx="88" cy="325" rx="51" ry="14" style="fill:rgb(128,154,109)" transform="rotate(135 88 325)"></ellipse>
<ellipse cx="415" cy="307" rx="188" ry="30" style="fill:rgb(208,253,227)" transform="rotate(209 415 307)"></ellipse>
<ellipse cx="302" cy="48" rx="20" ry="316" style="fill:rgb(253,233,207)" transform="rotate(172 302 48)"></ellipse>
<ellipse cx="445" cy="291" rx="426" ry="17" style="fill:rgb(101,60,127)" transform="rotate(331 445 291)"></ellipse>
<ellipse cx="92" cy="162" rx="57" ry="31" style="fill:rgb(138,123,146)" transform="rotate(293 92 162)"></ellipse>
<ellipse cx="219" cy="232" rx="22" ry="17" style="fill:rgb(226,175,122)" transform="rotate(288 219 232)"></ellipse>
<ellipse cx="132" cy="116" rx="62" ry="16" style="fill:rgb(165,165,108)" transform="rotate(165 132 116)"></ellipse>
<ellipse cx="100" cy="335" rx="9" ry="39" style="fill:rgb(162,96,142)" transform="rotate(345 100 335)"></ellipse>
<ellipse cx="401" cy="42" rx="143" ry="18" style="fill:rgb(242,221,241)" transform="rotate(327 401 42)"></ellipse>
<ellipse cx="157" cy="82" rx="51" ry="21" style="fill:rgb(168,128,66)" transform="rotate(163 157 82)"></ellipse>
<ellipse cx="385" cy="327" rx="208" ry="14" style="fill:rgb(130,106,180)" transform="rotate(306 385 327)"></ellipse>
<ellipse cx="343" cy="176" rx="28" ry="80" style="fill:rgb(186,221,222)" transform="rotate(282 343 176)"></ellipse>
<ellipse cx="81" cy="77" rx="10" ry="164" style="fill:rgb(225,190,168)" transform="rotate(47 81 77)"></ellipse>
<ellipse cx="380" cy="300" rx="22" ry="197" style="fill:rgb(109,91,135)" transform="rotate(21 380 300)"></ellipse>
<ellipse cx="404" cy="151" rx="6" ry="326" style="fill:rgb(117,185,205)" transform="rotate(199 404 151)"></ellipse>
<ellipse cx="175" cy="6" rx="16" ry="233" style="fill:rgb(245,221,219)" transform="rotate(72 175 6)"></ellipse>
<ellipse cx="6" cy="71" rx="75" ry="63" style="fill:rgb(240,253,239)" transform="rotate(244 6 71)"></ellipse>
<ellipse cx="419" cy="335" rx="35" ry="283" style="fill:rgb(119,100,114)" transform="rotate(221 419 335)"></ellipse>
<ellipse cx="359" cy="99" rx="100" ry="300" style="fill:rgb(242,249,224)" transform="rotate(152 359 99)"></ellipse>
<ellipse cx="152" cy="163" rx="63" ry="86" style="fill:rgb(192,134,116)" transform="rotate(122 152 163)"></ellipse>
<ellipse cx="72" cy="332" rx="101" ry="1" style="fill:rgb(141,153,92)" transform="rotate(316 72 332)"></ellipse>
<ellipse cx="165" cy="66" rx="39" ry="17" style="fill:rgb(115,81,42)" transform="rotate(62 165 66)"></ellipse>
<ellipse cx="241" cy="197" rx="9" ry="64" style="fill:rgb(173,139,80)" transform="rotate(357 241 197)"></ellipse>
<ellipse cx="136" cy="262" rx="68" ry="9" style="fill:rgb(191,133,93)" transform="rotate(240 136 262)"></ellipse>
<ellipse cx="92" cy="158" rx="16" ry="29" style="fill:rgb(179,103,34)" transform="rotate(269 92 158)"></ellipse>
<ellipse cx="57" cy="151" rx="12" ry="15" style="fill:rgb(209,226,222)" transform="rotate(182 57 151)"></ellipse>
<ellipse cx="429" cy="193" rx="22" ry="335" style="fill:rgb(106,96,162)" transform="rotate(209 429 193)"></ellipse>
<ellipse cx="429" cy="239" rx="173" ry="146" style="fill:rgb(205,237,222)" transform="rotate(226 429 239)"></ellipse>
<ellipse cx="212" cy="147" rx="90" ry="36" style="fill:rgb(169,94,47)" transform="rotate(274 212 147)"></ellipse>
<ellipse cx="120" cy="317" rx="181" ry="69" style="fill:rgb(148,112,119)" transform="rotate(116 120 317)"></ellipse>
<ellipse cx="338" cy="103" rx="67" ry="190" style="fill:rgb(249,251,245)" transform="rotate(140 338 103)"></ellipse>
<ellipse cx="173" cy="59" rx="9" ry="22" style="fill:rgb(70,74,54)" transform="rotate(184 173 59)"></ellipse>
<ellipse cx="52" cy="331" rx="302" ry="11" style="fill:rgb(175,122,126)" transform="rotate(140 52 331)"></ellipse>
<ellipse cx="162" cy="325" rx="92" ry="56" style="fill:rgb(175,113,83)" transform="rotate(267 162 325)"></ellipse>
<ellipse cx="127" cy="197" rx="44" ry="0" style="fill:rgb(224,142,212)" transform="rotate(146 127 197)"></ellipse>
<ellipse cx="233" cy="231" rx="56" ry="12" style="fill:rgb(110,59,58)" transform="rotate(288 233 231)"></ellipse>
<ellipse cx="169" cy="192" rx="63" ry="4" style="fill:rgb(184,82,85)" transform="rotate(286 169 192)"></ellipse>
<ellipse cx="44" cy="229" rx="122" ry="12" style="fill:rgb(220,187,246)" transform="rotate(46 44 229)"></ellipse>
<ellipse cx="200" cy="181" rx="32" ry="54" style="fill:rgb(162,131,92)" transform="rotate(154 200 181)"></ellipse>
<ellipse cx="256" cy="161" rx="14" ry="4" style="fill:rgb(137,49,76)" transform="rotate(185 256 161)"></ellipse>
<ellipse cx="82" cy="295" rx="3" ry="15" style="fill:rgb(244,151,239)" transform="rotate(312 82 295)"></ellipse>
<ellipse cx="46" cy="301" rx="67" ry="1" style="fill:rgb(149,211,240)" transform="rotate(8 46 301)"></ellipse>
<ellipse cx="210" cy="120" rx="21" ry="20" style="fill:rgb(211,63,126)" transform="rotate(47 210 120)"></ellipse>
<ellipse cx="54" cy="318" rx="58" ry="19" style="fill:rgb(213,143,209)" transform="rotate(307 54 318)"></ellipse>
<ellipse cx="404" cy="151" rx="72" ry="237" style="fill:rgb(227,217,243)" transform="rotate(12 404 151)"></ellipse>
<ellipse cx="140" cy="158" rx="0" ry="5" style="fill:rgb(84,128,78)" transform="rotate(75 140 158)"></ellipse>
<ellipse cx="135" cy="333" rx="39" ry="5" style="fill:rgb(179,148,139)" transform="rotate(32 135 333)"></ellipse>
<ellipse cx="46" cy="191" rx="48" ry="0" style="fill:rgb(213,224,247)" transform="rotate(281 46 191)"></ellipse>
<ellipse cx="11" cy="146" rx="14" ry="3" style="fill:rgb(198,230,204)" transform="rotate(10 11 146)"></ellipse>
<ellipse cx="40" cy="238" rx="109" ry="43" style="fill:rgb(246,253,236)" transform="rotate(251 40 238)"></ellipse>
<ellipse cx="125" cy="187" rx="16" ry="63" style="fill:rgb(192,182,109)" transform="rotate(179 125 187)"></ellipse>
<ellipse cx="98" cy="319" rx="24" ry="61" style="fill:rgb(122,131,148)" transform="rotate(18 98 319)"></ellipse>
<ellipse cx="156" cy="161" rx="19" ry="68" style="fill:rgb(222,123,92)" transform="rotate(99 156 161)"></ellipse>
<ellipse cx="136" cy="124" rx="43" ry="39" style="fill:rgb(228,131,153)" transform="rotate(75 136 124)"></ellipse>
<ellipse cx="148" cy="205" rx="23" ry="105" style="fill:rgb(176,95,64)" transform="rotate(133 148 205)"></ellipse>
<ellipse cx="358" cy="294" rx="262" ry="15" style="fill:rgb(210,248,252)" transform="rotate(243 358 294)"></ellipse>
<ellipse cx="379" cy="209" rx="226" ry="72" style="fill:rgb(246,232,254)" transform="rotate(66 379 209)"></ellipse>
<ellipse cx="158" cy="70" rx="42" ry="10" style="fill:rgb(33,85,4)" transform="rotate(185 158 70)"></ellipse>
<ellipse cx="256" cy="156" rx="56" ry="6" style="fill:rgb(95,41,7)" transform="rotate(94 256 156)"></ellipse>
<ellipse cx="173" cy="118" rx="13" ry="43" style="fill:rgb(170,154,134)" transform="rotate(115 173 118)"></ellipse>
<ellipse cx="434" cy="284" rx="38" ry="179" style="fill:rgb(76,86,165)" transform="rotate(31 434 284)"></ellipse>
<ellipse cx="407" cy="294" rx="6" ry="147" style="fill:rgb(76,78,160)" transform="rotate(224 407 294)"></ellipse>
<ellipse cx="167" cy="130" rx="2" ry="10" style="fill:rgb(210,210,193)" transform="rotate(50 167 130)"></ellipse>
<ellipse cx="255" cy="139" rx="20" ry="1" style="fill:rgb(14,45,39)" transform="rotate(326 255 139)"></ellipse>
<ellipse cx="212" cy="282" rx="26" ry="13" style="fill:rgb(90,92,61)" transform="rotate(128 212 282)"></ellipse>
<ellipse cx="167" cy="184" rx="14" ry="35" style="fill:rgb(197,174,77)" transform="rotate(104 167 184)"></ellipse>
<ellipse cx="80" cy="286" rx="21" ry="9" style="fill:rgb(182,249,168)" transform="rotate(184 80 286)"></ellipse>
<ellipse cx="114" cy="55" rx="9" ry="47" style="fill:rgb(170,205,202)" transform="rotate(66 114 55)"></ellipse>
<ellipse cx="263" cy="146" rx="6" ry="1" style="fill:rgb(12,37,118)" transform="rotate(8 263 146)"></ellipse>
<ellipse cx="37" cy="45" rx="32" ry="283" style="fill:rgb(235,230,238)" transform="rotate(243 37 45)"></ellipse>
<ellipse cx="224" cy="100" rx="14" ry="38" style="fill:rgb(117,115,15)" transform="rotate(298 224 100)"></ellipse>
<ellipse cx="369" cy="318" rx="61" ry="3" style="fill:rgb(151,231,207)" transform="rotate(144 369 318)"></ellipse>
<ellipse cx="65" cy="1" rx="87" ry="81" style="fill:rgb(240,239,251)" transform="rotate(94 65 1)"></ellipse>
<ellipse cx="203" cy="210" rx="42" ry="37" style="fill:rgb(211,120,110)" transform="rotate(17 203 210)"></ellipse>
<ellipse cx="57" cy="334" rx="34" ry="8" style="fill:rgb(148,70,155)" transform="rotate(200 57 334)"></ellipse>
<ellipse cx="383" cy="321" rx="1" ry="78" style="fill:rgb(245,248,221)" transform="rotate(68 383 321)"></ellipse>
<ellipse cx="137" cy="204" rx="7" ry="45" style="fill:rgb(203,158,95)" transform="rotate(343 137 204)"></ellipse>
<ellipse cx="426" cy="55" rx="125" ry="130" style="fill:rgb(241,250,244)" transform="rotate(289 426 55)"></ellipse>
<ellipse cx="144" cy="287" rx="21" ry="56" style="fill:rgb(161,127,74)" transform="rotate(262 144 287)"></ellipse>
<ellipse cx="432" cy="119" rx="123" ry="49" style="fill:rgb(239,245,245)" transform="rotate(24 432 119)"></ellipse>
<ellipse cx="367" cy="232" rx="79" ry="61" style="fill:rgb(233,222,230)" transform="rotate(181 367 232)"></ellipse>
<ellipse cx="118" cy="157" rx="14" ry="3" style="fill:rgb(137,127,53)" transform="rotate(146 118 157)"></ellipse>
<ellipse cx="75" cy="136" rx="30" ry="0" style="fill:rgb(30,144,38)" transform="rotate(290 75 136)"></ellipse>
<ellipse cx="248" cy="103" rx="9" ry="8" style="fill:rgb(137,54,18)" transform="rotate(183 248 103)"></ellipse>
<ellipse cx="156" cy="191" rx="11" ry="53" style="fill:rgb(202,143,82)" transform="rotate(340 156 191)"></ellipse>
<ellipse cx="118" cy="201" rx="0" ry="19" style="fill:rgb(234,183,166)" transform="rotate(151 118 201)"></ellipse>
<ellipse cx="116" cy="205" rx="48" ry="5" style="fill:rgb(176,110,131)" transform="rotate(139 116 205)"></ellipse>
<ellipse cx="68" cy="33" rx="6" ry="214" style="fill:rgb(217,217,225)" transform="rotate(87 68 33)"></ellipse>
<ellipse cx="366" cy="326" rx="44" ry="102" style="fill:rgb(234,251,254)" transform="rotate(134 366 326)"></ellipse>
<ellipse cx="96" cy="270" rx="8" ry="17" style="fill:rgb(192,117,153)" transform="rotate(1 96 270)"></ellipse>
<ellipse cx="124" cy="174" rx="9" ry="88" style="fill:rgb(176,125,83)" transform="rotate(321 124 174)"></ellipse>
<ellipse cx="427" cy="221" rx="389" ry="30" style="fill:rgb(64,91,149)" transform="rotate(288 427 221)"></ellipse>
<ellipse cx="62" cy="177" rx="0" ry="217" style="fill:rgb(244,223,165)" transform="rotate(158 62 177)"></ellipse>
<ellipse cx="416" cy="232" rx="372" ry="73" style="fill:rgb(254,241,238)" transform="rotate(251 416 232)"></ellipse>
<ellipse cx="377" cy="183" rx="48" ry="97" style="fill:rgb(236,242,239)" transform="rotate(250 377 183)"></ellipse>
<ellipse cx="187" cy="97" rx="5" ry="24" style="fill:rgb(218,97,146)" transform="rotate(286 187 97)"></ellipse>
<ellipse cx="220" cy="323" rx="71" ry="8" style="fill:rgb(120,54,60)" transform="rotate(268 220 323)"></ellipse>
<ellipse cx="74" cy="224" rx="12" ry="56" style="fill:rgb(238,214,217)" transform="rotate(148 74 224)"></ellipse>
<ellipse cx="346" cy="10" rx="77" ry="51" style="fill:rgb(254,247,248)" transform="rotate(224 346 10)"></ellipse>
<ellipse cx="288" cy="248" rx="84" ry="32" style="fill:rgb(235,218,251)" transform="rotate(122 288 248)"></ellipse>
<ellipse cx="396" cy="232" rx="118" ry="126" style="fill:rgb(230,255,232)" transform="rotate(214 396 232)"></ellipse>
<ellipse cx="51" cy="35" rx="387" ry="17" style="fill:rgb(239,226,243)" transform="rotate(344 51 35)"></ellipse>
<ellipse cx="132" cy="209" rx="64" ry="43" style="fill:rgb(190,152,77)" transform="rotate(68 132 209)"></ellipse>
<ellipse cx="198" cy="171" rx="76" ry="1" style="fill:rgb(222,124,98)" transform="rotate(288 198 171)"></ellipse>
<ellipse cx="219" cy="273" rx="6" ry="48" style="fill:rgb(146,130,99)" transform="rotate(337 219 273)"></ellipse>
<ellipse cx="262" cy="109" rx="3" ry="0" style="fill:rgb(119,133,53)" transform="rotate(1 262 109)"></ellipse>
<ellipse cx="183" cy="36" rx="7" ry="0" style="fill:rgb(193,215,103)" transform="rotate(179 183 36)"></ellipse>
<ellipse cx="204" cy="140" rx="5" ry="26" style="fill:rgb(209,127,123)" transform="rotate(171 204 140)"></ellipse>
<ellipse cx="397" cy="291" rx="394" ry="9" style="fill:rgb(115,101,161)" transform="rotate(296 397 291)"></ellipse>
<ellipse cx="232" cy="226" rx="6" ry="21" style="fill:rgb(176,134,115)" transform="rotate(176 232 226)"></ellipse>
<ellipse cx="0" cy="291" rx="8" ry="109" style="fill:rgb(244,181,201)" transform="rotate(267 0 291)"></ellipse>
<ellipse cx="73" cy="153" rx="14" ry="0" style="fill:rgb(91,107,69)" transform="rotate(122 73 153)"></ellipse>
<ellipse cx="267" cy="280" rx="30" ry="14" style="fill:rgb(225,235,251)" transform="rotate(16 267 280)"></ellipse>
<ellipse cx="353" cy="320" rx="171" ry="21" style="fill:rgb(239,244,252)" transform="rotate(259 353 320)"></ellipse>
<ellipse cx="250" cy="217" rx="10" ry="3" style="fill:rgb(100,92,95)" transform="rotate(271 250 217)"></ellipse>
<ellipse cx="244" cy="326" rx="21" ry="45" style="fill:rgb(134,111,117)" transform="rotate(143 244 326)"></ellipse>
<ellipse cx="305" cy="97" rx="144" ry="0" style="fill:rgb(233,251,173)" transform="rotate(110 305 97)"></ellipse>
<ellipse cx="185" cy="178" rx="12" ry="18" style="fill:rgb(180,140,106)" transform="rotate(158 185 178)"></ellipse>
<ellipse cx="400" cy="214" rx="164" ry="1" style="fill:rgb(143,101,169)" transform="rotate(113 400 214)"></ellipse>
<ellipse cx="103" cy="165" rx="21" ry="10" style="fill:rgb(159,137,86)" transform="rotate(121 103 165)"></ellipse>
<ellipse cx="125" cy="333" rx="30" ry="27" style="fill:rgb(163,123,147)" transform="rotate(356 125 333)"></ellipse>
<ellipse cx="126" cy="232" rx="59" ry="29" style="fill:rgb(200,119,71)" transform="rotate(55 126 232)"></ellipse>
<ellipse cx="191" cy="157" rx="19" ry="19" style="fill:rgb(195,62,61)" transform="rotate(194 191 157)"></ellipse>
<ellipse cx="304" cy="40" rx="342" ry="7" style="fill:rgb(242,244,221)" transform="rotate(183 304 40)"></ellipse>
<ellipse cx="144" cy="332" rx="124" ry="10" style="fill:rgb(150,135,81)" transform="rotate(87 144 332)"></ellipse>
<ellipse cx="435" cy="302" rx="385" ry="7" style="fill:rgb(106,87,169)" transform="rotate(144 435 302)"></ellipse>
<ellipse cx="101" cy="285" rx="43" ry="6" style="fill:rgb(161,141,137)" transform="rotate(86 101 285)"></ellipse>
<ellipse cx="397" cy="0" rx="278" ry="84" style="fill:rgb(255,245,253)" transform="rotate(103 397 0)"></ellipse>
<ellipse cx="244" cy="110" rx="6" ry="43" style="fill:rgb(11,46,60)" transform="rotate(334 244 110)"></ellipse>
<ellipse cx="447" cy="305" rx="9" ry="126" style="fill:rgb(190,172,248)" transform="rotate(243 447 305)"></ellipse>
<ellipse cx="92" cy="318" rx="28" ry="12" style="fill:rgb(143,143,144)" transform="rotate(187 92 318)"></ellipse>
<ellipse cx="188" cy="124" rx="27" ry="21" style="fill:rgb(190,226,100)" transform="rotate(24 188 124)"></ellipse>
<ellipse cx="183" cy="136" rx="15" ry="53" style="fill:rgb(233,161,83)" transform="rotate(265 183 136)"></ellipse>
<ellipse cx="30" cy="42" rx="26" ry="53" style="fill:rgb(247,238,244)" transform="rotate(168 30 42)"></ellipse>
<ellipse cx="357" cy="159" rx="74" ry="31" style="fill:rgb(241,248,229)" transform="rotate(336 357 159)"></ellipse>
<ellipse cx="154" cy="249" rx="21" ry="3" style="fill:rgb(197,107,108)" transform="rotate(156 154 249)"></ellipse>
<ellipse cx="109" cy="80" rx="16" ry="9" style="fill:rgb(138,136,121)" transform="rotate(84 109 80)"></ellipse>
<ellipse cx="369" cy="216" rx="67" ry="108" style="fill:rgb(229,226,246)" transform="rotate(262 369 216)"></ellipse>
<ellipse cx="142" cy="269" rx="16" ry="20" style="fill:rgb(200,145,132)" transform="rotate(290 142 269)"></ellipse>
<ellipse cx="116" cy="67" rx="7" ry="1" style="fill:rgb(65,5,238)" transform="rotate(260 116 67)"></ellipse>
<ellipse cx="377" cy="276" rx="261" ry="42" style="fill:rgb(254,255,249)" transform="rotate(81 377 276)"></ellipse>
<ellipse cx="366" cy="71" rx="8" ry="78" style="fill:rgb(238,245,252)" transform="rotate(33 366 71)"></ellipse>
<ellipse cx="211" cy="21" rx="17" ry="110" style="fill:rgb(237,229,245)" transform="rotate(268 211 21)"></ellipse>
<ellipse cx="292" cy="73" rx="389" ry="22" style="fill:rgb(242,234,234)" transform="rotate(31 292 73)"></ellipse>
<ellipse cx="258" cy="104" rx="4" ry="2" style="fill:rgb(205,25,8)" transform="rotate(344 258 104)"></ellipse>
<ellipse cx="124" cy="311" rx="39" ry="10" style="fill:rgb(181,129,141)" transform="rotate(233 124 311)"></ellipse>
<ellipse cx="300" cy="201" rx="25" ry="52" style="fill:rgb(239,254,226)" transform="rotate(233 300 201)"></ellipse>
<ellipse cx="401" cy="295" rx="2" ry="297" style="fill:rgb(61,80,130)" transform="rotate(222 401 295)"></ellipse>
<ellipse cx="215" cy="319" rx="5" ry="2" style="fill:rgb(145,100,33)" transform="rotate(291 215 319)"></ellipse>
<ellipse cx="448" cy="41" rx="26" ry="157" style="fill:rgb(238,246,251)" transform="rotate(54 448 41)"></ellipse>
<ellipse cx="3" cy="152" rx="28" ry="77" style="fill:rgb(234,255,243)" transform="rotate(241 3 152)"></ellipse>
<ellipse cx="133" cy="208" rx="44" ry="28" style="fill:rgb(205,110,142)" transform="rotate(148 133 208)"></ellipse>
<ellipse cx="424" cy="239" rx="35" ry="272" style="fill:rgb(62,112,144)" transform="rotate(19 424 239)"></ellipse>
<ellipse cx="31" cy="302" rx="13" ry="0" style="fill:rgb(216,223,220)" transform="rotate(61 31 302)"></ellipse>
<ellipse cx="7" cy="99" rx="59" ry="123" style="fill:rgb(246,235,230)" transform="rotate(214 7 99)"></ellipse>
<ellipse cx="8" cy="289" rx="17" ry="19" style="fill:rgb(203,241,243)" transform="rotate(309 8 289)"></ellipse>
<ellipse cx="206" cy="167" rx="12" ry="3" style="fill:rgb(104,96,145)" transform="rotate(299 206 167)"></ellipse>
<ellipse cx="99" cy="88" rx="1" ry="27" style="fill:rgb(93,132,118)" transform="rotate(57 99 88)"></ellipse>
<ellipse cx="78" cy="246" rx="49" ry="11" style="fill:rgb(255,248,251)" transform="rotate(262 78 246)"></ellipse>
<ellipse cx="79" cy="203" rx="27" ry="4" style="fill:rgb(214,110,42)" transform="rotate(93 79 203)"></ellipse>
<ellipse cx="337" cy="76" rx="202" ry="18" style="fill:rgb(249,255,231)" transform="rotate(46 337 76)"></ellipse>
<ellipse cx="426" cy="182" rx="148" ry="216" style="fill:rgb(242,250,232)" transform="rotate(191 426 182)"></ellipse>
<ellipse cx="436" cy="310" rx="2" ry="123" style="fill:rgb(210,228,183)" transform="rotate(246 436 310)"></ellipse>
<ellipse cx="132" cy="156" rx="37" ry="4" style="fill:rgb(214,80,61)" transform="rotate(32 132 156)"></ellipse>
<ellipse cx="142" cy="72" rx="5" ry="18" style="fill:rgb(53,77,25)" transform="rotate(78 142 72)"></ellipse>
<ellipse cx="1" cy="321" rx="4" ry="152" style="fill:rgb(131,178,166)" transform="rotate(167 1 321)"></ellipse>
<ellipse cx="359" cy="17" rx="114" ry="291" style="fill:rgb(248,240,241)" transform="rotate(315 359 17)"></ellipse>
<ellipse cx="225" cy="160" rx="30" ry="7" style="fill:rgb(122,98,101)" transform="rotate(160 225 160)"></ellipse>
<ellipse cx="402" cy="336" rx="22" ry="126" style="fill:rgb(79,95,124)" transform="rotate(36 402 336)"></ellipse>
<ellipse cx="173" cy="104" rx="14" ry="73" style="fill:rgb(207,112,99)" transform="rotate(104 173 104)"></ellipse>
<ellipse cx="123" cy="271" rx="5" ry="28" style="fill:rgb(185,116,90)" transform="rotate(204 123 271)"></ellipse>
<ellipse cx="414" cy="173" rx="152" ry="142" style="fill:rgb(234,250,250)" transform="rotate(131 414 173)"></ellipse>
<ellipse cx="133" cy="58" rx="12" ry="8" style="fill:rgb(139,29,30)" transform="rotate(105 133 58)"></ellipse>
<ellipse cx="87" cy="129" rx="21" ry="0" style="fill:rgb(43,56,106)" transform="rotate(279 87 129)"></ellipse>
<ellipse cx="144" cy="96" rx="32" ry="16" style="fill:rgb(171,157,136)" transform="rotate(187 144 96)"></ellipse>
<ellipse cx="250" cy="146" rx="55" ry="18" style="fill:rgb(142,37,36)" transform="rotate(265 250 146)"></ellipse>
<ellipse cx="406" cy="21" rx="221" ry="128" style="fill:rgb(240,248,239)" transform="rotate(33 406 21)"></ellipse>
<ellipse cx="130" cy="328" rx="31" ry="19" style="fill:rgb(209,178,143)" transform="rotate(72 130 328)"></ellipse>
<ellipse cx="44" cy="277" rx="16" ry="0" style="fill:rgb(243,220,215)" transform="rotate(113 44 277)"></ellipse>
<ellipse cx="423" cy="221" rx="6" ry="199" style="fill:rgb(166,120,151)" transform="rotate(30 423 221)"></ellipse>
<ellipse cx="141" cy="302" rx="5" ry="2" style="fill:rgb(91,22,107)" transform="rotate(51 141 302)"></ellipse>
<ellipse cx="143" cy="156" rx="8" ry="0" style="fill:rgb(154,173,20)" transform="rotate(57 143 156)"></ellipse>
<ellipse cx="211" cy="114" rx="7" ry="18" style="fill:rgb(195,131,97)" transform="rotate(52 211 114)"></ellipse>
<ellipse cx="149" cy="208" rx="4" ry="18" style="fill:rgb(250,173,133)" transform="rotate(275 149 208)"></ellipse>
<ellipse cx="255" cy="150" rx="4" ry="19" style="fill:rgb(104,41,59)" transform="rotate(189 255 150)"></ellipse>
<ellipse cx="224" cy="332" rx="15" ry="27" style="fill:rgb(115,99,63)" transform="rotate(153 224 332)"></ellipse>
<ellipse cx="137" cy="308" rx="15" ry="15" style="fill:rgb(103,115,50)" transform="rotate(294 137 308)"></ellipse>
<ellipse cx="156" cy="72" rx="5" ry="21" style="fill:rgb(115,58,37)" transform="rotate(264 156 72)"></ellipse>
<ellipse cx="161" cy="138" rx="19" ry="23" style="fill:rgb(225,194,156)" transform="rotate(314 161 138)"></ellipse>
<ellipse cx="68" cy="99" rx="15" ry="11" style="fill:rgb(215,246,222)" transform="rotate(251 68 99)"></ellipse>
<ellipse cx="305" cy="35" rx="30" ry="260" style="fill:rgb(244,245,238)" transform="rotate(143 305 35)"></ellipse>
<ellipse cx="369" cy="313" rx="402" ry="9" style="fill:rgb(75,104,148)" transform="rotate(114 369 313)"></ellipse>
<ellipse cx="393" cy="139" rx="4" ry="325" style="fill:rgb(243,238,238)" transform="rotate(120 393 139)"></ellipse>
<ellipse cx="437" cy="160" rx="237" ry="5" style="fill:rgb(232,226,253)" transform="rotate(131 437 160)"></ellipse>
<ellipse cx="47" cy="211" rx="18" ry="61" style="fill:rgb(224,244,225)" transform="rotate(129 47 211)"></ellipse>
<ellipse cx="107" cy="216" rx="42" ry="3" style="fill:rgb(211,184,106)" transform="rotate(203 107 216)"></ellipse>
<ellipse cx="174" cy="21" rx="120" ry="4" style="fill:rgb(233,248,235)" transform="rotate(35 174 21)"></ellipse>
<ellipse cx="410" cy="332" rx="429" ry="18" style="fill:rgb(116,93,99)" transform="rotate(331 410 332)"></ellipse>
<ellipse cx="185" cy="248" rx="10" ry="9" style="fill:rgb(150,79,91)" transform="rotate(32 185 248)"></ellipse>
<ellipse cx="140" cy="199" rx="30" ry="4" style="fill:rgb(230,158,106)" transform="rotate(17 140 199)"></ellipse>
<ellipse cx="94" cy="98" rx="11" ry="15" style="fill:rgb(79,33,101)" transform="rotate(201 94 98)"></ellipse>
<ellipse cx="69" cy="180" rx="0" ry="3" style="fill:rgb(79,67,52)" transform="rotate(244 69 180)"></ellipse>
<ellipse cx="243" cy="100" rx="0" ry="9" style="fill:rgb(8,38,3)" transform="rotate(345 243 100)"></ellipse>
<ellipse cx="144" cy="335" rx="8" ry="19" style="fill:rgb(187,175,104)" transform="rotate(2 144 335)"></ellipse>
<ellipse cx="269" cy="160" rx="15" ry="0" style="fill:rgb(244,79,241)" transform="rotate(89 269 160)"></ellipse>
<ellipse cx="117" cy="64" rx="8" ry="5" style="fill:rgb(170,13,233)" transform="rotate(106 117 64)"></ellipse>
<ellipse cx="247" cy="279" rx="23" ry="18" style="fill:rgb(224,246,235)" transform="rotate(109 247 279)"></ellipse>
<ellipse cx="434" cy="271" rx="16" ry="200" style="fill:rgb(86,84,102)" transform="rotate(29 434 271)"></ellipse>
<ellipse cx="346" cy="176" rx="24" ry="336" style="fill:rgb(244,250,241)" transform="rotate(332 346 176)"></ellipse>
<ellipse cx="48" cy="236" rx="69" ry="31" style="fill:rgb(252,251,221)" transform="rotate(46 48 236)"></ellipse>
<ellipse cx="435" cy="316" rx="160" ry="9" style="fill:rgb(73,103,126)" transform="rotate(334 435 316)"></ellipse>
<ellipse cx="187" cy="124" rx="16" ry="17" style="fill:rgb(251,119,127)" transform="rotate(50 187 124)"></ellipse>
<ellipse cx="249" cy="113" rx="11" ry="1" style="fill:rgb(68,69,9)" transform="rotate(309 249 113)"></ellipse>
<ellipse cx="48" cy="330" rx="86" ry="9" style="fill:rgb(110,163,161)" transform="rotate(349 48 330)"></ellipse>
<ellipse cx="93" cy="118" rx="72" ry="8" style="fill:rgb(161,56,18)" transform="rotate(294 93 118)"></ellipse>
<ellipse cx="110" cy="196" rx="16" ry="6" style="fill:rgb(233,201,146)" transform="rotate(183 110 196)"></ellipse>
<ellipse cx="157" cy="247" rx="36" ry="43" style="fill:rgb(212,127,95)" transform="rotate(265 157 247)"></ellipse>
<ellipse cx="201" cy="308" rx="40" ry="2" style="fill:rgb(132,50,80)" transform="rotate(38 201 308)"></ellipse>
<ellipse cx="329" cy="223" rx="54" ry="33" style="fill:rgb(232,238,233)" transform="rotate(268 329 223)"></ellipse>
<ellipse cx="199" cy="99" rx="2" ry="5" style="fill:rgb(196,106,13)" transform="rotate(70 199 99)"></ellipse>
<ellipse cx="44" cy="176" rx="159" ry="10" style="fill:rgb(229,232,227)" transform="rotate(276 44 176)"></ellipse>
<ellipse cx="108" cy="114" rx="38" ry="3" style="fill:rgb(175,168,52)" transform="rotate(282 108 114)"></ellipse>
<ellipse cx="364" cy="313" rx="4" ry="106" style="fill:rgb(134,121,148)" transform="rotate(216 364 313)"></ellipse>
<ellipse cx="282" cy="310" rx="27" ry="3" style="fill:rgb(220,213,206)" transform="rotate(283 282 310)"></ellipse>
<ellipse cx="400" cy="3" rx="165" ry="287" style="fill:rgb(247,252,240)" transform="rotate(318 400 3)"></ellipse>
<ellipse cx="87" cy="193" rx="0" ry="9" style="fill:rgb(80,85,70)" transform="rotate(166 87 193)"></ellipse>
<ellipse cx="367" cy="306" rx="43" ry="92" style="fill:rgb(224,219,222)" transform="rotate(358 367 306)"></ellipse>
<ellipse cx="85" cy="329" rx="12" ry="94" style="fill:rgb(134,135,120)" transform="rotate(264 85 329)"></ellipse>
<ellipse cx="392" cy="273" rx="96" ry="86" style="fill:rgb(238,249,228)" transform="rotate(162 392 273)"></ellipse>
<ellipse cx="80" cy="131" rx="3" ry="13" style="fill:rgb(12,141,56)" transform="rotate(33 80 131)"></ellipse>
<ellipse cx="143" cy="106" rx="9" ry="7" style="fill:rgb(253,179,152)" transform="rotate(196 143 106)"></ellipse>
<ellipse cx="152" cy="193" rx="30" ry="19" style="fill:rgb(223,139,122)" transform="rotate(160 152 193)"></ellipse>
<ellipse cx="347" cy="16" rx="115" ry="298" style="fill:rgb(253,236,233)" transform="rotate(162 347 16)"></ellipse>
<ellipse cx="175" cy="89" rx="1" ry="2" style="fill:rgb(196,129,58)" transform="rotate(355 175 89)"></ellipse>
<ellipse cx="70" cy="118" rx="1" ry="3" style="fill:rgb(220,224,197)" transform="rotate(168 70 118)"></ellipse>
<ellipse cx="372" cy="43" rx="247" ry="43" style="fill:rgb(236,239,241)" transform="rotate(106 372 43)"></ellipse>
<ellipse cx="225" cy="82" rx="12" ry="28" style="fill:rgb(57,25,37)" transform="rotate(314 225 82)"></ellipse>
<ellipse cx="176" cy="300" rx="13" ry="17" style="fill:rgb(89,9,59)" transform="rotate(55 176 300)"></ellipse>
<ellipse cx="343" cy="10" rx="95" ry="149" style="fill:rgb(250,247,247)" transform="rotate(315 343 10)"></ellipse>
<ellipse cx="62" cy="336" rx="3" ry="3" style="fill:rgb(89,111,162)" transform="rotate(353 62 336)"></ellipse>
<ellipse cx="109" cy="318" rx="27" ry="1" style="fill:rgb(231,182,105)" transform="rotate(63 109 318)"></ellipse>
<ellipse cx="237" cy="330" rx="5" ry="62" style="fill:rgb(91,76,88)" transform="rotate(165 237 330)"></ellipse>
<ellipse cx="12" cy="228" rx="32" ry="73" style="fill:rgb(229,248,238)" transform="rotate(223 12 228)"></ellipse>
<ellipse cx="82" cy="330" rx="54" ry="9" style="fill:rgb(130,140,142)" transform="rotate(300 82 330)"></ellipse>
<ellipse cx="94" cy="135" rx="3" ry="4" style="fill:rgb(131,121,76)" transform="rotate(255 94 135)"></ellipse>
<ellipse cx="251" cy="132" rx="10" ry="5" style="fill:rgb(104,80,48)" transform="rotate(319 251 132)"></ellipse>
<ellipse cx="245" cy="228" rx="3" ry="36" style="fill:rgb(164,87,87)" transform="rotate(40 245 228)"></ellipse>
<ellipse cx="239" cy="228" rx="1" ry="82" style="fill:rgb(97,70,48)" transform="rotate(21 239 228)"></ellipse>
<ellipse cx="410" cy="314" rx="259" ry="13" style="fill:rgb(85,92,159)" transform="rotate(129 410 314)"></ellipse>
<ellipse cx="125" cy="335" rx="4" ry="28" style="fill:rgb(215,154,140)" transform="rotate(278 125 335)"></ellipse>
<ellipse cx="123" cy="171" rx="26" ry="3" style="fill:rgb(164,85,82)" transform="rotate(142 123 171)"></ellipse>
<ellipse cx="133" cy="244" rx="32" ry="8" style="fill:rgb(207,100,46)" transform="rotate(35 133 244)"></ellipse>
<ellipse cx="409" cy="219" rx="126" ry="133" style="fill:rgb(244,244,242)" transform="rotate(137 409 219)"></ellipse>
<ellipse cx="439" cy="183" rx="398" ry="9" style="fill:rgb(73,96,117)" transform="rotate(112 439 183)"></ellipse>
<ellipse cx="10" cy="49" rx="18" ry="182" style="fill:rgb(246,240,247)" transform="rotate(352 10 49)"></ellipse>
<ellipse cx="215" cy="246" rx="17" ry="27" style="fill:rgb(215,117,80)" transform="rotate(184 215 246)"></ellipse>
<ellipse cx="96" cy="99" rx="10" ry="11" style="fill:rgb(146,51,66)" transform="rotate(231 96 99)"></ellipse>
<ellipse cx="176" cy="60" rx="26" ry="10" style="fill:rgb(127,76,56)" transform="rotate(276 176 60)"></ellipse>
<ellipse cx="14" cy="122" rx="29" ry="214" style="fill:rgb(253,248,217)" transform="rotate(46 14 122)"></ellipse>
<ellipse cx="170" cy="114" rx="2" ry="13" style="fill:rgb(203,246,211)" transform="rotate(129 170 114)"></ellipse>
<ellipse cx="202" cy="167" rx="24" ry="21" style="fill:rgb(140,45,63)" transform="rotate(157 202 167)"></ellipse>
<ellipse cx="161" cy="104" rx="11" ry="17" style="fill:rgb(204,193,183)" transform="rotate(203 161 104)"></ellipse>
<ellipse cx="166" cy="131" rx="12" ry="17" style="fill:rgb(224,193,151)" transform="rotate(171 166 131)"></ellipse>
<ellipse cx="136" cy="155" rx="11" ry="18" style="fill:rgb(172,85,47)" transform="rotate(324 136 155)"></ellipse>
<ellipse cx="115" cy="44" rx="113" ry="13" style="fill:rgb(213,250,241)" transform="rotate(163 115 44)"></ellipse>
<ellipse cx="447" cy="318" rx="211" ry="9" style="fill:rgb(235,248,254)" transform="rotate(2 447 318)"></ellipse>
<ellipse cx="406" cy="249" rx="10" ry="218" style="fill:rgb(91,93,171)" transform="rotate(27 406 249)"></ellipse>
<ellipse cx="421" cy="277" rx="8" ry="168" style="fill:rgb(125,129,116)" transform="rotate(42 421 277)"></ellipse>
<ellipse cx="144" cy="83" rx="14" ry="5" style="fill:rgb(139,140,129)" transform="rotate(343 144 83)"></ellipse>
<ellipse cx="179" cy="182" rx="1" ry="14" style="fill:rgb(234,119,23)" transform="rotate(67 179 182)"></ellipse>
<ellipse cx="27" cy="99" rx="22" ry="47" style="fill:rgb(231,252,244)" transform="rotate(295 27 99)"></ellipse>
<ellipse cx="109" cy="2" rx="44" ry="26" style="fill:rgb(232,242,242)" transform="rotate(270 109 2)"></ellipse>
<ellipse cx="197" cy="185" rx="1" ry="8" style="fill:rgb(182,230,85)" transform="rotate(190 197 185)"></ellipse>
<ellipse cx="367" cy="30" rx="151" ry="30" style="fill:rgb(246,248,242)" transform="rotate(23 367 30)"></ellipse>
<ellipse cx="127" cy="165" rx="6" ry="7" style="fill:rgb(58,78,15)" transform="rotate(108 127 165)"></ellipse>
<ellipse cx="225" cy="70" rx="1" ry="17" style="fill:rgb(94,104,57)" transform="rotate(112 225 70)"></ellipse>
<ellipse cx="210" cy="201" rx="27" ry="13" style="fill:rgb(244,165,97)" transform="rotate(205 210 201)"></ellipse>
<ellipse cx="362" cy="186" rx="243" ry="65" style="fill:rgb(247,247,242)" transform="rotate(253 362 186)"></ellipse>
<ellipse cx="224" cy="166" rx="1" ry="20" style="fill:rgb(132,87,67)" transform="rotate(129 224 166)"></ellipse>
<ellipse cx="96" cy="2" rx="110" ry="53" style="fill:rgb(244,232,235)" transform="rotate(333 96 2)"></ellipse>
</svg>