<svg><ellipse cx="456" cy="205" rx="322" ry="509" style="fill:rgb(14,66,116)" transform="rotate(264 456 205)"></ellipse>
<ellipse cx="292" cy="253" rx="409" ry="18" style="fill:rgb(53,40,47)" transform="rotate(95 292 253)"></ellipse>
<ellipse cx="48" cy="268" rx="137" ry="247" style="fill:rgb(37,71,110)" transform="rotate(159 48 268)"></ellipse>
<ellipse cx="326" cy="511" rx="25" ry="260" style="fill:rgb(8,23,59)" transform="rotate(78 326 511)"></ellipse>
<ellipse cx="506" cy="149" rx="384" ry="327" style="fill:rgb(28,52,101)" transform="rotate(33 506 149)"></ellipse>
<ellipse cx="333" cy="100" rx="349" ry="51" style="fill:rgb(55,73,56)" transform="rotate(92 333 100)"></ellipse>
<ellipse cx="123" cy="240" rx="122" ry="74" style="fill:rgb(67,55,127)" transform="rotate(137 123 240)"></ellipse>
<ellipse cx="323" cy="313" rx="52" ry="357" style="fill:rgb(41,5,65)" transform="rotate(193 323 313)"></ellipse>
<ellipse cx="378" cy="77" rx="28" ry="7" style="fill:rgb(9,114,117)" transform="rotate(109 378 77)"></ellipse>
<ellipse cx="102" cy="447" rx="25" ry="50" style="fill:rgb(45,113,157)" transform="rotate(191 102 447)"></ellipse>
<ellipse cx="481" cy="93" rx="131" ry="5" style="fill:rgb(28,99,158)" transform="rotate(190 481 93)"></ellipse>
<ellipse cx="417" cy="371" rx="63" ry="388" style="fill:rgb(39,68,96)" transform="rotate(7 417 371)"></ellipse>
<ellipse cx="464" cy="167" rx="432" ry="98" style="fill:rgb(61,59,104)" transform="rotate(215 464 167)"></ellipse>
<ellipse cx="337" cy="108" rx="14" ry="23" style="fill:rgb(25,85,25)" transform="rotate(349 337 108)"></ellipse>
<ellipse cx="207" cy="40" rx="295" ry="124" style="fill:rgb(46,84,132)" transform="rotate(123 207 40)"></ellipse>
<ellipse cx="142" cy="119" rx="16" ry="53" style="fill:rgb(69,66,149)" transform="rotate(205 142 119)"></ellipse>
<ellipse cx="3" cy="9" rx="259" ry="13" style="fill:rgb(70,2,76)" transform="rotate(91 3 9)"></ellipse>
<ellipse cx="160" cy="373" rx="15" ry="187" style="fill:rgb(68,71,166)" transform="rotate(321 160 373)"></ellipse>
<ellipse cx="161" cy="347" rx="18" ry="97" style="fill:rgb(70,109,189)" transform="rotate(115 161 347)"></ellipse>
<ellipse cx="440" cy="78" rx="18" ry="359" style="fill:rgb(49,33,27)" transform="rotate(48 440 78)"></ellipse>
<ellipse cx="441" cy="88" rx="82" ry="60" style="fill:rgb(52,36,77)" transform="rotate(351 441 88)"></ellipse>
<ellipse cx="358" cy="11" rx="256" ry="57" style="fill:rgb(57,23,84)" transform="rotate(186 358 11)"></ellipse>
<ellipse cx="482" cy="503" rx="34" ry="39" style="fill:rgb(42,12,18)" transform="rotate(124 482 503)"></ellipse>
<ellipse cx="468" cy="467" rx="17" ry="34" style="fill:rgb(49,86,121)" transform="rotate(317 468 467)"></ellipse>
<ellipse cx="487" cy="100" rx="469" ry="97" style="fill:rgb(38,76,92)" transform="rotate(72 487 100)"></ellipse>
<ellipse cx="443" cy="227" rx="46" ry="181" style="fill:rgb(28,52,124)" transform="rotate(29 443 227)"></ellipse>
<ellipse cx="391" cy="424" rx="64" ry="41" style="fill:rgb(114,91,117)" transform="rotate(274 391 424)"></ellipse>
<ellipse cx="484" cy="240" rx="4" ry="63" style="fill:rgb(43,37,135)" transform="rotate(3 484 240)"></ellipse>
<ellipse cx="472" cy="321" rx="37" ry="11" style="fill:rgb(58,91,135)" transform="rotate(170 472 321)"></ellipse>
<ellipse cx="126" cy="250" rx="95" ry="101" style="fill:rgb(63,100,141)" transform="rotate(349 126 250)"></ellipse>
<ellipse cx="388" cy="290" rx="5" ry="29" style="fill:rgb(40,42,57)" transform="rotate(58 388 290)"></ellipse>
<ellipse cx="454" cy="415" rx="18" ry="27" style="fill:rgb(10,96,135)" transform="rotate(214 454 415)"></ellipse>
<ellipse cx="356" cy="227" rx="11" ry="5" style="fill:rgb(86,104,187)" transform="rotate(254 356 227)"></ellipse>
<ellipse cx="511" cy="196" rx="34" ry="10" style="fill:rgb(3,88,19)" transform="rotate(194 511 196)"></ellipse>
<ellipse cx="74" cy="442" rx="212" ry="34" style="fill:rgb(66,85,136)" transform="rotate(182 74 442)"></ellipse>
<ellipse cx="1" cy="404" rx="34" ry="11" style="fill:rgb(67,104,5)" transform="rotate(49 1 404)"></ellipse>
<ellipse cx="496" cy="5" rx="207" ry="19" style="fill:rgb(36,94,40)" transform="rotate(28 496 5)"></ellipse>
<ellipse cx="419" cy="424" rx="70" ry="61" style="fill:rgb(25,97,171)" transform="rotate(261 419 424)"></ellipse>
<ellipse cx="500" cy="0" rx="49" ry="272" style="fill:rgb(67,52,30)" transform="rotate(156 500 0)"></ellipse>
<ellipse cx="309" cy="235" rx="330" ry="37" style="fill:rgb(28,19,32)" transform="rotate(93 309 235)"></ellipse>
<ellipse cx="424" cy="47" rx="31" ry="300" style="fill:rgb(50,81,115)" transform="rotate(2 424 47)"></ellipse>
<ellipse cx="510" cy="411" rx="3" ry="427" style="fill:rgb(59,80,35)" transform="rotate(359 510 411)"></ellipse>
<ellipse cx="334" cy="55" rx="11" ry="173" style="fill:rgb(66,148,102)" transform="rotate(233 334 55)"></ellipse>
<ellipse cx="329" cy="24" rx="28" ry="86" style="fill:rgb(11,50,109)" transform="rotate(39 329 24)"></ellipse>
<ellipse cx="460" cy="100" rx="28" ry="65" style="fill:rgb(40,56,152)" transform="rotate(200 460 100)"></ellipse>
<ellipse cx="417" cy="12" rx="206" ry="9" style="fill:rgb(31,55,70)" transform="rotate(180 417 12)"></ellipse>
<ellipse cx="106" cy="49" rx="213" ry="14" style="fill:rgb(68,65,147)" transform="rotate(179 106 49)"></ellipse>
<ellipse cx="2" cy="402" rx="59" ry="11" style="fill:rgb(82,7,70)" transform="rotate(104 2 402)"></ellipse>
<ellipse cx="4" cy="24" rx="46" ry="80" style="fill:rgb(44,24,57)" transform="rotate(66 4 24)"></ellipse>
<ellipse cx="511" cy="430" rx="443" ry="15" style="fill:rgb(54,12,13)" transform="rotate(112 511 430)"></ellipse>
<ellipse cx="111" cy="141" rx="32" ry="361" style="fill:rgb(32,110,151)" transform="rotate(250 111 141)"></ellipse>
<ellipse cx="8" cy="96" rx="420" ry="21" style="fill:rgb(82,9,19)" transform="rotate(103 8 96)"></ellipse>
<ellipse cx="9" cy="18" rx="52" ry="5" style="fill:rgb(48,58,11)" transform="rotate(239 9 18)"></ellipse>
<ellipse cx="430" cy="437" rx="44" ry="46" style="fill:rgb(46,88,162)" transform="rotate(222 430 437)"></ellipse>
<ellipse cx="71" cy="209" rx="147" ry="45" style="fill:rgb(56,68,151)" transform="rotate(267 71 209)"></ellipse>
<ellipse cx="14" cy="161" rx="19" ry="85" style="fill:rgb(47,58,27)" transform="rotate(356 14 161)"></ellipse>
<ellipse cx="155" cy="52" rx="212" ry="5" style="fill:rgb(61,97,135)" transform="rotate(1 155 52)"></ellipse>
<ellipse cx="469" cy="316" rx="23" ry="69" style="fill:rgb(75,100,125)" transform="rotate(167 469 316)"></ellipse>
<ellipse cx="338" cy="504" rx="37" ry="39" style="fill:rgb(1,40,24)" transform="rotate(277 338 504)"></ellipse>
<ellipse cx="115" cy="401" rx="38" ry="14" style="fill:rgb(64,95,137)" transform="rotate(75 115 401)"></ellipse>
<ellipse cx="73" cy="14" rx="0" ry="247" style="fill:rgb(55,104,93)" transform="rotate(62 73 14)"></ellipse>
<ellipse cx="8" cy="273" rx="175" ry="7" style="fill:rgb(29,42,78)" transform="rotate(257 8 273)"></ellipse>
<ellipse cx="234" cy="139" rx="16" ry="209" style="fill:rgb(71,95,152)" transform="rotate(47 234 139)"></ellipse>
<ellipse cx="509" cy="176" rx="14" ry="104" style="fill:rgb(87,40,5)" transform="rotate(181 509 176)"></ellipse>
<ellipse cx="411" cy="5" rx="7" ry="350" style="fill:rgb(63,2,87)" transform="rotate(277 411 5)"></ellipse>
<ellipse cx="102" cy="429" rx="54" ry="70" style="fill:rgb(59,92,176)" transform="rotate(266 102 429)"></ellipse>
<ellipse cx="25" cy="40" rx="61" ry="12" style="fill:rgb(63,64,41)" transform="rotate(165 25 40)"></ellipse>
<ellipse cx="438" cy="183" rx="46" ry="30" style="fill:rgb(87,103,122)" transform="rotate(77 438 183)"></ellipse>
<ellipse cx="440" cy="95" rx="27" ry="8" style="fill:rgb(73,117,168)" transform="rotate(236 440 95)"></ellipse>
<ellipse cx="57" cy="341" rx="18" ry="2" style="fill:rgb(89,78,167)" transform="rotate(184 57 341)"></ellipse>
<ellipse cx="437" cy="314" rx="10" ry="38" style="fill:rgb(77,96,121)" transform="rotate(341 437 314)"></ellipse>
<ellipse cx="447" cy="249" rx="139" ry="24" style="fill:rgb(90,111,122)" transform="rotate(105 447 249)"></ellipse>
<ellipse cx="223" cy="80" rx="17" ry="96" style="fill:rgb(74,85,141)" transform="rotate(238 223 80)"></ellipse>
<ellipse cx="254" cy="30" rx="11" ry="25" style="fill:rgb(29,85,84)" transform="rotate(67 254 30)"></ellipse>
<ellipse cx="454" cy="6" rx="15" ry="433" style="fill:rgb(29,10,89)" transform="rotate(135 454 6)"></ellipse>
<ellipse cx="240" cy="209" rx="33" ry="10" style="fill:rgb(59,101,98)" transform="rotate(247 240 209)"></ellipse>
<ellipse cx="141" cy="201" rx="208" ry="6" style="fill:rgb(76,87,156)" transform="rotate(127 141 201)"></ellipse>
<ellipse cx="437" cy="249" rx="167" ry="7" style="fill:rgb(57,103,192)" transform="rotate(277 437 249)"></ellipse>
<ellipse cx="140" cy="117" rx="11" ry="98" style="fill:rgb(44,99,167)" transform="rotate(222 140 117)"></ellipse>
<ellipse cx="18" cy="10" rx="75" ry="369" style="fill:rgb(35,32,95)" transform="rotate(54 18 10)"></ellipse>
<ellipse cx="412" cy="432" rx="25" ry="47" style="fill:rgb(64,80,148)" transform="rotate(27 412 432)"></ellipse>
<ellipse cx="450" cy="361" rx="42" ry="81" style="fill:rgb(61,96,146)" transform="rotate(20 450 361)"></ellipse>
<ellipse cx="224" cy="190" rx="23" ry="19" style="fill:rgb(52,73,126)" transform="rotate(307 224 190)"></ellipse>
<ellipse cx="188" cy="345" rx="5" ry="46" style="fill:rgb(39,129,139)" transform="rotate(258 188 345)"></ellipse>
<ellipse cx="58" cy="8" rx="418" ry="54" style="fill:rgb(21,38,84)" transform="rotate(329 58 8)"></ellipse>
<ellipse cx="487" cy="483" rx="23" ry="194" style="fill:rgb(47,26,42)" transform="rotate(67 487 483)"></ellipse>
<ellipse cx="16" cy="482" rx="70" ry="10" style="fill:rgb(62,66,24)" transform="rotate(236 16 482)"></ellipse>
<ellipse cx="100" cy="249" rx="78" ry="284" style="fill:rgb(59,93,126)" transform="rotate(176 100 249)"></ellipse>
<ellipse cx="398" cy="248" rx="15" ry="8" style="fill:rgb(31,76,65)" transform="rotate(183 398 248)"></ellipse>
<ellipse cx="330" cy="80" rx="20" ry="10" style="fill:rgb(87,68,118)" transform="rotate(44 330 80)"></ellipse>
<ellipse cx="410" cy="496" rx="332" ry="0" style="fill:rgb(39,48,37)" transform="rotate(344 410 496)"></ellipse>
<ellipse cx="376" cy="63" rx="23" ry="29" style="fill:rgb(46,94,175)" transform="rotate(200 376 63)"></ellipse>
<ellipse cx="483" cy="27" rx="14" ry="447" style="fill:rgb(14,46,47)" transform="rotate(162 483 27)"></ellipse>
<ellipse cx="0" cy="56" rx="260" ry="13" style="fill:rgb(32,43,29)" transform="rotate(329 0 56)"></ellipse>
<ellipse cx="228" cy="392" rx="49" ry="15" style="fill:rgb(48,35,185)" transform="rotate(8 228 392)"></ellipse>
<ellipse cx="292" cy="302" rx="87" ry="29" style="fill:rgb(13,15,30)" transform="rotate(231 292 302)"></ellipse>
<ellipse cx="447" cy="474" rx="5" ry="26" style="fill:rgb(113,107,137)" transform="rotate(68 447 474)"></ellipse>
<ellipse cx="153" cy="242" rx="72" ry="46" style="fill:rgb(53,84,147)" transform="rotate(234 153 242)"></ellipse>
<ellipse cx="161" cy="347" rx="111" ry="29" style="fill:rgb(71,132,148)" transform="rotate(6 161 347)"></ellipse>
<ellipse cx="507" cy="492" rx="254" ry="5" style="fill:rgb(56,90,14)" transform="rotate(86 507 492)"></ellipse>
<ellipse cx="143" cy="334" rx="51" ry="30" style="fill:rgb(72,56,144)" transform="rotate(66 143 334)"></ellipse>
<ellipse cx="375" cy="425" rx="39" ry="28" style="fill:rgb(75,88,172)" transform="rotate(256 375 425)"></ellipse>
<ellipse cx="161" cy="502" rx="160" ry="6" style="fill:rgb(53,16,91)" transform="rotate(352 161 502)"></ellipse>
<ellipse cx="495" cy="8" rx="3" ry="497" style="fill:rgb(65,17,2)" transform="rotate(293 495 8)"></ellipse>
<ellipse cx="377" cy="54" rx="23" ry="133" style="fill:rgb(77,81,152)" transform="rotate(101 377 54)"></ellipse>
<ellipse cx="156" cy="342" rx="17" ry="14" style="fill:rgb(74,65,142)" transform="rotate(28 156 342)"></ellipse>
<ellipse cx="472" cy="237" rx="16" ry="0" style="fill:rgb(80,110,136)" transform="rotate(71 472 237)"></ellipse>
<ellipse cx="1" cy="373" rx="71" ry="43" style="fill:rgb(14,50,87)" transform="rotate(258 1 373)"></ellipse>
</svg>