<svg><ellipse cx="77" cy="16" rx="65" ry="167" style="fill:rgb(115,74,146)" transform="rotate(185 77 16)"></ellipse>
<ellipse cx="51" cy="25" rx="30" ry="186" style="fill:rgb(104,118,180)" transform="rotate(105 51 25)"></ellipse>
<ellipse cx="60" cy="20" rx="44" ry="194" style="fill:rgb(47,57,143)" transform="rotate(78 60 20)"></ellipse>
<ellipse cx="21" cy="76" rx="62" ry="166" style="fill:rgb(45,104,114)" transform="rotate(54 21 76)"></ellipse>
<ellipse cx="73" cy="0" rx="24" ry="131" style="fill:rgb(64,132,144)" transform="rotate(126 73 0)"></ellipse>
<ellipse cx="65" cy="151" rx="36" ry="158" style="fill:rgb(122,68,115)" transform="rotate(46 65 151)"></ellipse>
<ellipse cx="79" cy="48" rx="5" ry="33" style="fill:rgb(166,143,45)" transform="rotate(62 79 48)"></ellipse>
<ellipse cx="59" cy="156" rx="59" ry="191" style="fill:rgb(45,101,63)" transform="rotate(52 59 156)"></ellipse>
<ellipse cx="57" cy="176" rx="76" ry="176" style="fill:rgb(93,102,148)" transform="rotate(55 57 176)"></ellipse>
<ellipse cx="23" cy="158" rx="73" ry="177" style="fill:rgb(124,114,140)" transform="rotate(294 23 158)"></ellipse>
<ellipse cx="13" cy="45" rx="6" ry="31" style="fill:rgb(5,55,115)" transform="rotate(332 13 45)"></ellipse>
<ellipse cx="6" cy="167" rx="53" ry="173" style="fill:rgb(104,121,96)" transform="rotate(39 6 167)"></ellipse>
<ellipse cx="65" cy="143" rx="53" ry="74" style="fill:rgb(186,147,233)" transform="rotate(138 65 143)"></ellipse>
<ellipse cx="43" cy="8" rx="14" ry="151" style="fill:rgb(84,109,116)" transform="rotate(284 43 8)"></ellipse>
<ellipse cx="68" cy="24" rx="9" ry="113" style="fill:rgb(143,141,104)" transform="rotate(297 68 24)"></ellipse>
<ellipse cx="0" cy="20" rx="29" ry="135" style="fill:rgb(50,105,136)" transform="rotate(211 0 20)"></ellipse>
<ellipse cx="29" cy="51" rx="22" ry="183" style="fill:rgb(44,84,153)" transform="rotate(46 29 51)"></ellipse>
<ellipse cx="5" cy="158" rx="75" ry="139" style="fill:rgb(250,175,163)" transform="rotate(77 5 158)"></ellipse>
<ellipse cx="43" cy="194" rx="4" ry="194" style="fill:rgb(26,90,171)" transform="rotate(224 43 194)"></ellipse>
<ellipse cx="32" cy="104" rx="5" ry="69" style="fill:rgb(176,232,107)" transform="rotate(210 32 104)"></ellipse>
<ellipse cx="77" cy="127" rx="14" ry="154" style="fill:rgb(6,54,137)" transform="rotate(239 77 127)"></ellipse>
<ellipse cx="77" cy="146" rx="47" ry="120" style="fill:rgb(214,122,165)" transform="rotate(244 77 146)"></ellipse>
<ellipse cx="2" cy="116" rx="17" ry="101" style="fill:rgb(36,71,143)" transform="rotate(7 2 116)"></ellipse>
<ellipse cx="39" cy="119" rx="33" ry="150" style="fill:rgb(149,247,169)" transform="rotate(261 39 119)"></ellipse>
<ellipse cx="48" cy="117" rx="5" ry="51" style="fill:rgb(86,116,60)" transform="rotate(358 48 117)"></ellipse>
<ellipse cx="40" cy="103" rx="4" ry="150" style="fill:rgb(98,139,198)" transform="rotate(79 40 103)"></ellipse>
<ellipse cx="37" cy="80" rx="4" ry="175" style="fill:rgb(134,115,138)" transform="rotate(215 37 80)"></ellipse>
<ellipse cx="40" cy="101" rx="20" ry="139" style="fill:rgb(139,160,171)" transform="rotate(276 40 101)"></ellipse>
<ellipse cx="75" cy="52" rx="5" ry="156" style="fill:rgb(103,93,124)" transform="rotate(162 75 52)"></ellipse>
<ellipse cx="75" cy="20" rx="12" ry="3" style="fill:rgb(166,228,125)" transform="rotate(208 75 20)"></ellipse>
<ellipse cx="4" cy="2" rx="2" ry="117" style="fill:rgb(145,116,243)" transform="rotate(242 4 2)"></ellipse>
<ellipse cx="66" cy="79" rx="0" ry="22" style="fill:rgb(168,192,204)" transform="rotate(91 66 79)"></ellipse>
<ellipse cx="24" cy="118" rx="2" ry="127" style="fill:rgb(154,234,207)" transform="rotate(146 24 118)"></ellipse>
<ellipse cx="76" cy="135" rx="13" ry="172" style="fill:rgb(233,133,212)" transform="rotate(69 76 135)"></ellipse>
<ellipse cx="37" cy="164" rx="19" ry="173" style="fill:rgb(92,130,107)" transform="rotate(59 37 164)"></ellipse>
<ellipse cx="34" cy="84" rx="1" ry="113" style="fill:rgb(184,126,86)" transform="rotate(55 34 84)"></ellipse>
<ellipse cx="64" cy="68" rx="0" ry="5" style="fill:rgb(18,2,3)" transform="rotate(13 64 68)"></ellipse>
<ellipse cx="16" cy="191" rx="23" ry="173" style="fill:rgb(127,92,90)" transform="rotate(165 16 191)"></ellipse>
<ellipse cx="53" cy="191" rx="32" ry="194" style="fill:rgb(20,234,166)" transform="rotate(323 53 191)"></ellipse>
<ellipse cx="34" cy="118" rx="15" ry="165" style="fill:rgb(167,180,95)" transform="rotate(124 34 118)"></ellipse>
<ellipse cx="52" cy="28" rx="11" ry="16" style="fill:rgb(18,63,148)" transform="rotate(341 52 28)"></ellipse>
<ellipse cx="33" cy="38" rx="9" ry="3" style="fill:rgb(75,151,185)" transform="rotate(224 33 38)"></ellipse>
<ellipse cx="22" cy="97" rx="73" ry="3" style="fill:rgb(154,113,158)" transform="rotate(166 22 97)"></ellipse>
<ellipse cx="38" cy="106" rx="0" ry="32" style="fill:rgb(105,251,214)" transform="rotate(148 38 106)"></ellipse>
<ellipse cx="76" cy="177" rx="64" ry="127" style="fill:rgb(183,106,255)" transform="rotate(313 76 177)"></ellipse>
<ellipse cx="52" cy="2" rx="18" ry="8" style="fill:rgb(104,133,175)" transform="rotate(244 52 2)"></ellipse>
<ellipse cx="47" cy="120" rx="44" ry="21" style="fill:rgb(247,175,239)" transform="rotate(296 47 120)"></ellipse>
<ellipse cx="64" cy="1" rx="15" ry="5" style="fill:rgb(114,149,149)" transform="rotate(303 64 1)"></ellipse>
<ellipse cx="49" cy="198" rx="28" ry="126" style="fill:rgb(164,191,156)" transform="rotate(20 49 198)"></ellipse>
<ellipse cx="74" cy="0" rx="1" ry="5" style="fill:rgb(197,53,251)" transform="rotate(110 74 0)"></ellipse>
<ellipse cx="22" cy="53" rx="4" ry="24" style="fill:rgb(0,43,144)" transform="rotate(349 22 53)"></ellipse>
<ellipse cx="33" cy="60" rx="11" ry="15" style="fill:rgb(26,59,123)" transform="rotate(229 33 60)"></ellipse>
<ellipse cx="15" cy="18" rx="19" ry="16" style="fill:rgb(7,79,132)" transform="rotate(165 15 18)"></ellipse>
<ellipse cx="75" cy="34" rx="3" ry="21" style="fill:rgb(77,60,140)" transform="rotate(215 75 34)"></ellipse>
<ellipse cx="32" cy="180" rx="41" ry="180" style="fill:rgb(98,246,229)" transform="rotate(238 32 180)"></ellipse>
<ellipse cx="44" cy="168" rx="68" ry="106" style="fill:rgb(237,155,232)" transform="rotate(315 44 168)"></ellipse>
<ellipse cx="39" cy="111" rx="6" ry="69" style="fill:rgb(30,45,10)" transform="rotate(32 39 111)"></ellipse>
<ellipse cx="46" cy="127" rx="50" ry="30" style="fill:rgb(213,227,51)" transform="rotate(288 46 127)"></ellipse>
<ellipse cx="49" cy="4" rx="2" ry="4" style="fill:rgb(16,41,56)" transform="rotate(329 49 4)"></ellipse>
<ellipse cx="11" cy="133" rx="14" ry="79" style="fill:rgb(77,153,153)" transform="rotate(45 11 133)"></ellipse>
<ellipse cx="28" cy="37" rx="5" ry="3" style="fill:rgb(194,151,253)" transform="rotate(53 28 37)"></ellipse>
<ellipse cx="50" cy="178" rx="9" ry="110" style="fill:rgb(144,136,149)" transform="rotate(205 50 178)"></ellipse>
<ellipse cx="26" cy="152" rx="76" ry="46" style="fill:rgb(116,192,181)" transform="rotate(290 26 152)"></ellipse>
<ellipse cx="49" cy="142" rx="23" ry="65" style="fill:rgb(185,254,40)" transform="rotate(196 49 142)"></ellipse>
<ellipse cx="76" cy="189" rx="43" ry="167" style="fill:rgb(234,181,213)" transform="rotate(51 76 189)"></ellipse>
<ellipse cx="71" cy="129" rx="53" ry="43" style="fill:rgb(95,221,223)" transform="rotate(233 71 129)"></ellipse>
<ellipse cx="8" cy="150" rx="2" ry="165" style="fill:rgb(124,160,143)" transform="rotate(356 8 150)"></ellipse>
<ellipse cx="76" cy="13" rx="2" ry="37" style="fill:rgb(85,117,88)" transform="rotate(79 76 13)"></ellipse>
<ellipse cx="73" cy="97" rx="10" ry="19" style="fill:rgb(239,155,209)" transform="rotate(344 73 97)"></ellipse>
<ellipse cx="47" cy="112" rx="11" ry="99" style="fill:rgb(209,249,181)" transform="rotate(116 47 112)"></ellipse>
<ellipse cx="57" cy="3" rx="1" ry="33" style="fill:rgb(60,96,98)" transform="rotate(38 57 3)"></ellipse>
<ellipse cx="49" cy="96" rx="7" ry="23" style="fill:rgb(178,182,243)" transform="rotate(43 49 96)"></ellipse>
<ellipse cx="25" cy="21" rx="21" ry="5" style="fill:rgb(9,82,151)" transform="rotate(178 25 21)"></ellipse>
<ellipse cx="21" cy="110" rx="47" ry="0" style="fill:rgb(154,94,109)" transform="rotate(127 21 110)"></ellipse>
<ellipse cx="25" cy="186" rx="47" ry="108" style="fill:rgb(137,153,225)" transform="rotate(190 25 186)"></ellipse>
<ellipse cx="52" cy="122" rx="40" ry="45" style="fill:rgb(227,244,246)" transform="rotate(218 52 122)"></ellipse>
<ellipse cx="13" cy="73" rx="1" ry="143" style="fill:rgb(35,69,154)" transform="rotate(90 13 73)"></ellipse>
<ellipse cx="34" cy="117" rx="39" ry="5" style="fill:rgb(202,194,132)" transform="rotate(273 34 117)"></ellipse>
<ellipse cx="6" cy="55" rx="57" ry="2" style="fill:rgb(12,58,97)" transform="rotate(357 6 55)"></ellipse>
<ellipse cx="45" cy="125" rx="52" ry="8" style="fill:rgb(160,214,247)" transform="rotate(118 45 125)"></ellipse>
<ellipse cx="34" cy="120" rx="1" ry="179" style="fill:rgb(79,55,128)" transform="rotate(332 34 120)"></ellipse>
<ellipse cx="43" cy="1" rx="0" ry="73" style="fill:rgb(155,165,129)" transform="rotate(270 43 1)"></ellipse>
<ellipse cx="51" cy="71" rx="1" ry="6" style="fill:rgb(148,160,80)" transform="rotate(277 51 71)"></ellipse>
<ellipse cx="12" cy="140" rx="55" ry="71" style="fill:rgb(234,152,199)" transform="rotate(128 12 140)"></ellipse>
<ellipse cx="74" cy="165" rx="67" ry="86" style="fill:rgb(247,225,242)" transform="rotate(4 74 165)"></ellipse>
<ellipse cx="59" cy="117" rx="36" ry="99" style="fill:rgb(202,195,189)" transform="rotate(83 59 117)"></ellipse>
<ellipse cx="61" cy="155" rx="34" ry="79" style="fill:rgb(197,148,183)" transform="rotate(344 61 155)"></ellipse>
<ellipse cx="35" cy="100" rx="16" ry="41" style="fill:rgb(35,236,166)" transform="rotate(110 35 100)"></ellipse>
<ellipse cx="67" cy="54" rx="5" ry="1" style="fill:rgb(178,205,60)" transform="rotate(358 67 54)"></ellipse>
<ellipse cx="39" cy="185" rx="19" ry="175" style="fill:rgb(150,220,198)" transform="rotate(53 39 185)"></ellipse>
<ellipse cx="64" cy="124" rx="44" ry="85" style="fill:rgb(246,175,203)" transform="rotate(99 64 124)"></ellipse>
<ellipse cx="53" cy="105" rx="3" ry="133" style="fill:rgb(116,53,247)" transform="rotate(79 53 105)"></ellipse>
<ellipse cx="58" cy="50" rx="16" ry="1" style="fill:rgb(32,60,143)" transform="rotate(153 58 50)"></ellipse>
<ellipse cx="14" cy="118" rx="39" ry="36" style="fill:rgb(173,194,177)" transform="rotate(249 14 118)"></ellipse>
<ellipse cx="56" cy="43" rx="3" ry="11" style="fill:rgb(8,99,172)" transform="rotate(74 56 43)"></ellipse>
<ellipse cx="25" cy="117" rx="29" ry="67" style="fill:rgb(191,234,246)" transform="rotate(246 25 117)"></ellipse>
<ellipse cx="47" cy="79" rx="38" ry="0" style="fill:rgb(166,129,105)" transform="rotate(310 47 79)"></ellipse>
<ellipse cx="77" cy="114" rx="11" ry="43" style="fill:rgb(185,218,241)" transform="rotate(36 77 114)"></ellipse>
<ellipse cx="35" cy="137" rx="2" ry="83" style="fill:rgb(220,123,123)" transform="rotate(14 35 137)"></ellipse>
<ellipse cx="67" cy="181" rx="38" ry="117" style="fill:rgb(245,206,224)" transform="rotate(149 67 181)"></ellipse>
<ellipse cx="42" cy="6" rx="2" ry="0" style="fill:rgb(253,86,197)" transform="rotate(167 42 6)"></ellipse>
<ellipse cx="64" cy="170" rx="50" ry="96" style="fill:rgb(201,214,193)" transform="rotate(201 64 170)"></ellipse>
<ellipse cx="58" cy="61" rx="3" ry="25" style="fill:rgb(212,171,157)" transform="rotate(41 58 61)"></ellipse>
<ellipse cx="74" cy="105" rx="12" ry="42" style="fill:rgb(105,159,166)" transform="rotate(315 74 105)"></ellipse>
<ellipse cx="76" cy="143" rx="37" ry="68" style="fill:rgb(145,216,190)" transform="rotate(155 76 143)"></ellipse>
<ellipse cx="5" cy="123" rx="53" ry="38" style="fill:rgb(203,149,228)" transform="rotate(144 5 123)"></ellipse>
<ellipse cx="44" cy="193" rx="24" ry="117" style="fill:rgb(243,220,224)" transform="rotate(346 44 193)"></ellipse>
<ellipse cx="47" cy="153" rx="74" ry="3" style="fill:rgb(173,106,198)" transform="rotate(272 47 153)"></ellipse>
<ellipse cx="67" cy="120" rx="13" ry="58" style="fill:rgb(124,118,125)" transform="rotate(334 67 120)"></ellipse>
<ellipse cx="42" cy="163" rx="59" ry="157" style="fill:rgb(231,186,224)" transform="rotate(246 42 163)"></ellipse>
<ellipse cx="71" cy="46" rx="5" ry="2" style="fill:rgb(75,106,114)" transform="rotate(318 71 46)"></ellipse>
<ellipse cx="44" cy="152" rx="10" ry="122" style="fill:rgb(46,75,72)" transform="rotate(43 44 152)"></ellipse>
<ellipse cx="47" cy="178" rx="40" ry="100" style="fill:rgb(247,176,108)" transform="rotate(188 47 178)"></ellipse>
<ellipse cx="28" cy="131" rx="40" ry="119" style="fill:rgb(232,183,188)" transform="rotate(293 28 131)"></ellipse>
<ellipse cx="70" cy="152" rx="70" ry="97" style="fill:rgb(75,199,187)" transform="rotate(289 70 152)"></ellipse>
<ellipse cx="68" cy="141" rx="49" ry="109" style="fill:rgb(245,246,149)" transform="rotate(246 68 141)"></ellipse>
<ellipse cx="29" cy="120" rx="35" ry="53" style="fill:rgb(241,221,180)" transform="rotate(304 29 120)"></ellipse>
<ellipse cx="51" cy="88" rx="18" ry="6" style="fill:rgb(122,123,155)" transform="rotate(141 51 88)"></ellipse>
<ellipse cx="67" cy="83" rx="13" ry="0" style="fill:rgb(212,108,137)" transform="rotate(32 67 83)"></ellipse>
<ellipse cx="11" cy="57" rx="2" ry="3" style="fill:rgb(9,29,121)" transform="rotate(257 11 57)"></ellipse>
<ellipse cx="39" cy="107" rx="30" ry="0" style="fill:rgb(165,194,115)" transform="rotate(112 39 107)"></ellipse>
<ellipse cx="79" cy="41" rx="13" ry="1" style="fill:rgb(53,181,129)" transform="rotate(293 79 41)"></ellipse>
<ellipse cx="0" cy="69" rx="8" ry="3" style="fill:rgb(24,97,139)" transform="rotate(319 0 69)"></ellipse>
<ellipse cx="72" cy="148" rx="0" ry="117" style="fill:rgb(72,156,195)" transform="rotate(225 72 148)"></ellipse>
<ellipse cx="50" cy="100" rx="21" ry="24" style="fill:rgb(237,86,254)" transform="rotate(76 50 100)"></ellipse>
<ellipse cx="35" cy="163" rx="16" ry="84" style="fill:rgb(179,157,136)" transform="rotate(3 35 163)"></ellipse>
<ellipse cx="78" cy="152" rx="63" ry="132" style="fill:rgb(253,226,168)" transform="rotate(71 78 152)"></ellipse>
<ellipse cx="0" cy="7" rx="0" ry="2" style="fill:rgb(104,215,155)" transform="rotate(89 0 7)"></ellipse>
<ellipse cx="31" cy="171" rx="37" ry="150" style="fill:rgb(190,234,191)" transform="rotate(144 31 171)"></ellipse>
<ellipse cx="14" cy="0" rx="1" ry="80" style="fill:rgb(171,183,193)" transform="rotate(78 14 0)"></ellipse>
<ellipse cx="1" cy="164" rx="39" ry="141" style="fill:rgb(202,238,216)" transform="rotate(157 1 164)"></ellipse>
<ellipse cx="59" cy="0" rx="1" ry="30" style="fill:rgb(78,112,148)" transform="rotate(159 59 0)"></ellipse>
<ellipse cx="46" cy="154" rx="67" ry="76" style="fill:rgb(157,250,128)" transform="rotate(156 46 154)"></ellipse>
<ellipse cx="0" cy="174" rx="0" ry="161" style="fill:rgb(87,106,99)" transform="rotate(40 0 174)"></ellipse>
<ellipse cx="33" cy="108" rx="28" ry="71" style="fill:rgb(214,238,243)" transform="rotate(262 33 108)"></ellipse>
<ellipse cx="22" cy="83" rx="2" ry="160" style="fill:rgb(190,130,172)" transform="rotate(60 22 83)"></ellipse>
<ellipse cx="41" cy="1" rx="1" ry="10" style="fill:rgb(128,217,189)" transform="rotate(337 41 1)"></ellipse>
<ellipse cx="55" cy="107" rx="14" ry="53" style="fill:rgb(52,87,103)" transform="rotate(153 55 107)"></ellipse>
<ellipse cx="64" cy="106" rx="11" ry="45" style="fill:rgb(115,169,124)" transform="rotate(307 64 106)"></ellipse>
<ellipse cx="78" cy="0" rx="1" ry="3" style="fill:rgb(133,112,240)" transform="rotate(74 78 0)"></ellipse>
<ellipse cx="75" cy="173" rx="40" ry="107" style="fill:rgb(145,247,169)" transform="rotate(329 75 173)"></ellipse>
<ellipse cx="71" cy="56" rx="5" ry="16" style="fill:rgb(170,180,93)" transform="rotate(77 71 56)"></ellipse>
<ellipse cx="42" cy="58" rx="2" ry="9" style="fill:rgb(3,109,132)" transform="rotate(174 42 58)"></ellipse>
<ellipse cx="57" cy="100" rx="40" ry="0" style="fill:rgb(153,108,215)" transform="rotate(217 57 100)"></ellipse>
<ellipse cx="61" cy="106" rx="4" ry="44" style="fill:rgb(160,148,108)" transform="rotate(160 61 106)"></ellipse>
<ellipse cx="67" cy="110" rx="64" ry="28" style="fill:rgb(155,171,48)" transform="rotate(13 67 110)"></ellipse>
<ellipse cx="35" cy="104" rx="24" ry="55" style="fill:rgb(152,212,242)" transform="rotate(260 35 104)"></ellipse>
<ellipse cx="57" cy="138" rx="42" ry="70" style="fill:rgb(230,227,157)" transform="rotate(138 57 138)"></ellipse>
<ellipse cx="54" cy="90" rx="7" ry="21" style="fill:rgb(224,234,186)" transform="rotate(117 54 90)"></ellipse>
<ellipse cx="74" cy="174" rx="18" ry="107" style="fill:rgb(196,101,214)" transform="rotate(206 74 174)"></ellipse>
<ellipse cx="49" cy="172" rx="8" ry="118" style="fill:rgb(196,147,134)" transform="rotate(216 49 172)"></ellipse>
<ellipse cx="77" cy="22" rx="28" ry="3" style="fill:rgb(184,128,203)" transform="rotate(206 77 22)"></ellipse>
<ellipse cx="50" cy="52" rx="25" ry="4" style="fill:rgb(23,89,97)" transform="rotate(324 50 52)"></ellipse>
<ellipse cx="40" cy="36" rx="2" ry="0" style="fill:rgb(80,103,113)" transform="rotate(134 40 36)"></ellipse>
<ellipse cx="57" cy="189" rx="65" ry="113" style="fill:rgb(188,227,159)" transform="rotate(197 57 189)"></ellipse>
<ellipse cx="49" cy="67" rx="6" ry="1" style="fill:rgb(145,211,196)" transform="rotate(214 49 67)"></ellipse>
<ellipse cx="72" cy="175" rx="1" ry="112" style="fill:rgb(135,202,212)" transform="rotate(209 72 175)"></ellipse>
<ellipse cx="64" cy="14" rx="32" ry="0" style="fill:rgb(148,179,143)" transform="rotate(27 64 14)"></ellipse>
<ellipse cx="57" cy="116" rx="41" ry="34" style="fill:rgb(234,222,237)" transform="rotate(316 57 116)"></ellipse>
<ellipse cx="30" cy="8" rx="4" ry="6" style="fill:rgb(19,61,126)" transform="rotate(310 30 8)"></ellipse>
<ellipse cx="62" cy="160" rx="75" ry="108" style="fill:rgb(197,218,230)" transform="rotate(114 62 160)"></ellipse>
<ellipse cx="44" cy="0" rx="0" ry="100" style="fill:rgb(222,122,217)" transform="rotate(91 44 0)"></ellipse>
<ellipse cx="21" cy="190" rx="70" ry="118" style="fill:rgb(246,192,212)" transform="rotate(24 21 190)"></ellipse>
<ellipse cx="70" cy="33" rx="0" ry="17" style="fill:rgb(85,60,85)" transform="rotate(15 70 33)"></ellipse>
<ellipse cx="32" cy="19" rx="1" ry="28" style="fill:rgb(28,87,99)" transform="rotate(90 32 19)"></ellipse>
<ellipse cx="67" cy="43" rx="2" ry="1" style="fill:rgb(174,133,149)" transform="rotate(296 67 43)"></ellipse>
<ellipse cx="25" cy="175" rx="6" ry="167" style="fill:rgb(114,149,118)" transform="rotate(345 25 175)"></ellipse>
<ellipse cx="21" cy="147" rx="65" ry="92" style="fill:rgb(237,216,235)" transform="rotate(287 21 147)"></ellipse>
<ellipse cx="50" cy="191" rx="66" ry="125" style="fill:rgb(207,170,189)" transform="rotate(212 50 191)"></ellipse>
<ellipse cx="63" cy="178" rx="27" ry="100" style="fill:rgb(184,239,209)" transform="rotate(8 63 178)"></ellipse>
<ellipse cx="34" cy="102" rx="3" ry="129" style="fill:rgb(142,181,238)" transform="rotate(80 34 102)"></ellipse>
<ellipse cx="71" cy="12" rx="46" ry="5" style="fill:rgb(48,71,116)" transform="rotate(4 71 12)"></ellipse>
<ellipse cx="11" cy="35" rx="1" ry="9" style="fill:rgb(19,72,84)" transform="rotate(82 11 35)"></ellipse>
<ellipse cx="11" cy="63" rx="12" ry="12" style="fill:rgb(11,32,122)" transform="rotate(41 11 63)"></ellipse>
<ellipse cx="74" cy="23" rx="7" ry="3" style="fill:rgb(147,198,139)" transform="rotate(326 74 23)"></ellipse>
<ellipse cx="52" cy="198" rx="1" ry="162" style="fill:rgb(125,139,155)" transform="rotate(221 52 198)"></ellipse>
<ellipse cx="13" cy="100" rx="21" ry="86" style="fill:rgb(219,221,215)" transform="rotate(270 13 100)"></ellipse>
<ellipse cx="11" cy="193" rx="75" ry="170" style="fill:rgb(245,183,207)" transform="rotate(236 11 193)"></ellipse>
<ellipse cx="58" cy="85" rx="18" ry="4" style="fill:rgb(191,237,246)" transform="rotate(196 58 85)"></ellipse>
<ellipse cx="38" cy="168" rx="11" ry="150" style="fill:rgb(233,236,248)" transform="rotate(54 38 168)"></ellipse>
<ellipse cx="54" cy="189" rx="48" ry="198" style="fill:rgb(211,227,202)" transform="rotate(239 54 189)"></ellipse>
<ellipse cx="20" cy="34" rx="3" ry="4" style="fill:rgb(23,64,98)" transform="rotate(288 20 34)"></ellipse>
<ellipse cx="1" cy="98" rx="18" ry="147" style="fill:rgb(225,236,218)" transform="rotate(110 1 98)"></ellipse>
<ellipse cx="34" cy="33" rx="6" ry="0" style="fill:rgb(225,240,247)" transform="rotate(27 34 33)"></ellipse>
<ellipse cx="68" cy="133" rx="66" ry="19" style="fill:rgb(226,213,199)" transform="rotate(127 68 133)"></ellipse>
<ellipse cx="3" cy="35" rx="7" ry="0" style="fill:rgb(15,40,58)" transform="rotate(82 3 35)"></ellipse>
<ellipse cx="55" cy="61" rx="4" ry="13" style="fill:rgb(252,164,208)" transform="rotate(214 55 61)"></ellipse>
<ellipse cx="60" cy="12" rx="4" ry="4" style="fill:rgb(73,112,202)" transform="rotate(157 60 12)"></ellipse>
<ellipse cx="75" cy="70" rx="5" ry="3" style="fill:rgb(39,28,25)" transform="rotate(320 75 70)"></ellipse>
<ellipse cx="62" cy="169" rx="0" ry="142" style="fill:rgb(154,20,99)" transform="rotate(42 62 169)"></ellipse>
<ellipse cx="46" cy="71" rx="0" ry="4" style="fill:rgb(123,67,72)" transform="rotate(337 46 71)"></ellipse>
<ellipse cx="14" cy="113" rx="13" ry="116" style="fill:rgb(195,162,237)" transform="rotate(74 14 113)"></ellipse>
<ellipse cx="60" cy="75" rx="1" ry="154" style="fill:rgb(48,92,71)" transform="rotate(88 60 75)"></ellipse>
<ellipse cx="79" cy="46" rx="6" ry="3" style="fill:rgb(112,203,73)" transform="rotate(153 79 46)"></ellipse>
<ellipse cx="0" cy="16" rx="73" ry="0" style="fill:rgb(55,158,228)" transform="rotate(285 0 16)"></ellipse>
<ellipse cx="77" cy="59" rx="6" ry="3" style="fill:rgb(65,68,49)" transform="rotate(79 77 59)"></ellipse>
<ellipse cx="58" cy="12" rx="3" ry="11" style="fill:rgb(52,126,97)" transform="rotate(38 58 12)"></ellipse>
<ellipse cx="70" cy="14" rx="18" ry="0" style="fill:rgb(59,107,117)" transform="rotate(353 70 14)"></ellipse>
<ellipse cx="56" cy="133" rx="45" ry="72" style="fill:rgb(225,230,211)" transform="rotate(122 56 133)"></ellipse>
<ellipse cx="14" cy="197" rx="37" ry="178" style="fill:rgb(248,182,242)" transform="rotate(230 14 197)"></ellipse>
<ellipse cx="39" cy="104" rx="22" ry="43" style="fill:rgb(219,246,244)" transform="rotate(287 39 104)"></ellipse>
<ellipse cx="27" cy="38" rx="2" ry="4" style="fill:rgb(156,205,206)" transform="rotate(244 27 38)"></ellipse>
<ellipse cx="77" cy="118" rx="77" ry="6" style="fill:rgb(80,99,127)" transform="rotate(322 77 118)"></ellipse>
<ellipse cx="28" cy="42" rx="0" ry="6" style="fill:rgb(81,127,225)" transform="rotate(293 28 42)"></ellipse>
<ellipse cx="72" cy="71" rx="0" ry="16" style="fill:rgb(49,53,60)" transform="rotate(174 72 71)"></ellipse>
<ellipse cx="52" cy="141" rx="59" ry="198" style="fill:rgb(226,160,142)" transform="rotate(264 52 141)"></ellipse>
<ellipse cx="79" cy="113" rx="34" ry="35" style="fill:rgb(201,245,191)" transform="rotate(67 79 113)"></ellipse>
<ellipse cx="76" cy="15" rx="32" ry="2" style="fill:rgb(164,140,125)" transform="rotate(336 76 15)"></ellipse>
<ellipse cx="59" cy="14" rx="1" ry="1" style="fill:rgb(48,195,156)" transform="rotate(21 59 14)"></ellipse>
<ellipse cx="71" cy="156" rx="77" ry="38" style="fill:rgb(240,251,203)" transform="rotate(94 71 156)"></ellipse>
<ellipse cx="68" cy="47" rx="2" ry="2" style="fill:rgb(191,125,233)" transform="rotate(354 68 47)"></ellipse>
<ellipse cx="36" cy="141" rx="27" ry="116" style="fill:rgb(168,207,162)" transform="rotate(60 36 141)"></ellipse>
<ellipse cx="69" cy="26" rx="1" ry="0" style="fill:rgb(158,197,2)" transform="rotate(114 69 26)"></ellipse>
<ellipse cx="23" cy="188" rx="69" ry="183" style="fill:rgb(191,206,227)" transform="rotate(60 23 188)"></ellipse>
<ellipse cx="57" cy="165" rx="34" ry="152" style="fill:rgb(193,164,220)" transform="rotate(58 57 165)"></ellipse>
<ellipse cx="79" cy="132" rx="52" ry="184" style="fill:rgb(208,187,187)" transform="rotate(266 79 132)"></ellipse>
<ellipse cx="45" cy="175" rx="55" ry="177" style="fill:rgb(222,113,234)" transform="rotate(242 45 175)"></ellipse>
<ellipse cx="57" cy="25" rx="1" ry="26" style="fill:rgb(3,39,119)" transform="rotate(117 57 25)"></ellipse>
<ellipse cx="76" cy="7" rx="36" ry="1" style="fill:rgb(80,100,101)" transform="rotate(316 76 7)"></ellipse>
<ellipse cx="77" cy="150" rx="2" ry="185" style="fill:rgb(42,44,129)" transform="rotate(223 77 150)"></ellipse>
<ellipse cx="0" cy="5" rx="0" ry="102" style="fill:rgb(199,249,199)" transform="rotate(227 0 5)"></ellipse>
<ellipse cx="4" cy="62" rx="0" ry="0" style="fill:rgb(11,31,91)" transform="rotate(144 4 62)"></ellipse>
<ellipse cx="24" cy="21" rx="18" ry="2" style="fill:rgb(0,90,118)" transform="rotate(6 24 21)"></ellipse>
<ellipse cx="47" cy="162" rx="2" ry="130" style="fill:rgb(102,144,233)" transform="rotate(229 47 162)"></ellipse>
<ellipse cx="35" cy="125" rx="38" ry="50" style="fill:rgb(240,238,193)" transform="rotate(218 35 125)"></ellipse>
<ellipse cx="15" cy="124" rx="1" ry="181" style="fill:rgb(116,137,92)" transform="rotate(346 15 124)"></ellipse>
<ellipse cx="2" cy="142" rx="79" ry="60" style="fill:rgb(226,232,149)" transform="rotate(209 2 142)"></ellipse>
<ellipse cx="66" cy="153" rx="78" ry="68" style="fill:rgb(210,225,242)" transform="rotate(132 66 153)"></ellipse>
<ellipse cx="65" cy="178" rx="77" ry="185" style="fill:rgb(210,148,243)" transform="rotate(248 65 178)"></ellipse>
<ellipse cx="2" cy="186" rx="51" ry="189" style="fill:rgb(164,239,233)" transform="rotate(239 2 186)"></ellipse>
<ellipse cx="79" cy="24" rx="6" ry="5" style="fill:rgb(122,179,73)" transform="rotate(274 79 24)"></ellipse>
<ellipse cx="39" cy="44" rx="2" ry="2" style="fill:rgb(111,73,93)" transform="rotate(161 39 44)"></ellipse>
<ellipse cx="26" cy="123" rx="44" ry="150" style="fill:rgb(245,222,240)" transform="rotate(269 26 123)"></ellipse>
<ellipse cx="1" cy="104" rx="9" ry="177" style="fill:rgb(209,196,224)" transform="rotate(337 1 104)"></ellipse>
<ellipse cx="9" cy="111" rx="68" ry="15" style="fill:rgb(140,180,212)" transform="rotate(232 9 111)"></ellipse>
<ellipse cx="3" cy="150" rx="49" ry="160" style="fill:rgb(202,216,199)" transform="rotate(250 3 150)"></ellipse>
<ellipse cx="20" cy="193" rx="24" ry="133" style="fill:rgb(244,139,203)" transform="rotate(164 20 193)"></ellipse>
<ellipse cx="4" cy="100" rx="69" ry="6" style="fill:rgb(165,157,119)" transform="rotate(244 4 100)"></ellipse>
<ellipse cx="54" cy="28" rx="6" ry="8" style="fill:rgb(8,24,175)" transform="rotate(104 54 28)"></ellipse>
<ellipse cx="53" cy="164" rx="54" ry="180" style="fill:rgb(105,204,214)" transform="rotate(300 53 164)"></ellipse>
<ellipse cx="1" cy="115" rx="30" ry="165" style="fill:rgb(157,204,209)" transform="rotate(123 1 115)"></ellipse>
<ellipse cx="17" cy="144" rx="40" ry="71" style="fill:rgb(207,184,173)" transform="rotate(333 17 144)"></ellipse>
<ellipse cx="44" cy="51" rx="23" ry="9" style="fill:rgb(22,55,128)" transform="rotate(136 44 51)"></ellipse>
<ellipse cx="45" cy="99" rx="9" ry="64" style="fill:rgb(252,238,183)" transform="rotate(254 45 99)"></ellipse>
<ellipse cx="71" cy="46" rx="1" ry="1" style="fill:rgb(81,122,47)" transform="rotate(205 71 46)"></ellipse>
<ellipse cx="73" cy="159" rx="67" ry="172" style="fill:rgb(176,206,215)" transform="rotate(106 73 159)"></ellipse>
<ellipse cx="1" cy="149" rx="38" ry="131" style="fill:rgb(226,250,232)" transform="rotate(242 1 149)"></ellipse>
<ellipse cx="37" cy="0" rx="16" ry="1" style="fill:rgb(185,180,197)" transform="rotate(176 37 0)"></ellipse>
<ellipse cx="47" cy="67" rx="3" ry="1" style="fill:rgb(252,157,222)" transform="rotate(233 47 67)"></ellipse>
<ellipse cx="43" cy="184" rx="24" ry="158" style="fill:rgb(231,212,217)" transform="rotate(229 43 184)"></ellipse>
<ellipse cx="14" cy="191" rx="8" ry="189" style="fill:rgb(207,152,76)" transform="rotate(48 14 191)"></ellipse>
<ellipse cx="31" cy="101" rx="10" ry="94" style="fill:rgb(202,227,212)" transform="rotate(78 31 101)"></ellipse>
<ellipse cx="44" cy="169" rx="51" ry="170" style="fill:rgb(150,243,213)" transform="rotate(63 44 169)"></ellipse>
<ellipse cx="17" cy="177" rx="4" ry="169" style="fill:rgb(191,123,75)" transform="rotate(51 17 177)"></ellipse>
<ellipse cx="21" cy="57" rx="14" ry="4" style="fill:rgb(1,63,135)" transform="rotate(87 21 57)"></ellipse>
<ellipse cx="33" cy="90" rx="0" ry="29" style="fill:rgb(128,110,92)" transform="rotate(50 33 90)"></ellipse>
<ellipse cx="1" cy="0" rx="0" ry="102" style="fill:rgb(135,51,23)" transform="rotate(42 1 0)"></ellipse>
<ellipse cx="8" cy="155" rx="57" ry="80" style="fill:rgb(169,220,225)" transform="rotate(335 8 155)"></ellipse>
<ellipse cx="35" cy="2" rx="39" ry="1" style="fill:rgb(183,181,138)" transform="rotate(28 35 2)"></ellipse>
<ellipse cx="46" cy="55" rx="2" ry="10" style="fill:rgb(9,78,122)" transform="rotate(207 46 55)"></ellipse>
<ellipse cx="70" cy="193" rx="9" ry="132" style="fill:rgb(186,79,180)" transform="rotate(210 70 193)"></ellipse>
<ellipse cx="22" cy="145" rx="34" ry="195" style="fill:rgb(219,242,131)" transform="rotate(73 22 145)"></ellipse>
<ellipse cx="66" cy="53" rx="8" ry="2" style="fill:rgb(249,234,122)" transform="rotate(1 66 53)"></ellipse>
<ellipse cx="0" cy="50" rx="5" ry="0" style="fill:rgb(181,169,142)" transform="rotate(245 0 50)"></ellipse>
<ellipse cx="26" cy="154" rx="74" ry="179" style="fill:rgb(237,245,221)" transform="rotate(95 26 154)"></ellipse>
<ellipse cx="77" cy="148" rx="17" ry="102" style="fill:rgb(87,102,116)" transform="rotate(223 77 148)"></ellipse>
<ellipse cx="46" cy="127" rx="53" ry="1" style="fill:rgb(101,118,106)" transform="rotate(96 46 127)"></ellipse>
<ellipse cx="0" cy="3" rx="3" ry="196" style="fill:rgb(215,216,132)" transform="rotate(201 0 3)"></ellipse>
<ellipse cx="59" cy="21" rx="7" ry="1" style="fill:rgb(120,26,20)" transform="rotate(195 59 21)"></ellipse>
<ellipse cx="32" cy="185" rx="17" ry="146" style="fill:rgb(193,76,215)" transform="rotate(224 32 185)"></ellipse>
<ellipse cx="23" cy="183" rx="53" ry="173" style="fill:rgb(158,125,255)" transform="rotate(237 23 183)"></ellipse>
<ellipse cx="72" cy="68" rx="11" ry="1" style="fill:rgb(63,90,68)" transform="rotate(147 72 68)"></ellipse>
<ellipse cx="71" cy="88" rx="5" ry="74" style="fill:rgb(195,167,192)" transform="rotate(264 71 88)"></ellipse>
<ellipse cx="76" cy="8" rx="0" ry="2" style="fill:rgb(77,29,115)" transform="rotate(210 76 8)"></ellipse>
<ellipse cx="2" cy="1" rx="2" ry="192" style="fill:rgb(185,142,242)" transform="rotate(188 2 1)"></ellipse>
<ellipse cx="32" cy="35" rx="0" ry="4" style="fill:rgb(129,134,163)" transform="rotate(312 32 35)"></ellipse>
<ellipse cx="67" cy="141" rx="38" ry="173" style="fill:rgb(235,197,215)" transform="rotate(253 67 141)"></ellipse>
<ellipse cx="49" cy="8" rx="3" ry="2" style="fill:rgb(6,39,98)" transform="rotate(75 49 8)"></ellipse>
<ellipse cx="41" cy="106" rx="56" ry="5" style="fill:rgb(250,247,223)" transform="rotate(151 41 106)"></ellipse>
<ellipse cx="79" cy="146" rx="2" ry="177" style="fill:rgb(3,94,139)" transform="rotate(226 79 146)"></ellipse>
<ellipse cx="38" cy="192" rx="54" ry="164" style="fill:rgb(220,61,233)" transform="rotate(230 38 192)"></ellipse>
<ellipse cx="74" cy="33" rx="4" ry="11" style="fill:rgb(54,127,79)" transform="rotate(126 74 33)"></ellipse>
<ellipse cx="55" cy="14" rx="1" ry="13" style="fill:rgb(116,135,66)" transform="rotate(106 55 14)"></ellipse>
<ellipse cx="43" cy="37" rx="16" ry="6" style="fill:rgb(32,77,116)" transform="rotate(261 43 37)"></ellipse>
<ellipse cx="19" cy="113" rx="16" ry="144" style="fill:rgb(230,226,250)" transform="rotate(308 19 113)"></ellipse>
<ellipse cx="20" cy="52" rx="8" ry="4" style="fill:rgb(2,66,86)" transform="rotate(216 20 52)"></ellipse>
<ellipse cx="39" cy="187" rx="7" ry="153" style="fill:rgb(222,123,214)" transform="rotate(45 39 187)"></ellipse>
<ellipse cx="39" cy="163" rx="6" ry="131" style="fill:rgb(177,208,214)" transform="rotate(50 39 163)"></ellipse>
<ellipse cx="30" cy="145" rx="53" ry="71" style="fill:rgb(223,223,217)" transform="rotate(34 30 145)"></ellipse>
<ellipse cx="15" cy="51" rx="4" ry="9" style="fill:rgb(20,36,116)" transform="rotate(322 15 51)"></ellipse>
<ellipse cx="13" cy="173" rx="9" ry="167" style="fill:rgb(74,255,189)" transform="rotate(236 13 173)"></ellipse>
<ellipse cx="70" cy="58" rx="11" ry="2" style="fill:rgb(154,82,73)" transform="rotate(311 70 58)"></ellipse>
<ellipse cx="43" cy="15" rx="14" ry="5" style="fill:rgb(2,14,121)" transform="rotate(205 43 15)"></ellipse>
<ellipse cx="78" cy="190" rx="32" ry="130" style="fill:rgb(185,216,187)" transform="rotate(32 78 190)"></ellipse>
<ellipse cx="28" cy="33" rx="0" ry="2" style="fill:rgb(215,97,157)" transform="rotate(259 28 33)"></ellipse>
<ellipse cx="41" cy="65" rx="0" ry="5" style="fill:rgb(8,87,98)" transform="rotate(309 41 65)"></ellipse>
<ellipse cx="47" cy="109" rx="18" ry="126" style="fill:rgb(149,160,214)" transform="rotate(79 47 109)"></ellipse>
<ellipse cx="79" cy="64" rx="1" ry="1" style="fill:rgb(226,131,124)" transform="rotate(0 79 64)"></ellipse>
<ellipse cx="24" cy="179" rx="64" ry="162" style="fill:rgb(238,251,177)" transform="rotate(59 24 179)"></ellipse>
<ellipse cx="68" cy="4" rx="1" ry="192" style="fill:rgb(58,89,66)" transform="rotate(90 68 4)"></ellipse>
<ellipse cx="52" cy="22" rx="12" ry="3" style="fill:rgb(64,80,143)" transform="rotate(200 52 22)"></ellipse>
<ellipse cx="33" cy="166" rx="78" ry="97" style="fill:rgb(227,250,218)" transform="rotate(48 33 166)"></ellipse>
<ellipse cx="68" cy="69" rx="4" ry="5" style="fill:rgb(29,26,52)" transform="rotate(12 68 69)"></ellipse>
<ellipse cx="8" cy="158" rx="21" ry="141" style="fill:rgb(214,253,206)" transform="rotate(237 8 158)"></ellipse>
<ellipse cx="1" cy="1" rx="3" ry="71" style="fill:rgb(165,166,92)" transform="rotate(71 1 1)"></ellipse>
<ellipse cx="21" cy="72" rx="3" ry="8" style="fill:rgb(17,58,86)" transform="rotate(283 21 72)"></ellipse>
<ellipse cx="24" cy="157" rx="26" ry="153" style="fill:rgb(254,155,178)" transform="rotate(241 24 157)"></ellipse>
<ellipse cx="69" cy="35" rx="5" ry="2" style="fill:rgb(133,75,62)" transform="rotate(116 69 35)"></ellipse>
<ellipse cx="13" cy="0" rx="0" ry="84" style="fill:rgb(184,158,188)" transform="rotate(79 13 0)"></ellipse>
<ellipse cx="55" cy="191" rx="60" ry="180" style="fill:rgb(245,235,204)" transform="rotate(56 55 191)"></ellipse>
<ellipse cx="41" cy="166" rx="79" ry="196" style="fill:rgb(238,233,187)" transform="rotate(258 41 166)"></ellipse>
<ellipse cx="49" cy="22" rx="5" ry="1" style="fill:rgb(28,63,195)" transform="rotate(172 49 22)"></ellipse>
<ellipse cx="69" cy="55" rx="0" ry="8" style="fill:rgb(172,182,147)" transform="rotate(232 69 55)"></ellipse>
<ellipse cx="22" cy="141" rx="63" ry="33" style="fill:rgb(255,247,224)" transform="rotate(78 22 141)"></ellipse>
<ellipse cx="33" cy="42" rx="3" ry="2" style="fill:rgb(103,141,106)" transform="rotate(357 33 42)"></ellipse>
<ellipse cx="79" cy="25" rx="11" ry="2" style="fill:rgb(160,159,120)" transform="rotate(18 79 25)"></ellipse>
<ellipse cx="71" cy="17" rx="4" ry="0" style="fill:rgb(236,219,122)" transform="rotate(190 71 17)"></ellipse>
<ellipse cx="77" cy="16" rx="1" ry="2" style="fill:rgb(191,246,222)" transform="rotate(76 77 16)"></ellipse>
<ellipse cx="10" cy="53" rx="6" ry="9" style="fill:rgb(7,70,92)" transform="rotate(194 10 53)"></ellipse>
<ellipse cx="46" cy="49" rx="3" ry="1" style="fill:rgb(3,55,121)" transform="rotate(274 46 49)"></ellipse>
<ellipse cx="1" cy="0" rx="3" ry="109" style="fill:rgb(207,163,227)" transform="rotate(259 1 0)"></ellipse>
<ellipse cx="12" cy="34" rx="8" ry="8" style="fill:rgb(12,38,122)" transform="rotate(96 12 34)"></ellipse>
<ellipse cx="73" cy="146" rx="61" ry="89" style="fill:rgb(211,244,237)" transform="rotate(245 73 146)"></ellipse>
<ellipse cx="73" cy="120" rx="21" ry="42" style="fill:rgb(215,214,237)" transform="rotate(17 73 120)"></ellipse>
<ellipse cx="32" cy="13" rx="10" ry="3" style="fill:rgb(39,69,152)" transform="rotate(338 32 13)"></ellipse>
<ellipse cx="35" cy="51" rx="9" ry="2" style="fill:rgb(22,63,127)" transform="rotate(175 35 51)"></ellipse>
<ellipse cx="33" cy="18" rx="4" ry="8" style="fill:rgb(22,56,129)" transform="rotate(184 33 18)"></ellipse>
<ellipse cx="45" cy="62" rx="0" ry="0" style="fill:rgb(220,123,12)" transform="rotate(313 45 62)"></ellipse>
<ellipse cx="40" cy="105" rx="26" ry="52" style="fill:rgb(254,232,229)" transform="rotate(265 40 105)"></ellipse>
<ellipse cx="11" cy="0" rx="0" ry="184" style="fill:rgb(228,209,200)" transform="rotate(79 11 0)"></ellipse>
<ellipse cx="37" cy="139" rx="79" ry="33" style="fill:rgb(247,208,250)" transform="rotate(315 37 139)"></ellipse>
<ellipse cx="7" cy="33" rx="2" ry="8" style="fill:rgb(19,20,106)" transform="rotate(143 7 33)"></ellipse>
<ellipse cx="34" cy="24" rx="10" ry="3" style="fill:rgb(7,79,123)" transform="rotate(197 34 24)"></ellipse>
<ellipse cx="46" cy="129" rx="38" ry="147" style="fill:rgb(250,238,181)" transform="rotate(77 46 129)"></ellipse>
<ellipse cx="66" cy="41" rx="1" ry="0" style="fill:rgb(164,90,183)" transform="rotate(15 66 41)"></ellipse>
<ellipse cx="74" cy="65" rx="8" ry="6" style="fill:rgb(33,18,68)" transform="rotate(92 74 65)"></ellipse>
<ellipse cx="41" cy="8" rx="0" ry="0" style="fill:rgb(255,232,110)" transform="rotate(49 41 8)"></ellipse>
<ellipse cx="46" cy="62" rx="2" ry="1" style="fill:rgb(97,160,187)" transform="rotate(44 46 62)"></ellipse>
<ellipse cx="58" cy="13" rx="0" ry="8" style="fill:rgb(219,145,72)" transform="rotate(92 58 13)"></ellipse>
<ellipse cx="44" cy="10" rx="0" ry="116" style="fill:rgb(220,163,83)" transform="rotate(116 44 10)"></ellipse>
<ellipse cx="71" cy="7" rx="2" ry="7" style="fill:rgb(14,86,91)" transform="rotate(287 71 7)"></ellipse>
<ellipse cx="59" cy="8" rx="10" ry="0" style="fill:rgb(5,42,118)" transform="rotate(180 59 8)"></ellipse>
<ellipse cx="67" cy="40" rx="2" ry="11" style="fill:rgb(139,185,82)" transform="rotate(184 67 40)"></ellipse>
<ellipse cx="13" cy="50" rx="9" ry="6" style="fill:rgb(18,52,132)" transform="rotate(50 13 50)"></ellipse>
<ellipse cx="64" cy="39" rx="3" ry="3" style="fill:rgb(49,74,138)" transform="rotate(277 64 39)"></ellipse>
<ellipse cx="5" cy="2" rx="57" ry="0" style="fill:rgb(167,210,221)" transform="rotate(347 5 2)"></ellipse>
<ellipse cx="28" cy="20" rx="15" ry="4" style="fill:rgb(27,68,128)" transform="rotate(110 28 20)"></ellipse>
<ellipse cx="2" cy="16" rx="41" ry="0" style="fill:rgb(172,135,125)" transform="rotate(94 2 16)"></ellipse>
<ellipse cx="79" cy="13" rx="13" ry="1" style="fill:rgb(206,230,194)" transform="rotate(146 79 13)"></ellipse>
<ellipse cx="10" cy="122" rx="75" ry="0" style="fill:rgb(150,93,97)" transform="rotate(132 10 122)"></ellipse>
<ellipse cx="65" cy="49" rx="3" ry="0" style="fill:rgb(208,76,154)" transform="rotate(135 65 49)"></ellipse>
<ellipse cx="74" cy="60" rx="22" ry="1" style="fill:rgb(188,156,124)" transform="rotate(209 74 60)"></ellipse>
<ellipse cx="31" cy="24" rx="24" ry="2" style="fill:rgb(21,51,144)" transform="rotate(12 31 24)"></ellipse>
<ellipse cx="71" cy="43" rx="2" ry="26" style="fill:rgb(73,62,109)" transform="rotate(59 71 43)"></ellipse>
<ellipse cx="78" cy="55" rx="0" ry="3" style="fill:rgb(101,133,113)" transform="rotate(336 78 55)"></ellipse>
<ellipse cx="79" cy="47" rx="0" ry="6" style="fill:rgb(125,200,241)" transform="rotate(63 79 47)"></ellipse>
<ellipse cx="39" cy="125" rx="56" ry="43" style="fill:rgb(250,164,236)" transform="rotate(155 39 125)"></ellipse>
<ellipse cx="33" cy="35" rx="2" ry="5" style="fill:rgb(140,148,190)" transform="rotate(70 33 35)"></ellipse>
<ellipse cx="19" cy="58" rx="18" ry="5" style="fill:rgb(0,46,115)" transform="rotate(229 19 58)"></ellipse>
<ellipse cx="28" cy="199" rx="44" ry="190" style="fill:rgb(224,227,227)" transform="rotate(233 28 199)"></ellipse>
<ellipse cx="31" cy="182" rx="11" ry="166" style="fill:rgb(230,164,206)" transform="rotate(52 31 182)"></ellipse>
<ellipse cx="55" cy="117" rx="36" ry="41" style="fill:rgb(242,191,226)" transform="rotate(307 55 117)"></ellipse>
<ellipse cx="29" cy="40" rx="1" ry="2" style="fill:rgb(162,194,201)" transform="rotate(164 29 40)"></ellipse>
<ellipse cx="74" cy="101" rx="6" ry="180" style="fill:rgb(251,207,216)" transform="rotate(82 74 101)"></ellipse>
<ellipse cx="2" cy="147" rx="14" ry="195" style="fill:rgb(235,240,253)" transform="rotate(70 2 147)"></ellipse>
<ellipse cx="49" cy="33" rx="0" ry="14" style="fill:rgb(40,91,139)" transform="rotate(30 49 33)"></ellipse>
<ellipse cx="34" cy="89" rx="0" ry="154" style="fill:rgb(249,222,243)" transform="rotate(287 34 89)"></ellipse>
<ellipse cx="55" cy="28" rx="2" ry="0" style="fill:rgb(32,45,165)" transform="rotate(21 55 28)"></ellipse>
<ellipse cx="15" cy="37" rx="5" ry="7" style="fill:rgb(14,66,97)" transform="rotate(128 15 37)"></ellipse>
<ellipse cx="66" cy="132" rx="53" ry="54" style="fill:rgb(226,232,241)" transform="rotate(303 66 132)"></ellipse>
<ellipse cx="59" cy="107" rx="29" ry="26" style="fill:rgb(253,233,213)" transform="rotate(63 59 107)"></ellipse>
<ellipse cx="42" cy="153" rx="75" ry="55" style="fill:rgb(225,223,240)" transform="rotate(282 42 153)"></ellipse>
<ellipse cx="25" cy="182" rx="18" ry="119" style="fill:rgb(238,251,247)" transform="rotate(210 25 182)"></ellipse>
<ellipse cx="57" cy="149" rx="11" ry="118" style="fill:rgb(122,223,243)" transform="rotate(54 57 149)"></ellipse>
<ellipse cx="79" cy="117" rx="34" ry="97" style="fill:rgb(244,234,191)" transform="rotate(79 79 117)"></ellipse>
<ellipse cx="2" cy="30" rx="74" ry="0" style="fill:rgb(37,76,187)" transform="rotate(90 2 30)"></ellipse>
<ellipse cx="33" cy="90" rx="4" ry="137" style="fill:rgb(142,251,186)" transform="rotate(102 33 90)"></ellipse>
<ellipse cx="71" cy="37" rx="0" ry="2" style="fill:rgb(8,74,112)" transform="rotate(253 71 37)"></ellipse>
<ellipse cx="49" cy="177" rx="11" ry="178" style="fill:rgb(248,194,158)" transform="rotate(149 49 177)"></ellipse>
<ellipse cx="0" cy="2" rx="12" ry="1" style="fill:rgb(218,62,163)" transform="rotate(138 0 2)"></ellipse>
<ellipse cx="5" cy="2" rx="20" ry="0" style="fill:rgb(247,123,220)" transform="rotate(320 5 2)"></ellipse>
<ellipse cx="46" cy="0" rx="1" ry="7" style="fill:rgb(247,129,154)" transform="rotate(196 46 0)"></ellipse>
<ellipse cx="73" cy="127" rx="14" ry="91" style="fill:rgb(143,250,203)" transform="rotate(59 73 127)"></ellipse>
<ellipse cx="3" cy="1" rx="1" ry="3" style="fill:rgb(250,221,194)" transform="rotate(144 3 1)"></ellipse>
<ellipse cx="29" cy="94" rx="10" ry="74" style="fill:rgb(205,193,186)" transform="rotate(281 29 94)"></ellipse>
<ellipse cx="59" cy="61" rx="2" ry="5" style="fill:rgb(232,231,93)" transform="rotate(211 59 61)"></ellipse>
<ellipse cx="36" cy="22" rx="11" ry="6" style="fill:rgb(28,71,134)" transform="rotate(227 36 22)"></ellipse>
<ellipse cx="25" cy="94" rx="4" ry="188" style="fill:rgb(248,207,164)" transform="rotate(293 25 94)"></ellipse>
<ellipse cx="61" cy="29" rx="2" ry="6" style="fill:rgb(10,44,183)" transform="rotate(83 61 29)"></ellipse>
<ellipse cx="74" cy="150" rx="23" ry="128" style="fill:rgb(218,217,197)" transform="rotate(306 74 150)"></ellipse>
<ellipse cx="6" cy="190" rx="33" ry="116" style="fill:rgb(230,242,215)" transform="rotate(172 6 190)"></ellipse>
<ellipse cx="75" cy="91" rx="8" ry="52" style="fill:rgb(254,236,228)" transform="rotate(100 75 91)"></ellipse>
<ellipse cx="71" cy="155" rx="1" ry="106" style="fill:rgb(217,196,195)" transform="rotate(224 71 155)"></ellipse>
<ellipse cx="62" cy="66" rx="1" ry="1" style="fill:rgb(125,140,18)" transform="rotate(267 62 66)"></ellipse>
<ellipse cx="12" cy="151" rx="24" ry="163" style="fill:rgb(160,224,198)" transform="rotate(245 12 151)"></ellipse>
<ellipse cx="57" cy="122" rx="20" ry="109" style="fill:rgb(191,215,187)" transform="rotate(69 57 122)"></ellipse>
<ellipse cx="11" cy="114" rx="29" ry="101" style="fill:rgb(208,231,221)" transform="rotate(293 11 114)"></ellipse>
<ellipse cx="68" cy="44" rx="11" ry="1" style="fill:rgb(135,127,79)" transform="rotate(277 68 44)"></ellipse>
<ellipse cx="8" cy="0" rx="0" ry="3" style="fill:rgb(92,241,236)" transform="rotate(57 8 0)"></ellipse>
<ellipse cx="79" cy="31" rx="0" ry="3" style="fill:rgb(146,49,52)" transform="rotate(112 79 31)"></ellipse>
<ellipse cx="61" cy="22" rx="3" ry="4" style="fill:rgb(35,16,96)" transform="rotate(73 61 22)"></ellipse>
<ellipse cx="14" cy="193" rx="59" ry="185" style="fill:rgb(224,244,239)" transform="rotate(236 14 193)"></ellipse>
<ellipse cx="3" cy="183" rx="18" ry="158" style="fill:rgb(214,225,236)" transform="rotate(49 3 183)"></ellipse>
<ellipse cx="0" cy="0" rx="1" ry="1" style="fill:rgb(128,109,67)" transform="rotate(298 0 0)"></ellipse>
<ellipse cx="62" cy="188" rx="1" ry="145" style="fill:rgb(15,51,91)" transform="rotate(196 62 188)"></ellipse>
<ellipse cx="41" cy="172" rx="44" ry="109" style="fill:rgb(237,239,233)" transform="rotate(35 41 172)"></ellipse>
<ellipse cx="42" cy="21" rx="22" ry="6" style="fill:rgb(5,75,124)" transform="rotate(183 42 21)"></ellipse>
<ellipse cx="79" cy="24" rx="3" ry="1" style="fill:rgb(75,111,64)" transform="rotate(212 79 24)"></ellipse>
<ellipse cx="41" cy="2" rx="6" ry="0" style="fill:rgb(164,122,131)" transform="rotate(184 41 2)"></ellipse>
</svg>