<svg><ellipse cx="62" cy="216" rx="201" ry="164" style="fill:rgb(2,41,102)" transform="rotate(208 62 216)"></ellipse>
<ellipse cx="209" cy="51" rx="34" ry="164" style="fill:rgb(21,45,77)" transform="rotate(99 209 51)"></ellipse>
<ellipse cx="47" cy="202" rx="119" ry="18" style="fill:rgb(1,32,84)" transform="rotate(215 47 202)"></ellipse>
<ellipse cx="154" cy="105" rx="93" ry="34" style="fill:rgb(2,46,135)" transform="rotate(329 154 105)"></ellipse>
<ellipse cx="128" cy="69" rx="35" ry="25" style="fill:rgb(14,102,165)" transform="rotate(180 128 69)"></ellipse>
<ellipse cx="197" cy="94" rx="58" ry="109" style="fill:rgb(12,26,100)" transform="rotate(162 197 94)"></ellipse>
<ellipse cx="73" cy="200" rx="81" ry="50" style="fill:rgb(11,10,61)" transform="rotate(235 73 200)"></ellipse>
<ellipse cx="122" cy="5" rx="68" ry="183" style="fill:rgb(7,14,62)" transform="rotate(260 122 5)"></ellipse>
<ellipse cx="18" cy="159" rx="98" ry="34" style="fill:rgb(8,19,89)" transform="rotate(9 18 159)"></ellipse>
<ellipse cx="221" cy="211" rx="36" ry="130" style="fill:rgb(22,15,82)" transform="rotate(4 221 211)"></ellipse>
<ellipse cx="133" cy="86" rx="42" ry="25" style="fill:rgb(32,127,166)" transform="rotate(123 133 86)"></ellipse>
<ellipse cx="216" cy="208" rx="56" ry="199" style="fill:rgb(0,35,78)" transform="rotate(271 216 208)"></ellipse>
<ellipse cx="210" cy="223" rx="45" ry="24" style="fill:rgb(8,21,16)" transform="rotate(112 210 223)"></ellipse>
<ellipse cx="5" cy="154" rx="82" ry="6" style="fill:rgb(29,15,31)" transform="rotate(37 5 154)"></ellipse>
<ellipse cx="22" cy="133" rx="58" ry="14" style="fill:rgb(9,32,21)" transform="rotate(104 22 133)"></ellipse>
<ellipse cx="108" cy="123" rx="38" ry="7" style="fill:rgb(3,96,187)" transform="rotate(135 108 123)"></ellipse>
<ellipse cx="215" cy="59" rx="100" ry="8" style="fill:rgb(3,2,86)" transform="rotate(138 215 59)"></ellipse>
<ellipse cx="54" cy="199" rx="27" ry="130" style="fill:rgb(20,9,54)" transform="rotate(355 54 199)"></ellipse>
<ellipse cx="23" cy="207" rx="63" ry="133" style="fill:rgb(20,2,38)" transform="rotate(348 23 207)"></ellipse>
<ellipse cx="76" cy="175" rx="5" ry="44" style="fill:rgb(23,47,71)" transform="rotate(134 76 175)"></ellipse>
<ellipse cx="18" cy="173" rx="211" ry="2" style="fill:rgb(0,22,105)" transform="rotate(130 18 173)"></ellipse>
<ellipse cx="97" cy="84" rx="11" ry="10" style="fill:rgb(42,252,203)" transform="rotate(61 97 84)"></ellipse>
<ellipse cx="134" cy="72" rx="14" ry="9" style="fill:rgb(62,66,187)" transform="rotate(193 134 72)"></ellipse>
<ellipse cx="86" cy="81" rx="52" ry="7" style="fill:rgb(24,4,126)" transform="rotate(115 86 81)"></ellipse>
<ellipse cx="35" cy="73" rx="122" ry="4" style="fill:rgb(47,21,119)" transform="rotate(172 35 73)"></ellipse>
<ellipse cx="221" cy="178" rx="76" ry="40" style="fill:rgb(2,11,23)" transform="rotate(333 221 178)"></ellipse>
<ellipse cx="72" cy="157" rx="24" ry="28" style="fill:rgb(8,18,112)" transform="rotate(233 72 157)"></ellipse>
<ellipse cx="108" cy="88" rx="22" ry="25" style="fill:rgb(90,144,228)" transform="rotate(48 108 88)"></ellipse>
<ellipse cx="96" cy="131" rx="9" ry="26" style="fill:rgb(4,98,182)" transform="rotate(50 96 131)"></ellipse>
<ellipse cx="7" cy="77" rx="1" ry="4" style="fill:rgb(8,47,112)" transform="rotate(185 7 77)"></ellipse>
<ellipse cx="216" cy="64" rx="202" ry="11" style="fill:rgb(14,25,62)" transform="rotate(84 216 64)"></ellipse>
<ellipse cx="98" cy="146" rx="4" ry="31" style="fill:rgb(37,37,189)" transform="rotate(263 98 146)"></ellipse>
<ellipse cx="188" cy="143" rx="45" ry="38" style="fill:rgb(1,20,81)" transform="rotate(108 188 143)"></ellipse>
<ellipse cx="59" cy="151" rx="10" ry="220" style="fill:rgb(11,9,80)" transform="rotate(311 59 151)"></ellipse>
<ellipse cx="205" cy="88" rx="35" ry="70" style="fill:rgb(3,34,105)" transform="rotate(78 205 88)"></ellipse>
<ellipse cx="195" cy="22" rx="54" ry="142" style="fill:rgb(6,21,58)" transform="rotate(146 195 22)"></ellipse>
<ellipse cx="23" cy="147" rx="17" ry="90" style="fill:rgb(14,12,89)" transform="rotate(216 23 147)"></ellipse>
<ellipse cx="112" cy="203" rx="10" ry="81" style="fill:rgb(12,7,33)" transform="rotate(89 112 203)"></ellipse>
<ellipse cx="46" cy="30" rx="201" ry="59" style="fill:rgb(0,19,70)" transform="rotate(145 46 30)"></ellipse>
<ellipse cx="112" cy="123" rx="47" ry="18" style="fill:rgb(2,147,215)" transform="rotate(200 112 123)"></ellipse>
<ellipse cx="119" cy="93" rx="43" ry="10" style="fill:rgb(39,136,195)" transform="rotate(65 119 93)"></ellipse>
<ellipse cx="71" cy="176" rx="21" ry="191" style="fill:rgb(21,12,74)" transform="rotate(319 71 176)"></ellipse>
<ellipse cx="4" cy="172" rx="131" ry="38" style="fill:rgb(3,13,54)" transform="rotate(85 4 172)"></ellipse>
<ellipse cx="96" cy="4" rx="19" ry="204" style="fill:rgb(29,7,99)" transform="rotate(196 96 4)"></ellipse>
<ellipse cx="1" cy="49" rx="206" ry="46" style="fill:rgb(14,18,59)" transform="rotate(300 1 49)"></ellipse>
<ellipse cx="142" cy="132" rx="19" ry="36" style="fill:rgb(24,57,173)" transform="rotate(42 142 132)"></ellipse>
<ellipse cx="217" cy="183" rx="120" ry="36" style="fill:rgb(4,11,39)" transform="rotate(264 217 183)"></ellipse>
<ellipse cx="99" cy="35" rx="69" ry="30" style="fill:rgb(20,1,62)" transform="rotate(329 99 35)"></ellipse>
<ellipse cx="48" cy="4" rx="94" ry="78" style="fill:rgb(3,4,76)" transform="rotate(298 48 4)"></ellipse>
<ellipse cx="169" cy="130" rx="111" ry="5" style="fill:rgb(0,5,79)" transform="rotate(268 169 130)"></ellipse>
<ellipse cx="46" cy="13" rx="186" ry="5" style="fill:rgb(14,6,54)" transform="rotate(4 46 13)"></ellipse>
<ellipse cx="167" cy="76" rx="1" ry="20" style="fill:rgb(10,75,161)" transform="rotate(21 167 76)"></ellipse>
<ellipse cx="146" cy="11" rx="24" ry="136" style="fill:rgb(0,17,59)" transform="rotate(296 146 11)"></ellipse>
<ellipse cx="18" cy="4" rx="2" ry="3" style="fill:rgb(6,0,35)" transform="rotate(176 18 4)"></ellipse>
<ellipse cx="120" cy="39" rx="88" ry="6" style="fill:rgb(7,40,61)" transform="rotate(206 120 39)"></ellipse>
<ellipse cx="184" cy="35" rx="33" ry="158" style="fill:rgb(14,1,62)" transform="rotate(102 184 35)"></ellipse>
<ellipse cx="63" cy="221" rx="66" ry="48" style="fill:rgb(1,26,52)" transform="rotate(60 63 221)"></ellipse>
<ellipse cx="18" cy="72" rx="199" ry="23" style="fill:rgb(10,21,53)" transform="rotate(93 18 72)"></ellipse>
<ellipse cx="160" cy="127" rx="0" ry="7" style="fill:rgb(46,10,116)" transform="rotate(86 160 127)"></ellipse>
<ellipse cx="23" cy="201" rx="3" ry="56" style="fill:rgb(8,18,41)" transform="rotate(302 23 201)"></ellipse>
<ellipse cx="171" cy="78" rx="8" ry="7" style="fill:rgb(29,41,95)" transform="rotate(69 171 78)"></ellipse>
<ellipse cx="105" cy="106" rx="7" ry="26" style="fill:rgb(33,130,210)" transform="rotate(353 105 106)"></ellipse>
<ellipse cx="123" cy="176" rx="29" ry="19" style="fill:rgb(5,8,100)" transform="rotate(215 123 176)"></ellipse>
<ellipse cx="168" cy="189" rx="15" ry="173" style="fill:rgb(5,14,59)" transform="rotate(263 168 189)"></ellipse>
<ellipse cx="184" cy="36" rx="32" ry="173" style="fill:rgb(4,7,42)" transform="rotate(98 184 36)"></ellipse>
<ellipse cx="90" cy="139" rx="12" ry="7" style="fill:rgb(24,59,234)" transform="rotate(114 90 139)"></ellipse>
<ellipse cx="33" cy="55" rx="7" ry="150" style="fill:rgb(5,3,64)" transform="rotate(209 33 55)"></ellipse>
<ellipse cx="78" cy="60" rx="33" ry="2" style="fill:rgb(3,27,110)" transform="rotate(237 78 60)"></ellipse>
<ellipse cx="78" cy="151" rx="9" ry="12" style="fill:rgb(39,87,167)" transform="rotate(233 78 151)"></ellipse>
<ellipse cx="177" cy="71" rx="3" ry="26" style="fill:rgb(54,63,161)" transform="rotate(291 177 71)"></ellipse>
<ellipse cx="184" cy="77" rx="5" ry="6" style="fill:rgb(49,63,80)" transform="rotate(307 184 77)"></ellipse>
<ellipse cx="9" cy="20" rx="21" ry="52" style="fill:rgb(3,3,43)" transform="rotate(346 9 20)"></ellipse>
<ellipse cx="128" cy="174" rx="42" ry="2" style="fill:rgb(0,32,98)" transform="rotate(168 128 174)"></ellipse>
<ellipse cx="41" cy="213" rx="135" ry="17" style="fill:rgb(13,1,38)" transform="rotate(232 41 213)"></ellipse>
<ellipse cx="140" cy="91" rx="3" ry="9" style="fill:rgb(33,41,104)" transform="rotate(118 140 91)"></ellipse>
<ellipse cx="128" cy="126" rx="14" ry="16" style="fill:rgb(86,139,224)" transform="rotate(102 128 126)"></ellipse>
<ellipse cx="120" cy="54" rx="2" ry="6" style="fill:rgb(7,15,112)" transform="rotate(218 120 54)"></ellipse>
<ellipse cx="78" cy="79" rx="6" ry="17" style="fill:rgb(54,43,119)" transform="rotate(18 78 79)"></ellipse>
<ellipse cx="157" cy="131" rx="0" ry="20" style="fill:rgb(5,11,99)" transform="rotate(169 157 131)"></ellipse>
<ellipse cx="211" cy="90" rx="38" ry="42" style="fill:rgb(4,8,60)" transform="rotate(32 211 90)"></ellipse>
<ellipse cx="125" cy="140" rx="5" ry="8" style="fill:rgb(21,57,151)" transform="rotate(137 125 140)"></ellipse>
<ellipse cx="63" cy="194" rx="3" ry="190" style="fill:rgb(15,38,96)" transform="rotate(191 63 194)"></ellipse>
<ellipse cx="88" cy="212" rx="144" ry="0" style="fill:rgb(8,5,72)" transform="rotate(256 88 212)"></ellipse>
<ellipse cx="43" cy="219" rx="175" ry="6" style="fill:rgb(6,18,37)" transform="rotate(4 43 219)"></ellipse>
<ellipse cx="1" cy="99" rx="19" ry="12" style="fill:rgb(15,8,52)" transform="rotate(61 1 99)"></ellipse>
<ellipse cx="84" cy="170" rx="10" ry="11" style="fill:rgb(34,84,154)" transform="rotate(331 84 170)"></ellipse>
<ellipse cx="191" cy="156" rx="15" ry="195" style="fill:rgb(8,4,54)" transform="rotate(208 191 156)"></ellipse>
<ellipse cx="99" cy="55" rx="37" ry="10" style="fill:rgb(17,27,115)" transform="rotate(308 99 55)"></ellipse>
<ellipse cx="39" cy="168" rx="30" ry="17" style="fill:rgb(5,2,51)" transform="rotate(251 39 168)"></ellipse>
<ellipse cx="97" cy="32" rx="22" ry="176" style="fill:rgb(5,21,60)" transform="rotate(100 97 32)"></ellipse>
<ellipse cx="15" cy="21" rx="36" ry="57" style="fill:rgb(7,14,50)" transform="rotate(231 15 21)"></ellipse>
<ellipse cx="68" cy="139" rx="9" ry="61" style="fill:rgb(4,4,106)" transform="rotate(182 68 139)"></ellipse>
<ellipse cx="100" cy="181" rx="27" ry="21" style="fill:rgb(17,1,99)" transform="rotate(300 100 181)"></ellipse>
<ellipse cx="112" cy="60" rx="2" ry="5" style="fill:rgb(223,193,84)" transform="rotate(286 112 60)"></ellipse>
<ellipse cx="174" cy="92" rx="3" ry="8" style="fill:rgb(27,17,96)" transform="rotate(5 174 92)"></ellipse>
<ellipse cx="2" cy="200" rx="89" ry="20" style="fill:rgb(5,6,41)" transform="rotate(73 2 200)"></ellipse>
<ellipse cx="116" cy="73" rx="1" ry="8" style="fill:rgb(115,208,233)" transform="rotate(29 116 73)"></ellipse>
<ellipse cx="28" cy="66" rx="152" ry="6" style="fill:rgb(15,18,64)" transform="rotate(351 28 66)"></ellipse>
<ellipse cx="118" cy="157" rx="4" ry="8" style="fill:rgb(7,50,97)" transform="rotate(15 118 157)"></ellipse>
<ellipse cx="17" cy="91" rx="4" ry="57" style="fill:rgb(6,7,43)" transform="rotate(338 17 91)"></ellipse>
<ellipse cx="59" cy="125" rx="11" ry="14" style="fill:rgb(13,15,110)" transform="rotate(305 59 125)"></ellipse>
<ellipse cx="99" cy="87" rx="0" ry="3" style="fill:rgb(18,182,192)" transform="rotate(283 99 87)"></ellipse>
<ellipse cx="11" cy="173" rx="1" ry="26" style="fill:rgb(1,7,43)" transform="rotate(118 11 173)"></ellipse>
<ellipse cx="16" cy="69" rx="122" ry="33" style="fill:rgb(10,12,54)" transform="rotate(121 16 69)"></ellipse>
<ellipse cx="48" cy="57" rx="106" ry="26" style="fill:rgb(3,12,54)" transform="rotate(331 48 57)"></ellipse>
<ellipse cx="94" cy="128" rx="28" ry="2" style="fill:rgb(31,107,231)" transform="rotate(267 94 128)"></ellipse>
<ellipse cx="124" cy="164" rx="23" ry="9" style="fill:rgb(9,37,97)" transform="rotate(166 124 164)"></ellipse>
<ellipse cx="133" cy="115" rx="4" ry="8" style="fill:rgb(3,138,238)" transform="rotate(116 133 115)"></ellipse>
<ellipse cx="216" cy="188" rx="17" ry="17" style="fill:rgb(9,7,45)" transform="rotate(312 216 188)"></ellipse>
<ellipse cx="127" cy="77" rx="26" ry="5" style="fill:rgb(48,119,182)" transform="rotate(58 127 77)"></ellipse>
<ellipse cx="122" cy="123" rx="17" ry="12" style="fill:rgb(45,172,218)" transform="rotate(208 122 123)"></ellipse>
<ellipse cx="110" cy="212" rx="21" ry="202" style="fill:rgb(5,9,41)" transform="rotate(84 110 212)"></ellipse>
<ellipse cx="78" cy="89" rx="18" ry="3" style="fill:rgb(4,30,118)" transform="rotate(23 78 89)"></ellipse>
<ellipse cx="95" cy="168" rx="14" ry="24" style="fill:rgb(2,43,112)" transform="rotate(37 95 168)"></ellipse>
<ellipse cx="217" cy="2" rx="31" ry="138" style="fill:rgb(4,8,39)" transform="rotate(307 217 2)"></ellipse>
<ellipse cx="70" cy="104" rx="3" ry="16" style="fill:rgb(2,26,105)" transform="rotate(171 70 104)"></ellipse>
<ellipse cx="123" cy="76" rx="0" ry="2" style="fill:rgb(85,131,239)" transform="rotate(131 123 76)"></ellipse>
<ellipse cx="26" cy="4" rx="152" ry="9" style="fill:rgb(2,8,25)" transform="rotate(299 26 4)"></ellipse>
<ellipse cx="63" cy="90" rx="13" ry="12" style="fill:rgb(1,6,97)" transform="rotate(292 63 90)"></ellipse>
<ellipse cx="80" cy="141" rx="1" ry="2" style="fill:rgb(16,88,210)" transform="rotate(89 80 141)"></ellipse>
<ellipse cx="195" cy="62" rx="35" ry="7" style="fill:rgb(5,11,52)" transform="rotate(57 195 62)"></ellipse>
<ellipse cx="106" cy="60" rx="8" ry="7" style="fill:rgb(32,101,218)" transform="rotate(108 106 60)"></ellipse>
<ellipse cx="141" cy="88" rx="4" ry="3" style="fill:rgb(16,57,193)" transform="rotate(72 141 88)"></ellipse>
<ellipse cx="143" cy="145" rx="1" ry="14" style="fill:rgb(79,138,201)" transform="rotate(349 143 145)"></ellipse>
<ellipse cx="142" cy="151" rx="0" ry="5" style="fill:rgb(32,65,220)" transform="rotate(126 142 151)"></ellipse>
<ellipse cx="99" cy="101" rx="18" ry="5" style="fill:rgb(18,188,199)" transform="rotate(239 99 101)"></ellipse>
<ellipse cx="90" cy="153" rx="13" ry="0" style="fill:rgb(20,173,223)" transform="rotate(321 90 153)"></ellipse>
<ellipse cx="29" cy="79" rx="107" ry="7" style="fill:rgb(10,6,74)" transform="rotate(342 29 79)"></ellipse>
<ellipse cx="193" cy="69" rx="2" ry="3" style="fill:rgb(6,112,211)" transform="rotate(245 193 69)"></ellipse>
<ellipse cx="119" cy="77" rx="9" ry="8" style="fill:rgb(62,121,201)" transform="rotate(247 119 77)"></ellipse>
<ellipse cx="121" cy="194" rx="6" ry="13" style="fill:rgb(10,28,89)" transform="rotate(298 121 194)"></ellipse>
<ellipse cx="169" cy="71" rx="0" ry="3" style="fill:rgb(159,84,232)" transform="rotate(282 169 71)"></ellipse>
<ellipse cx="175" cy="120" rx="33" ry="19" style="fill:rgb(14,4,91)" transform="rotate(305 175 120)"></ellipse>
<ellipse cx="60" cy="71" rx="0" ry="2" style="fill:rgb(8,89,199)" transform="rotate(273 60 71)"></ellipse>
<ellipse cx="109" cy="68" rx="1" ry="14" style="fill:rgb(55,240,245)" transform="rotate(17 109 68)"></ellipse>
<ellipse cx="157" cy="200" rx="23" ry="116" style="fill:rgb(1,7,59)" transform="rotate(276 157 200)"></ellipse>
<ellipse cx="127" cy="156" rx="13" ry="1" style="fill:rgb(10,5,110)" transform="rotate(325 127 156)"></ellipse>
<ellipse cx="109" cy="89" rx="21" ry="18" style="fill:rgb(27,174,226)" transform="rotate(178 109 89)"></ellipse>
<ellipse cx="180" cy="66" rx="5" ry="6" style="fill:rgb(31,74,209)" transform="rotate(359 180 66)"></ellipse>
<ellipse cx="122" cy="117" rx="2" ry="21" style="fill:rgb(1,90,204)" transform="rotate(312 122 117)"></ellipse>
<ellipse cx="31" cy="88" rx="26" ry="82" style="fill:rgb(1,9,62)" transform="rotate(14 31 88)"></ellipse>
<ellipse cx="91" cy="82" rx="3" ry="15" style="fill:rgb(115,1,88)" transform="rotate(190 91 82)"></ellipse>
<ellipse cx="78" cy="21" rx="19" ry="119" style="fill:rgb(1,0,51)" transform="rotate(86 78 21)"></ellipse>
<ellipse cx="186" cy="35" rx="35" ry="18" style="fill:rgb(2,13,51)" transform="rotate(335 186 35)"></ellipse>
<ellipse cx="89" cy="147" rx="5" ry="15" style="fill:rgb(24,132,230)" transform="rotate(37 89 147)"></ellipse>
<ellipse cx="199" cy="195" rx="5" ry="13" style="fill:rgb(2,8,40)" transform="rotate(61 199 195)"></ellipse>
<ellipse cx="89" cy="69" rx="4" ry="20" style="fill:rgb(20,28,90)" transform="rotate(62 89 69)"></ellipse>
<ellipse cx="67" cy="77" rx="35" ry="0" style="fill:rgb(7,17,104)" transform="rotate(57 67 77)"></ellipse>
<ellipse cx="105" cy="125" rx="53" ry="2" style="fill:rgb(53,117,196)" transform="rotate(303 105 125)"></ellipse>
<ellipse cx="88" cy="69" rx="11" ry="5" style="fill:rgb(33,71,152)" transform="rotate(37 88 69)"></ellipse>
<ellipse cx="109" cy="105" rx="33" ry="15" style="fill:rgb(37,143,196)" transform="rotate(315 109 105)"></ellipse>
<ellipse cx="49" cy="29" rx="10" ry="64" style="fill:rgb(0,6,56)" transform="rotate(37 49 29)"></ellipse>
<ellipse cx="112" cy="111" rx="23" ry="19" style="fill:rgb(30,142,215)" transform="rotate(333 112 111)"></ellipse>
<ellipse cx="169" cy="8" rx="123" ry="34" style="fill:rgb(0,12,48)" transform="rotate(196 169 8)"></ellipse>
<ellipse cx="200" cy="215" rx="85" ry="31" style="fill:rgb(5,9,52)" transform="rotate(172 200 215)"></ellipse>
<ellipse cx="172" cy="70" rx="0" ry="5" style="fill:rgb(3,80,203)" transform="rotate(172 172 70)"></ellipse>
<ellipse cx="129" cy="71" rx="10" ry="1" style="fill:rgb(8,70,179)" transform="rotate(233 129 71)"></ellipse>
<ellipse cx="52" cy="108" rx="66" ry="6" style="fill:rgb(9,7,85)" transform="rotate(105 52 108)"></ellipse>
<ellipse cx="28" cy="17" rx="158" ry="17" style="fill:rgb(1,14,46)" transform="rotate(123 28 17)"></ellipse>
<ellipse cx="165" cy="118" rx="3" ry="14" style="fill:rgb(17,23,94)" transform="rotate(299 165 118)"></ellipse>
<ellipse cx="87" cy="58" rx="33" ry="11" style="fill:rgb(14,26,79)" transform="rotate(124 87 58)"></ellipse>
<ellipse cx="93" cy="134" rx="10" ry="13" style="fill:rgb(4,139,219)" transform="rotate(314 93 134)"></ellipse>
<ellipse cx="153" cy="73" rx="0" ry="5" style="fill:rgb(213,148,245)" transform="rotate(49 153 73)"></ellipse>
<ellipse cx="202" cy="59" rx="58" ry="6" style="fill:rgb(5,2,58)" transform="rotate(357 202 59)"></ellipse>
<ellipse cx="69" cy="96" rx="5" ry="19" style="fill:rgb(5,27,130)" transform="rotate(166 69 96)"></ellipse>
<ellipse cx="202" cy="204" rx="15" ry="201" style="fill:rgb(6,10,34)" transform="rotate(44 202 204)"></ellipse>
<ellipse cx="120" cy="90" rx="4" ry="5" style="fill:rgb(25,187,203)" transform="rotate(313 120 90)"></ellipse>
<ellipse cx="156" cy="69" rx="17" ry="2" style="fill:rgb(107,190,185)" transform="rotate(2 156 69)"></ellipse>
<ellipse cx="157" cy="95" rx="10" ry="18" style="fill:rgb(17,34,120)" transform="rotate(97 157 95)"></ellipse>
</svg>