<svg><ellipse cx="202" cy="117" rx="395" ry="280" style="fill:rgb(218,219,225)" transform="rotate(289 202 117)"></ellipse>
<ellipse cx="155" cy="334" rx="67" ry="98" style="fill:rgb(33,76,113)" transform="rotate(212 155 334)"></ellipse>
<ellipse cx="9" cy="168" rx="316" ry="29" style="fill:rgb(200,218,162)" transform="rotate(209 9 168)"></ellipse>
<ellipse cx="431" cy="315" rx="315" ry="65" style="fill:rgb(172,197,143)" transform="rotate(121 431 315)"></ellipse>
<ellipse cx="77" cy="343" rx="106" ry="8" style="fill:rgb(245,240,210)" transform="rotate(238 77 343)"></ellipse>
<ellipse cx="142" cy="61" rx="398" ry="153" style="fill:rgb(243,233,232)" transform="rotate(17 142 61)"></ellipse>
<ellipse cx="404" cy="239" rx="376" ry="38" style="fill:rgb(248,246,193)" transform="rotate(307 404 239)"></ellipse>
<ellipse cx="162" cy="146" rx="90" ry="10" style="fill:rgb(190,197,238)" transform="rotate(260 162 146)"></ellipse>
<ellipse cx="28" cy="311" rx="352" ry="21" style="fill:rgb(234,244,222)" transform="rotate(82 28 311)"></ellipse>
<ellipse cx="315" cy="145" rx="259" ry="19" style="fill:rgb(179,179,157)" transform="rotate(204 315 145)"></ellipse>
<ellipse cx="402" cy="234" rx="209" ry="101" style="fill:rgb(251,213,249)" transform="rotate(253 402 234)"></ellipse>
<ellipse cx="0" cy="341" rx="59" ry="104" style="fill:rgb(248,227,225)" transform="rotate(311 0 341)"></ellipse>
<ellipse cx="29" cy="249" rx="62" ry="46" style="fill:rgb(244,232,203)" transform="rotate(151 29 249)"></ellipse>
<ellipse cx="409" cy="18" rx="271" ry="92" style="fill:rgb(242,219,255)" transform="rotate(289 409 18)"></ellipse>
<ellipse cx="377" cy="274" rx="128" ry="113" style="fill:rgb(237,235,223)" transform="rotate(222 377 274)"></ellipse>
<ellipse cx="125" cy="284" rx="6" ry="46" style="fill:rgb(172,47,78)" transform="rotate(303 125 284)"></ellipse>
<ellipse cx="67" cy="58" rx="329" ry="1" style="fill:rgb(225,233,248)" transform="rotate(88 67 58)"></ellipse>
<ellipse cx="37" cy="193" rx="42" ry="155" style="fill:rgb(231,227,208)" transform="rotate(63 37 193)"></ellipse>
<ellipse cx="223" cy="121" rx="10" ry="98" style="fill:rgb(227,156,96)" transform="rotate(319 223 121)"></ellipse>
<ellipse cx="46" cy="348" rx="1" ry="228" style="fill:rgb(235,198,217)" transform="rotate(122 46 348)"></ellipse>
<ellipse cx="167" cy="96" rx="26" ry="36" style="fill:rgb(228,142,181)" transform="rotate(272 167 96)"></ellipse>
<ellipse cx="259" cy="177" rx="77" ry="11" style="fill:rgb(219,172,201)" transform="rotate(200 259 177)"></ellipse>
<ellipse cx="159" cy="116" rx="28" ry="61" style="fill:rgb(254,205,140)" transform="rotate(56 159 116)"></ellipse>
<ellipse cx="125" cy="313" rx="45" ry="35" style="fill:rgb(35,79,51)" transform="rotate(72 125 313)"></ellipse>
<ellipse cx="61" cy="307" rx="308" ry="12" style="fill:rgb(197,180,237)" transform="rotate(67 61 307)"></ellipse>
<ellipse cx="418" cy="289" rx="156" ry="210" style="fill:rgb(244,216,238)" transform="rotate(316 418 289)"></ellipse>
<ellipse cx="82" cy="4" rx="79" ry="221" style="fill:rgb(211,237,248)" transform="rotate(65 82 4)"></ellipse>
<ellipse cx="241" cy="131" rx="16" ry="49" style="fill:rgb(171,151,162)" transform="rotate(143 241 131)"></ellipse>
<ellipse cx="344" cy="280" rx="47" ry="50" style="fill:rgb(240,242,224)" transform="rotate(57 344 280)"></ellipse>
<ellipse cx="159" cy="340" rx="76" ry="21" style="fill:rgb(59,87,45)" transform="rotate(48 159 340)"></ellipse>
<ellipse cx="190" cy="283" rx="17" ry="5" style="fill:rgb(143,108,49)" transform="rotate(4 190 283)"></ellipse>
<ellipse cx="87" cy="348" rx="39" ry="7" style="fill:rgb(227,209,81)" transform="rotate(113 87 348)"></ellipse>
<ellipse cx="75" cy="266" rx="5" ry="122" style="fill:rgb(215,237,230)" transform="rotate(345 75 266)"></ellipse>
<ellipse cx="182" cy="238" rx="9" ry="30" style="fill:rgb(254,200,173)" transform="rotate(307 182 238)"></ellipse>
<ellipse cx="172" cy="197" rx="4" ry="54" style="fill:rgb(144,40,84)" transform="rotate(14 172 197)"></ellipse>
<ellipse cx="196" cy="125" rx="8" ry="37" style="fill:rgb(240,60,104)" transform="rotate(206 196 125)"></ellipse>
<ellipse cx="344" cy="294" rx="163" ry="32" style="fill:rgb(211,247,247)" transform="rotate(108 344 294)"></ellipse>
<ellipse cx="272" cy="346" rx="10" ry="140" style="fill:rgb(242,134,213)" transform="rotate(240 272 346)"></ellipse>
<ellipse cx="390" cy="101" rx="76" ry="135" style="fill:rgb(241,229,250)" transform="rotate(116 390 101)"></ellipse>
<ellipse cx="252" cy="108" rx="2" ry="38" style="fill:rgb(140,173,103)" transform="rotate(123 252 108)"></ellipse>
<ellipse cx="133" cy="41" rx="338" ry="13" style="fill:rgb(253,236,215)" transform="rotate(335 133 41)"></ellipse>
<ellipse cx="96" cy="272" rx="0" ry="25" style="fill:rgb(103,77,50)" transform="rotate(145 96 272)"></ellipse>
<ellipse cx="388" cy="106" rx="224" ry="18" style="fill:rgb(228,205,246)" transform="rotate(282 388 106)"></ellipse>
<ellipse cx="364" cy="233" rx="22" ry="325" style="fill:rgb(222,255,213)" transform="rotate(221 364 233)"></ellipse>
<ellipse cx="8" cy="313" rx="238" ry="75" style="fill:rgb(225,221,221)" transform="rotate(101 8 313)"></ellipse>
<ellipse cx="11" cy="19" rx="431" ry="25" style="fill:rgb(196,245,242)" transform="rotate(259 11 19)"></ellipse>
<ellipse cx="155" cy="218" rx="4" ry="49" style="fill:rgb(169,120,168)" transform="rotate(257 155 218)"></ellipse>
<ellipse cx="409" cy="294" rx="233" ry="64" style="fill:rgb(247,217,243)" transform="rotate(275 409 294)"></ellipse>
<ellipse cx="256" cy="162" rx="56" ry="22" style="fill:rgb(200,211,185)" transform="rotate(227 256 162)"></ellipse>
<ellipse cx="434" cy="244" rx="156" ry="143" style="fill:rgb(237,235,243)" transform="rotate(269 434 244)"></ellipse>
<ellipse cx="409" cy="250" rx="171" ry="135" style="fill:rgb(254,252,250)" transform="rotate(338 409 250)"></ellipse>
<ellipse cx="392" cy="33" rx="152" ry="36" style="fill:rgb(235,231,250)" transform="rotate(186 392 33)"></ellipse>
<ellipse cx="50" cy="62" rx="29" ry="82" style="fill:rgb(253,252,252)" transform="rotate(27 50 62)"></ellipse>
<ellipse cx="184" cy="187" rx="89" ry="2" style="fill:rgb(236,205,117)" transform="rotate(266 184 187)"></ellipse>
<ellipse cx="192" cy="302" rx="29" ry="51" style="fill:rgb(30,156,59)" transform="rotate(245 192 302)"></ellipse>
<ellipse cx="232" cy="111" rx="17" ry="51" style="fill:rgb(109,145,62)" transform="rotate(249 232 111)"></ellipse>
<ellipse cx="30" cy="338" rx="36" ry="117" style="fill:rgb(224,236,230)" transform="rotate(197 30 338)"></ellipse>
<ellipse cx="194" cy="209" rx="4" ry="7" style="fill:rgb(192,222,201)" transform="rotate(76 194 209)"></ellipse>
<ellipse cx="184" cy="279" rx="13" ry="10" style="fill:rgb(192,90,169)" transform="rotate(353 184 279)"></ellipse>
<ellipse cx="173" cy="117" rx="30" ry="93" style="fill:rgb(200,169,171)" transform="rotate(293 173 117)"></ellipse>
<ellipse cx="97" cy="325" rx="4" ry="80" style="fill:rgb(128,77,76)" transform="rotate(168 97 325)"></ellipse>
<ellipse cx="67" cy="22" rx="40" ry="157" style="fill:rgb(254,255,244)" transform="rotate(22 67 22)"></ellipse>
<ellipse cx="343" cy="200" rx="4" ry="178" style="fill:rgb(246,228,179)" transform="rotate(241 343 200)"></ellipse>
<ellipse cx="198" cy="80" rx="37" ry="4" style="fill:rgb(181,131,208)" transform="rotate(52 198 80)"></ellipse>
<ellipse cx="32" cy="229" rx="199" ry="11" style="fill:rgb(240,246,245)" transform="rotate(300 32 229)"></ellipse>
<ellipse cx="21" cy="103" rx="49" ry="100" style="fill:rgb(232,253,237)" transform="rotate(289 21 103)"></ellipse>
<ellipse cx="13" cy="170" rx="400" ry="30" style="fill:rgb(220,232,250)" transform="rotate(260 13 170)"></ellipse>
<ellipse cx="207" cy="330" rx="32" ry="4" style="fill:rgb(45,33,55)" transform="rotate(240 207 330)"></ellipse>
<ellipse cx="184" cy="335" rx="13" ry="90" style="fill:rgb(61,20,61)" transform="rotate(309 184 335)"></ellipse>
<ellipse cx="15" cy="252" rx="293" ry="50" style="fill:rgb(234,231,234)" transform="rotate(272 15 252)"></ellipse>
<ellipse cx="386" cy="348" rx="230" ry="97" style="fill:rgb(234,231,228)" transform="rotate(123 386 348)"></ellipse>
<ellipse cx="192" cy="282" rx="12" ry="3" style="fill:rgb(97,92,23)" transform="rotate(186 192 282)"></ellipse>
<ellipse cx="27" cy="4" rx="49" ry="40" style="fill:rgb(253,245,243)" transform="rotate(240 27 4)"></ellipse>
<ellipse cx="308" cy="255" rx="46" ry="210" style="fill:rgb(252,225,254)" transform="rotate(193 308 255)"></ellipse>
<ellipse cx="173" cy="157" rx="147" ry="4" style="fill:rgb(242,203,186)" transform="rotate(2 173 157)"></ellipse>
<ellipse cx="109" cy="252" rx="2" ry="30" style="fill:rgb(232,163,126)" transform="rotate(217 109 252)"></ellipse>
<ellipse cx="46" cy="70" rx="199" ry="1" style="fill:rgb(244,235,246)" transform="rotate(153 46 70)"></ellipse>
<ellipse cx="176" cy="327" rx="65" ry="17" style="fill:rgb(82,83,25)" transform="rotate(235 176 327)"></ellipse>
<ellipse cx="358" cy="26" rx="427" ry="48" style="fill:rgb(243,224,253)" transform="rotate(193 358 26)"></ellipse>
<ellipse cx="113" cy="218" rx="9" ry="41" style="fill:rgb(246,208,146)" transform="rotate(287 113 218)"></ellipse>
<ellipse cx="179" cy="249" rx="17" ry="28" style="fill:rgb(223,191,152)" transform="rotate(96 179 249)"></ellipse>
<ellipse cx="175" cy="125" rx="21" ry="57" style="fill:rgb(222,185,178)" transform="rotate(277 175 125)"></ellipse>
<ellipse cx="421" cy="55" rx="398" ry="12" style="fill:rgb(255,251,247)" transform="rotate(12 421 55)"></ellipse>
<ellipse cx="282" cy="237" rx="10" ry="348" style="fill:rgb(240,249,237)" transform="rotate(13 282 237)"></ellipse>
<ellipse cx="0" cy="125" rx="52" ry="30" style="fill:rgb(226,241,251)" transform="rotate(69 0 125)"></ellipse>
<ellipse cx="420" cy="307" rx="187" ry="93" style="fill:rgb(248,247,254)" transform="rotate(359 420 307)"></ellipse>
<ellipse cx="9" cy="287" rx="78" ry="29" style="fill:rgb(240,248,236)" transform="rotate(3 9 287)"></ellipse>
<ellipse cx="50" cy="56" rx="25" ry="228" style="fill:rgb(236,244,238)" transform="rotate(18 50 56)"></ellipse>
<ellipse cx="432" cy="330" rx="15" ry="283" style="fill:rgb(241,246,255)" transform="rotate(51 432 330)"></ellipse>
<ellipse cx="124" cy="243" rx="42" ry="19" style="fill:rgb(227,119,161)" transform="rotate(55 124 243)"></ellipse>
<ellipse cx="92" cy="314" rx="5" ry="7" style="fill:rgb(238,69,162)" transform="rotate(321 92 314)"></ellipse>
<ellipse cx="97" cy="69" rx="58" ry="12" style="fill:rgb(224,216,253)" transform="rotate(80 97 69)"></ellipse>
<ellipse cx="369" cy="266" rx="102" ry="83" style="fill:rgb(254,255,253)" transform="rotate(337 369 266)"></ellipse>
<ellipse cx="212" cy="173" rx="33" ry="5" style="fill:rgb(213,237,195)" transform="rotate(316 212 173)"></ellipse>
<ellipse cx="150" cy="74" rx="4" ry="7" style="fill:rgb(8,115,126)" transform="rotate(100 150 74)"></ellipse>
<ellipse cx="379" cy="219" rx="52" ry="99" style="fill:rgb(236,251,245)" transform="rotate(323 379 219)"></ellipse>
<ellipse cx="156" cy="77" rx="20" ry="24" style="fill:rgb(221,131,75)" transform="rotate(304 156 77)"></ellipse>
<ellipse cx="432" cy="1" rx="142" ry="86" style="fill:rgb(243,245,244)" transform="rotate(230 432 1)"></ellipse>
<ellipse cx="21" cy="284" rx="91" ry="32" style="fill:rgb(222,223,247)" transform="rotate(207 21 284)"></ellipse>
<ellipse cx="84" cy="145" rx="43" ry="21" style="fill:rgb(234,233,233)" transform="rotate(230 84 145)"></ellipse>
<ellipse cx="174" cy="219" rx="7" ry="0" style="fill:rgb(157,83,82)" transform="rotate(226 174 219)"></ellipse>
<ellipse cx="11" cy="292" rx="337" ry="52" style="fill:rgb(240,239,225)" transform="rotate(86 11 292)"></ellipse>
<ellipse cx="230" cy="219" rx="51" ry="31" style="fill:rgb(209,241,243)" transform="rotate(81 230 219)"></ellipse>
<ellipse cx="150" cy="275" rx="0" ry="5" style="fill:rgb(97,219,230)" transform="rotate(110 150 275)"></ellipse>
<ellipse cx="237" cy="99" rx="3" ry="0" style="fill:rgb(173,232,113)" transform="rotate(264 237 99)"></ellipse>
<ellipse cx="216" cy="315" rx="8" ry="35" style="fill:rgb(26,102,28)" transform="rotate(6 216 315)"></ellipse>
<ellipse cx="2" cy="171" rx="74" ry="63" style="fill:rgb(233,225,254)" transform="rotate(212 2 171)"></ellipse>
<ellipse cx="154" cy="336" rx="60" ry="60" style="fill:rgb(42,62,88)" transform="rotate(355 154 336)"></ellipse>
<ellipse cx="166" cy="338" rx="27" ry="39" style="fill:rgb(69,107,64)" transform="rotate(216 166 338)"></ellipse>
<ellipse cx="64" cy="203" rx="38" ry="49" style="fill:rgb(253,252,239)" transform="rotate(60 64 203)"></ellipse>
<ellipse cx="407" cy="73" rx="103" ry="184" style="fill:rgb(247,253,234)" transform="rotate(13 407 73)"></ellipse>
<ellipse cx="291" cy="79" rx="138" ry="22" style="fill:rgb(232,251,250)" transform="rotate(264 291 79)"></ellipse>
<ellipse cx="36" cy="60" rx="105" ry="94" style="fill:rgb(232,240,243)" transform="rotate(97 36 60)"></ellipse>
<ellipse cx="402" cy="141" rx="88" ry="133" style="fill:rgb(253,247,243)" transform="rotate(129 402 141)"></ellipse>
<ellipse cx="364" cy="58" rx="134" ry="47" style="fill:rgb(245,244,251)" transform="rotate(100 364 58)"></ellipse>
<ellipse cx="248" cy="273" rx="11" ry="10" style="fill:rgb(126,240,167)" transform="rotate(211 248 273)"></ellipse>
<ellipse cx="24" cy="37" rx="341" ry="14" style="fill:rgb(252,240,252)" transform="rotate(343 24 37)"></ellipse>
<ellipse cx="125" cy="249" rx="23" ry="12" style="fill:rgb(245,185,161)" transform="rotate(344 125 249)"></ellipse>
<ellipse cx="404" cy="275" rx="1" ry="303" style="fill:rgb(245,235,250)" transform="rotate(204 404 275)"></ellipse>
<ellipse cx="356" cy="26" rx="260" ry="27" style="fill:rgb(255,245,254)" transform="rotate(277 356 26)"></ellipse>
<ellipse cx="218" cy="172" rx="17" ry="1" style="fill:rgb(188,184,236)" transform="rotate(122 218 172)"></ellipse>
<ellipse cx="193" cy="258" rx="17" ry="5" style="fill:rgb(231,217,198)" transform="rotate(248 193 258)"></ellipse>
<ellipse cx="127" cy="228" rx="21" ry="15" style="fill:rgb(250,159,133)" transform="rotate(60 127 228)"></ellipse>
<ellipse cx="115" cy="61" rx="106" ry="10" style="fill:rgb(230,254,238)" transform="rotate(308 115 61)"></ellipse>
<ellipse cx="390" cy="318" rx="34" ry="152" style="fill:rgb(254,253,239)" transform="rotate(290 390 318)"></ellipse>
<ellipse cx="200" cy="99" rx="8" ry="3" style="fill:rgb(128,76,144)" transform="rotate(188 200 99)"></ellipse>
<ellipse cx="174" cy="154" rx="38" ry="25" style="fill:rgb(251,163,199)" transform="rotate(139 174 154)"></ellipse>
<ellipse cx="135" cy="305" rx="23" ry="31" style="fill:rgb(72,100,6)" transform="rotate(193 135 305)"></ellipse>
<ellipse cx="209" cy="83" rx="2" ry="0" style="fill:rgb(151,137,122)" transform="rotate(337 209 83)"></ellipse>
<ellipse cx="250" cy="120" rx="1" ry="18" style="fill:rgb(187,111,145)" transform="rotate(125 250 120)"></ellipse>
<ellipse cx="50" cy="158" rx="48" ry="38" style="fill:rgb(242,232,254)" transform="rotate(11 50 158)"></ellipse>
<ellipse cx="406" cy="346" rx="358" ry="18" style="fill:rgb(196,185,212)" transform="rotate(345 406 346)"></ellipse>
<ellipse cx="377" cy="345" rx="42" ry="139" style="fill:rgb(195,250,228)" transform="rotate(75 377 345)"></ellipse>
<ellipse cx="77" cy="231" rx="3" ry="140" style="fill:rgb(224,227,237)" transform="rotate(3 77 231)"></ellipse>
<ellipse cx="388" cy="311" rx="52" ry="103" style="fill:rgb(247,238,228)" transform="rotate(98 388 311)"></ellipse>
<ellipse cx="65" cy="22" rx="61" ry="145" style="fill:rgb(249,250,241)" transform="rotate(181 65 22)"></ellipse>
<ellipse cx="418" cy="338" rx="394" ry="19" style="fill:rgb(239,216,190)" transform="rotate(343 418 338)"></ellipse>
<ellipse cx="254" cy="99" rx="10" ry="2" style="fill:rgb(51,15,48)" transform="rotate(29 254 99)"></ellipse>
<ellipse cx="238" cy="288" rx="1" ry="2" style="fill:rgb(199,223,98)" transform="rotate(324 238 288)"></ellipse>
<ellipse cx="229" cy="312" rx="7" ry="1" style="fill:rgb(186,129,59)" transform="rotate(105 229 312)"></ellipse>
<ellipse cx="431" cy="89" rx="378" ry="30" style="fill:rgb(247,237,254)" transform="rotate(111 431 89)"></ellipse>
<ellipse cx="145" cy="295" rx="26" ry="2" style="fill:rgb(35,111,47)" transform="rotate(17 145 295)"></ellipse>
<ellipse cx="431" cy="341" rx="89" ry="109" style="fill:rgb(241,221,249)" transform="rotate(186 431 341)"></ellipse>
<ellipse cx="284" cy="70" rx="0" ry="289" style="fill:rgb(206,201,205)" transform="rotate(12 284 70)"></ellipse>
<ellipse cx="116" cy="158" rx="8" ry="79" style="fill:rgb(219,183,195)" transform="rotate(31 116 158)"></ellipse>
<ellipse cx="158" cy="243" rx="5" ry="22" style="fill:rgb(190,152,187)" transform="rotate(30 158 243)"></ellipse>
<ellipse cx="188" cy="134" rx="1" ry="41" style="fill:rgb(191,179,130)" transform="rotate(280 188 134)"></ellipse>
<ellipse cx="423" cy="192" rx="36" ry="349" style="fill:rgb(247,239,249)" transform="rotate(220 423 192)"></ellipse>
<ellipse cx="379" cy="318" rx="43" ry="272" style="fill:rgb(235,253,243)" transform="rotate(187 379 318)"></ellipse>
<ellipse cx="242" cy="87" rx="20" ry="0" style="fill:rgb(194,114,137)" transform="rotate(227 242 87)"></ellipse>
<ellipse cx="186" cy="101" rx="31" ry="9" style="fill:rgb(239,196,159)" transform="rotate(269 186 101)"></ellipse>
<ellipse cx="53" cy="202" rx="157" ry="6" style="fill:rgb(255,246,233)" transform="rotate(167 53 202)"></ellipse>
<ellipse cx="73" cy="252" rx="63" ry="5" style="fill:rgb(251,236,219)" transform="rotate(17 73 252)"></ellipse>
<ellipse cx="183" cy="116" rx="21" ry="59" style="fill:rgb(224,190,168)" transform="rotate(14 183 116)"></ellipse>
<ellipse cx="391" cy="323" rx="21" ry="263" style="fill:rgb(252,254,238)" transform="rotate(231 391 323)"></ellipse>
<ellipse cx="397" cy="310" rx="86" ry="39" style="fill:rgb(254,254,250)" transform="rotate(335 397 310)"></ellipse>
<ellipse cx="141" cy="331" rx="16" ry="5" style="fill:rgb(27,107,52)" transform="rotate(140 141 331)"></ellipse>
<ellipse cx="88" cy="207" rx="41" ry="7" style="fill:rgb(239,193,180)" transform="rotate(279 88 207)"></ellipse>
<ellipse cx="116" cy="296" rx="3" ry="8" style="fill:rgb(4,55,24)" transform="rotate(302 116 296)"></ellipse>
<ellipse cx="27" cy="150" rx="45" ry="46" style="fill:rgb(246,244,245)" transform="rotate(348 27 150)"></ellipse>
<ellipse cx="360" cy="1" rx="105" ry="98" style="fill:rgb(249,251,255)" transform="rotate(21 360 1)"></ellipse>
<ellipse cx="169" cy="214" rx="11" ry="5" style="fill:rgb(77,104,24)" transform="rotate(25 169 214)"></ellipse>
<ellipse cx="152" cy="67" rx="2" ry="17" style="fill:rgb(159,35,90)" transform="rotate(210 152 67)"></ellipse>
<ellipse cx="1" cy="346" rx="7" ry="38" style="fill:rgb(236,246,240)" transform="rotate(60 1 346)"></ellipse>
<ellipse cx="270" cy="161" rx="21" ry="27" style="fill:rgb(235,153,197)" transform="rotate(162 270 161)"></ellipse>
<ellipse cx="175" cy="342" rx="20" ry="38" style="fill:rgb(14,88,35)" transform="rotate(119 175 342)"></ellipse>
<ellipse cx="24" cy="290" rx="8" ry="20" style="fill:rgb(247,247,255)" transform="rotate(109 24 290)"></ellipse>
<ellipse cx="241" cy="114" rx="29" ry="10" style="fill:rgb(167,97,62)" transform="rotate(246 241 114)"></ellipse>
<ellipse cx="265" cy="135" rx="20" ry="37" style="fill:rgb(228,191,138)" transform="rotate(241 265 135)"></ellipse>
<ellipse cx="137" cy="349" rx="41" ry="24" style="fill:rgb(73,65,62)" transform="rotate(216 137 349)"></ellipse>
<ellipse cx="148" cy="103" rx="21" ry="16" style="fill:rgb(249,162,183)" transform="rotate(145 148 103)"></ellipse>
<ellipse cx="172" cy="324" rx="13" ry="38" style="fill:rgb(17,83,39)" transform="rotate(23 172 324)"></ellipse>
<ellipse cx="22" cy="266" rx="58" ry="94" style="fill:rgb(253,242,236)" transform="rotate(167 22 266)"></ellipse>
<ellipse cx="224" cy="107" rx="2" ry="30" style="fill:rgb(119,51,35)" transform="rotate(271 224 107)"></ellipse>
<ellipse cx="178" cy="313" rx="20" ry="55" style="fill:rgb(51,118,78)" transform="rotate(107 178 313)"></ellipse>
<ellipse cx="189" cy="255" rx="32" ry="5" style="fill:rgb(210,235,187)" transform="rotate(261 189 255)"></ellipse>
<ellipse cx="98" cy="277" rx="14" ry="18" style="fill:rgb(126,28,64)" transform="rotate(197 98 277)"></ellipse>
<ellipse cx="79" cy="217" rx="2" ry="0" style="fill:rgb(187,82,189)" transform="rotate(88 79 217)"></ellipse>
<ellipse cx="237" cy="291" rx="0" ry="13" style="fill:rgb(1,225,56)" transform="rotate(230 237 291)"></ellipse>
<ellipse cx="114" cy="80" rx="8" ry="95" style="fill:rgb(251,247,225)" transform="rotate(41 114 80)"></ellipse>
<ellipse cx="250" cy="176" rx="11" ry="20" style="fill:rgb(201,226,197)" transform="rotate(80 250 176)"></ellipse>
<ellipse cx="277" cy="69" rx="41" ry="0" style="fill:rgb(219,205,204)" transform="rotate(103 277 69)"></ellipse>
<ellipse cx="337" cy="290" rx="359" ry="14" style="fill:rgb(247,255,253)" transform="rotate(123 337 290)"></ellipse>
<ellipse cx="180" cy="64" rx="5" ry="8" style="fill:rgb(188,129,51)" transform="rotate(234 180 64)"></ellipse>
<ellipse cx="236" cy="279" rx="12" ry="2" style="fill:rgb(66,210,145)" transform="rotate(52 236 279)"></ellipse>
<ellipse cx="64" cy="292" rx="22" ry="276" style="fill:rgb(253,228,238)" transform="rotate(350 64 292)"></ellipse>
<ellipse cx="58" cy="109" rx="6" ry="300" style="fill:rgb(244,255,247)" transform="rotate(182 58 109)"></ellipse>
<ellipse cx="204" cy="173" rx="48" ry="9" style="fill:rgb(218,219,181)" transform="rotate(186 204 173)"></ellipse>
<ellipse cx="177" cy="169" rx="3" ry="58" style="fill:rgb(192,176,189)" transform="rotate(347 177 169)"></ellipse>
<ellipse cx="179" cy="247" rx="8" ry="17" style="fill:rgb(209,193,139)" transform="rotate(217 179 247)"></ellipse>
<ellipse cx="94" cy="346" rx="5" ry="0" style="fill:rgb(215,180,224)" transform="rotate(131 94 346)"></ellipse>
<ellipse cx="190" cy="194" rx="9" ry="8" style="fill:rgb(248,187,201)" transform="rotate(68 190 194)"></ellipse>
<ellipse cx="115" cy="168" rx="43" ry="0" style="fill:rgb(233,207,208)" transform="rotate(192 115 168)"></ellipse>
<ellipse cx="242" cy="102" rx="8" ry="15" style="fill:rgb(113,88,43)" transform="rotate(56 242 102)"></ellipse>
<ellipse cx="71" cy="305" rx="1" ry="321" style="fill:rgb(248,253,250)" transform="rotate(180 71 305)"></ellipse>
<ellipse cx="320" cy="204" rx="23" ry="9" style="fill:rgb(254,251,245)" transform="rotate(274 320 204)"></ellipse>
<ellipse cx="163" cy="81" rx="13" ry="9" style="fill:rgb(217,114,157)" transform="rotate(206 163 81)"></ellipse>
<ellipse cx="211" cy="332" rx="60" ry="14" style="fill:rgb(99,100,9)" transform="rotate(256 211 332)"></ellipse>
<ellipse cx="26" cy="320" rx="222" ry="12" style="fill:rgb(249,237,251)" transform="rotate(40 26 320)"></ellipse>
</svg>