<svg><ellipse cx="123" cy="55" rx="126" ry="113" style="fill:rgb(123,163,80)" transform="rotate(0 123 55)"></ellipse>
<ellipse cx="236" cy="103" rx="75" ry="229" style="fill:rgb(30,133,179)" transform="rotate(0 236 103)"></ellipse>
<ellipse cx="10" cy="57" rx="85" ry="86" style="fill:rgb(195,105,18)" transform="rotate(0 10 57)"></ellipse>
<ellipse cx="81" cy="5" rx="37" ry="160" style="fill:rgb(196,195,16)" transform="rotate(0 81 5)"></ellipse>
<ellipse cx="145" cy="105" rx="38" ry="234" style="fill:rgb(45,250,85)" transform="rotate(0 145 105)"></ellipse>
<ellipse cx="233" cy="52" rx="81" ry="156" style="fill:rgb(14,186,220)" transform="rotate(0 233 52)"></ellipse>
<ellipse cx="239" cy="94" rx="36" ry="48" style="fill:rgb(23,76,232)" transform="rotate(0 239 94)"></ellipse>
<ellipse cx="113" cy="45" rx="17" ry="141" style="fill:rgb(120,222,17)" transform="rotate(0 113 45)"></ellipse>
<ellipse cx="133" cy="69" rx="15" ry="37" style="fill:rgb(26,244,8)" transform="rotate(0 133 69)"></ellipse>
<ellipse cx="254" cy="34" rx="22" ry="50" style="fill:rgb(6,31,227)" transform="rotate(0 254 34)"></ellipse>
<ellipse cx="18" cy="20" rx="36" ry="250" style="fill:rgb(240,121,23)" transform="rotate(0 18 20)"></ellipse>
<ellipse cx="17" cy="20" rx="25" ry="92" style="fill:rgb(250,93,10)" transform="rotate(0 17 20)"></ellipse>
<ellipse cx="152" cy="22" rx="9" ry="141" style="fill:rgb(36,244,93)" transform="rotate(0 152 22)"></ellipse>
<ellipse cx="140" cy="7" rx="10" ry="47" style="fill:rgb(48,244,48)" transform="rotate(0 140 7)"></ellipse>
<ellipse cx="77" cy="18" rx="15" ry="210" style="fill:rgb(224,235,19)" transform="rotate(0 77 18)"></ellipse>
<ellipse cx="90" cy="91" rx="1" ry="167" style="fill:rgb(254,222,22)" transform="rotate(0 90 91)"></ellipse>
<ellipse cx="90" cy="112" rx="11" ry="246" style="fill:rgb(234,195,6)" transform="rotate(0 90 112)"></ellipse>
<ellipse cx="251" cy="3" rx="34" ry="200" style="fill:rgb(16,51,226)" transform="rotate(0 251 3)"></ellipse>
<ellipse cx="207" cy="10" rx="20" ry="161" style="fill:rgb(5,130,234)" transform="rotate(0 207 10)"></ellipse>
<ellipse cx="249" cy="58" rx="23" ry="256" style="fill:rgb(6,44,243)" transform="rotate(0 249 58)"></ellipse>
<ellipse cx="200" cy="101" rx="13" ry="46" style="fill:rgb(11,213,210)" transform="rotate(0 200 101)"></ellipse>
<ellipse cx="105" cy="52" rx="2" ry="104" style="fill:rgb(187,249,48)" transform="rotate(0 105 52)"></ellipse>
<ellipse cx="84" cy="74" rx="25" ry="57" style="fill:rgb(211,237,1)" transform="rotate(0 84 74)"></ellipse>
<ellipse cx="0" cy="118" rx="1" ry="58" style="fill:rgb(219,70,60)" transform="rotate(0 0 118)"></ellipse>
<ellipse cx="183" cy="19" rx="22" ry="246" style="fill:rgb(22,192,254)" transform="rotate(0 183 19)"></ellipse>
<ellipse cx="151" cy="75" rx="2" ry="84" style="fill:rgb(15,239,91)" transform="rotate(0 151 75)"></ellipse>
<ellipse cx="73" cy="66" rx="23" ry="235" style="fill:rgb(228,197,8)" transform="rotate(0 73 66)"></ellipse>
<ellipse cx="161" cy="124" rx="1" ry="204" style="fill:rgb(20,166,168)" transform="rotate(0 161 124)"></ellipse>
<ellipse cx="175" cy="99" rx="0" ry="56" style="fill:rgb(37,212,255)" transform="rotate(0 175 99)"></ellipse>
<ellipse cx="91" cy="109" rx="1" ry="177" style="fill:rgb(220,245,34)" transform="rotate(0 91 109)"></ellipse>
<ellipse cx="114" cy="80" rx="2" ry="94" style="fill:rgb(108,244,19)" transform="rotate(0 114 80)"></ellipse>
<ellipse cx="3" cy="81" rx="11" ry="245" style="fill:rgb(216,43,37)" transform="rotate(0 3 81)"></ellipse>
<ellipse cx="1" cy="0" rx="36" ry="146" style="fill:rgb(226,53,5)" transform="rotate(0 1 0)"></ellipse>
<ellipse cx="181" cy="124" rx="21" ry="4" style="fill:rgb(44,242,249)" transform="rotate(0 181 124)"></ellipse>
<ellipse cx="14" cy="116" rx="7" ry="22" style="fill:rgb(235,67,2)" transform="rotate(0 14 116)"></ellipse>
<ellipse cx="156" cy="78" rx="3" ry="89" style="fill:rgb(10,252,123)" transform="rotate(0 156 78)"></ellipse>
<ellipse cx="188" cy="5" rx="25" ry="33" style="fill:rgb(4,249,250)" transform="rotate(0 188 5)"></ellipse>
<ellipse cx="191" cy="48" rx="15" ry="173" style="fill:rgb(5,203,231)" transform="rotate(0 191 48)"></ellipse>
<ellipse cx="134" cy="43" rx="2" ry="241" style="fill:rgb(22,247,12)" transform="rotate(0 134 43)"></ellipse>
<ellipse cx="181" cy="13" rx="17" ry="136" style="fill:rgb(10,207,242)" transform="rotate(0 181 13)"></ellipse>
<ellipse cx="45" cy="113" rx="4" ry="45" style="fill:rgb(254,129,13)" transform="rotate(0 45 113)"></ellipse>
<ellipse cx="4" cy="118" rx="0" ry="199" style="fill:rgb(232,5,2)" transform="rotate(0 4 118)"></ellipse>
<ellipse cx="163" cy="71" rx="3" ry="153" style="fill:rgb(66,234,208)" transform="rotate(0 163 71)"></ellipse>
<ellipse cx="218" cy="14" rx="12" ry="102" style="fill:rgb(14,151,242)" transform="rotate(0 218 14)"></ellipse>
<ellipse cx="184" cy="46" rx="9" ry="41" style="fill:rgb(30,244,242)" transform="rotate(0 184 46)"></ellipse>
<ellipse cx="255" cy="109" rx="2" ry="238" style="fill:rgb(15,7,237)" transform="rotate(0 255 109)"></ellipse>
<ellipse cx="224" cy="122" rx="17" ry="148" style="fill:rgb(4,110,244)" transform="rotate(0 224 122)"></ellipse>
<ellipse cx="92" cy="107" rx="9" ry="132" style="fill:rgb(236,236,36)" transform="rotate(0 92 107)"></ellipse>
<ellipse cx="6" cy="85" rx="7" ry="192" style="fill:rgb(227,25,23)" transform="rotate(0 6 85)"></ellipse>
<ellipse cx="127" cy="1" rx="1" ry="248" style="fill:rgb(30,214,9)" transform="rotate(0 127 1)"></ellipse>
<ellipse cx="126" cy="121" rx="3" ry="25" style="fill:rgb(89,246,20)" transform="rotate(0 126 121)"></ellipse>
<ellipse cx="80" cy="69" rx="0" ry="232" style="fill:rgb(232,233,22)" transform="rotate(0 80 69)"></ellipse>
<ellipse cx="81" cy="13" rx="4" ry="22" style="fill:rgb(245,222,38)" transform="rotate(0 81 13)"></ellipse>
<ellipse cx="163" cy="108" rx="0" ry="144" style="fill:rgb(48,223,201)" transform="rotate(0 163 108)"></ellipse>
<ellipse cx="6" cy="11" rx="10" ry="240" style="fill:rgb(226,33,16)" transform="rotate(0 6 11)"></ellipse>
<ellipse cx="209" cy="116" rx="3" ry="47" style="fill:rgb(15,126,239)" transform="rotate(0 209 116)"></ellipse>
<ellipse cx="75" cy="17" rx="11" ry="214" style="fill:rgb(231,207,0)" transform="rotate(0 75 17)"></ellipse>
</svg>